  0
SECTION
  2
HEADER
  9
$ACADVER
  1
AC1015
  9
$ACADMAINTVER
 70
     6
  9
$DWGCODEPAGE
  3
ANSI_1251
  9
$INSBASE
 10
0.0
 20
0.0
 30
0.0
  9
$EXTMIN
 10
0.0
 20
0.0
 30
0.0
  9
$EXTMAX
 10
1189.0
 20
841.0
 30
0.0
  9
$LIMMIN
 10
0.0
 20
0.0
  9
$LIMMAX
 10
1189.0
 20
841.0
  9
$ORTHOMODE
 70
     0
  9
$REGENMODE
 70
     1
  9
$FILLMODE
 70
     1
  9
$QTEXTMODE
 70
     0
  9
$MIRRTEXT
 70
     1
  9
$LTSCALE
 40
1.0
  9
$ATTMODE
 70
     1
  9
$TEXTSIZE
 40
3.5
  9
$TRACEWID
 40
1.0
  9
$TEXTSTYLE
  7
Standard
  9
$CLAYER
  8
0
  9
$CELTYPE
  6
ByLayer
  9
$CECOLOR
 62
   256
  9
$CELTSCALE
 40
1.0
  9
$DISPSILH
 70
     0
  9
$DIMSCALE
 40
1.0
  9
$DIMASZ
 40
3.5
  9
$DIMEXO
 40
0.01
  9
$DIMDLI
 40
3.75
  9
$DIMRND
 40
0.0
  9
$DIMDLE
 40
0.0
  9
$DIMEXE
 40
1.0
  9
$DIMTP
 40
0.0
  9
$DIMTM
 40
0.0
  9
$DIMTXT
 40
3.5
  9
$DIMCEN
 40
2.5
  9
$DIMTSZ
 40
0.0
  9
$DIMTOL
 70
     0
  9
$DIMLIM
 70
     0
  9
$DIMTIH
 70
     1
  9
$DIMTOH
 70
     1
  9
$DIMSE1
 70
     0
  9
$DIMSE2
 70
     0
  9
$DIMTAD
 70
     1
  9
$DIMZIN
 70
     0
  9
$DIMBLK
  1

  9
$DIMASO
 70
     1
  9
$DIMSHO
 70
     1
  9
$DIMPOST
  1

  9
$DIMAPOST
  1

  9
$DIMALT
 70
     0
  9
$DIMALTD
 70
     3
  9
$DIMALTF
 40
0.0393700787
  9
$DIMLFAC
 40
2.0
  9
$DIMTOFL
 70
     1
  9
$DIMTVP
 40
0.0
  9
$DIMTIX
 70
     0
  9
$DIMSOXD
 70
     0
  9
$DIMSAH
 70
     0
  9
$DIMBLK1
  1

  9
$DIMBLK2
  1

  9
$DIMSTYLE
  2
ISO-25
  9
$DIMCLRD
 70
     0
  9
$DIMCLRE
 70
     0
  9
$DIMCLRT
 70
     0
  9
$DIMTFAC
 40
1.0
  9
$DIMGAP
 40
3.0
  9
$DIMJUST
 70
     0
  9
$DIMSD1
 70
     0
  9
$DIMSD2
 70
     0
  9
$DIMTOLJ
 70
     0
  9
$DIMTZIN
 70
     0
  9
$DIMALTZ
 70
     0
  9
$DIMALTTZ
 70
     0
  9
$DIMUPT
 70
     0
  9
$DIMDEC
 70
     2
  9
$DIMTDEC
 70
     3
  9
$DIMALTU
 70
     2
  9
$DIMALTTD
 70
     3
  9
$DIMTXSTY
  7
Standard
  9
$DIMAUNIT
 70
     0
  9
$DIMADEC
 70
     2
  9
$DIMALTRND
 40
0.0
  9
$DIMAZIN
 70
     0
  9
$DIMDSEP
 70
    44
  9
$DIMATFIT
 70
     3
  9
$DIMFRAC
 70
     0
  9
$DIMLDRBLK
  1

  9
$DIMLUNIT
 70
     2
  9
$DIMLWD
 70
    -2
  9
$DIMLWE
 70
    -2
  9
$DIMTMOVE
 70
     0
  9
$LUNITS
 70
     2
  9
$LUPREC
 70
     2
  9
$SKETCHINC
 40
1.0
  9
$FILLETRAD
 40
10.0
  9
$AUNITS
 70
     0
  9
$AUPREC
 70
     2
  9
$MENU
  1
.
  9
$ELEVATION
 40
0.0
  9
$PELEVATION
 40
0.0
  9
$THICKNESS
 40
0.0
  9
$LIMCHECK
 70
     0
  9
$CHAMFERA
 40
0.0
  9
$CHAMFERB
 40
0.0
  9
$CHAMFERC
 40
0.0
  9
$CHAMFERD
 40
0.0
  9
$SKPOLY
 70
     0
  9
$TDCREATE
 40
2458628.950411377
  9
$TDUCREATE
 40
2458628.825411377
  9
$TDUPDATE
 40
2458628.950415602
  9
$TDUUPDATE
 40
2458628.825415602
  9
$TDINDWG
 40
0.0000000116
  9
$TDUSRTIMER
 40
0.0000000116
  9
$USRTIMER
 70
     1
  9
$ANGBASE
 50
0.0
  9
$ANGDIR
 70
     0
  9
$PDMODE
 70
     0
  9
$PDSIZE
 40
-1.0
  9
$PLINEWID
 40
0.0
  9
$SPLFRAME
 70
     0
  9
$SPLINETYPE
 70
     6
  9
$SPLINESEGS
 70
     8
  9
$HANDSEED
  5
3FE
  9
$SURFTAB1
 70
     6
  9
$SURFTAB2
 70
     6
  9
$SURFTYPE
 70
     6
  9
$SURFU
 70
     6
  9
$SURFV
 70
     6
  9
$UCSBASE
  2

  9
$UCSNAME
  2

  9
$UCSORG
 10
0.0
 20
0.0
 30
0.0
  9
$UCSXDIR
 10
1.0
 20
0.0
 30
0.0
  9
$UCSYDIR
 10
0.0
 20
1.0
 30
0.0
  9
$UCSORTHOREF
  2

  9
$UCSORTHOVIEW
 70
     0
  9
$UCSORGTOP
 10
0.0
 20
0.0
 30
0.0
  9
$UCSORGBOTTOM
 10
0.0
 20
0.0
 30
0.0
  9
$UCSORGLEFT
 10
0.0
 20
0.0
 30
0.0
  9
$UCSORGRIGHT
 10
0.0
 20
0.0
 30
0.0
  9
$UCSORGFRONT
 10
0.0
 20
0.0
 30
0.0
  9
$UCSORGBACK
 10
0.0
 20
0.0
 30
0.0
  9
$PUCSBASE
  2

  9
$PUCSNAME
  2

  9
$PUCSORG
 10
0.0
 20
0.0
 30
0.0
  9
$PUCSXDIR
 10
1.0
 20
0.0
 30
0.0
  9
$PUCSYDIR
 10
0.0
 20
1.0
 30
0.0
  9
$PUCSORTHOREF
  2

  9
$PUCSORTHOVIEW
 70
     0
  9
$PUCSORGTOP
 10
0.0
 20
0.0
 30
0.0
  9
$PUCSORGBOTTOM
 10
0.0
 20
0.0
 30
0.0
  9
$PUCSORGLEFT
 10
0.0
 20
0.0
 30
0.0
  9
$PUCSORGRIGHT
 10
0.0
 20
0.0
 30
0.0
  9
$PUCSORGFRONT
 10
0.0
 20
0.0
 30
0.0
  9
$PUCSORGBACK
 10
0.0
 20
0.0
 30
0.0
  9
$USERI1
 70
     0
  9
$USERI2
 70
     0
  9
$USERI3
 70
     0
  9
$USERI4
 70
     0
  9
$USERI5
 70
     0
  9
$USERR1
 40
0.0
  9
$USERR2
 40
0.0
  9
$USERR3
 40
0.0
  9
$USERR4
 40
0.0
  9
$USERR5
 40
0.0
  9
$WORLDVIEW
 70
     1
  9
$SHADEDGE
 70
     3
  9
$SHADEDIF
 70
    70
  9
$TILEMODE
 70
     1
  9
$MAXACTVP
 70
    64
  9
$PINSBASE
 10
0.0
 20
0.0
 30
0.0
  9
$PLIMCHECK
 70
     0
  9
$PEXTMIN
 10
1.0000000000E+20
 20
1.0000000000E+20
 30
1.0000000000E+20
  9
$PEXTMAX
 10
-1.0000000000E+20
 20
-1.0000000000E+20
 30
-1.0000000000E+20
  9
$PLIMMIN
 10
0.0
 20
0.0
  9
$PLIMMAX
 10
420.0
 20
297.0
  9
$UNITMODE
 70
     0
  9
$VISRETAIN
 70
     1
  9
$PLINEGEN
 70
     0
  9
$PSLTSCALE
 70
     1
  9
$TREEDEPTH
 70
  3020
  9
$CMLSTYLE
  2
Standard
  9
$CMLJUST
 70
     0
  9
$CMLSCALE
 40
20.0
  9
$PROXYGRAPHICS
 70
     1
  9
$MEASUREMENT
 70
     1
  9
$CELWEIGHT
370
    -1
  9
$ENDCAPS
280
     0
  9
$JOINSTYLE
280
     0
  9
$LWDISPLAY
290
     1
  9
$INSUNITS
 70
     4
  9
$HYPERLINKBASE
  1

  9
$STYLESHEET
  1

  9
$XEDIT
290
     1
  9
$CEPSNTYPE
380
     0
  9
$PSTYLEMODE
290
     1
  9
$FINGERPRINTGUID
  2
{A2DFA39B-664E-4C76-96DA-10D3B7DE6201}
  9
$VERSIONGUID
  2
{FAEB1C32-E019-11D5-929B-00C0DF256EC4}
  9
$EXTNAMES
290
     1
  9
$PSVPSCALE
 40
0.0
  9
$OLESTARTUP
290
     0
  0
ENDSEC
  0
SECTION
  2
CLASSES
  0
CLASS
  1
ACDBDICTIONARYWDFLT
  2
AcDbDictionaryWithDefault
  3
ObjectDBX Classes
 90
        0
280
     0
281
     0
  0
CLASS
  1
VISUALSTYLE
  2
AcDbVisualStyle
  3
ObjectDBX Classes
 90
     4095
280
     0
281
     0
  0
CLASS
  1
MATERIAL
  2
AcDbMaterial
  3
ObjectDBX Classes
 90
     1153
280
     0
281
     0
  0
CLASS
  1
SCALE
  2
AcDbScale
  3
ObjectDBX Classes
 90
     1153
280
     0
281
     0
  0
CLASS
  1
TABLESTYLE
  2
AcDbTableStyle
  3
ObjectDBX Classes
 90
     4095
280
     0
281
     0
  0
CLASS
  1
MLEADERSTYLE
  2
AcDbMLeaderStyle
  3
ACDB_MLEADERSTYLE_CLASS
 90
     4095
280
     0
281
     0
  0
CLASS
  1
SUN
  2
AcDbSun
  3
SCENEOE
 90
     1153
280
     0
281
     0
  0
CLASS
  1
ACDBPLACEHOLDER
  2
AcDbPlaceHolder
  3
ObjectDBX Classes
 90
        0
280
     0
281
     0
  0
CLASS
  1
LAYOUT
  2
AcDbLayout
  3
ObjectDBX Classes
 90
        0
280
     0
281
     0
  0
ENDSEC
  0
SECTION
  2
TABLES
  0
TABLE
  2
VPORT
  5
8
330
0
100
AcDbSymbolTable
 70
     1
  0
VPORT
  5
29
330
8
100
AcDbSymbolTableRecord
100
AcDbViewportTableRecord
  2
*Active
 70
     0
 10
0.0
 20
0.0
 11
1.0
 21
1.0
 12
594.5
 22
420.5
 13
0.0
 23
0.0
 14
10.0
 24
10.0
 15
10.0
 25
10.0
 16
0.0
 26
0.0
 36
1.0
 17
0.0
 27
0.0
 37
0.0
 40
841.0
 41
1.4137931034
 42
50.0
 43
0.0
 44
0.0
 50
0.0
 51
0.0
 71
     0
 72
  2000
 73
     1
 74
     3
 75
     0
 76
     0
 77
     0
 78
     0
281
     0
 65
     1
110
0.0
120
0.0
130
0.0
111
1.0
121
0.0
131
0.0
112
0.0
122
1.0
132
0.0
 79
     0
146
0.0
  0
ENDTAB
  0
TABLE
  2
LTYPE
  5
5
330
0
100
AcDbSymbolTable
 70
     6
  0
LTYPE
  5
14
330
5
100
AcDbSymbolTableRecord
100
AcDbLinetypeTableRecord
  2
ByBlock
 70
     0
  3

 72
    65
 73
     0
 40
0.0
  0
LTYPE
  5
15
330
5
100
AcDbSymbolTableRecord
100
AcDbLinetypeTableRecord
  2
ByLayer
 70
     0
  3

 72
    65
 73
     0
 40
0.0
  0
LTYPE
  5
16
330
5
100
AcDbSymbolTableRecord
100
AcDbLinetypeTableRecord
  2
Continuous
 70
     0
  3
Solid line
 72
    65
 73
     0
 40
0.0
  0
LTYPE
  5
6E
330
5
100
AcDbSymbolTableRecord
100
AcDbLinetypeTableRecord
  2
HIDDEN
 70
     0
  3
Hidden __ __ __ __ __ __ __ __ __ __ __ __ __ __
 72
    65
 73
     2
 40
1.905
 49
1.27
 74
     0
 49
-0.635
 74
     0
  0
LTYPE
  5
6F
330
5
100
AcDbSymbolTableRecord
100
AcDbLinetypeTableRecord
  2
PHANTOM
 70
     0
  3
Phantom ______  __  __  ______  __  __  ______
 72
    65
 73
     6
 40
12.7
 49
6.35
 74
     0
 49
-1.27
 74
     0
 49
1.27
 74
     0
 49
-1.27
 74
     0
 49
1.27
 74
     0
 49
-1.27
 74
     0
  0
LTYPE
  5
70
330
5
100
AcDbSymbolTableRecord
100
AcDbLinetypeTableRecord
  2
CENTER
 70
     0
  3
Center ____ _ ____ _ ____ _ ____ _ ____ _ ____
 72
    65
 73
     4
 40
10.16
 49
6.35
 74
     0
 49
-1.27
 74
     0
 49
1.27
 74
     0
 49
-1.27
 74
     0
  0
LTYPE
  5
71
330
5
100
AcDbSymbolTableRecord
100
AcDbLinetypeTableRecord
  2
CENTERX2
 70
     0
  3
Center (2x) ________  __  ________  __  _____
 72
    65
 73
     4
 40
20.32
 49
12.7
 74
     0
 49
-2.54
 74
     0
 49
2.54
 74
     0
 49
-2.54
 74
     0
  0
LTYPE
  5
72
330
5
100
AcDbSymbolTableRecord
100
AcDbLinetypeTableRecord
  2
DOT2
 70
     0
  3
Dot (.5x) ........................................
 72
    65
 73
     2
 40
0.635
 49
0.0
 74
     0
 49
-0.635
 74
     0
  0
ENDTAB
  0
TABLE
  2
LAYER
  5
2
330
0
100
AcDbSymbolTable
 70
     2
  0
LAYER
  5
10
330
2
100
AcDbSymbolTableRecord
100
AcDbLayerTableRecord
  2
0
 70
     0
 62
     7
  6
Continuous
370
    -3
390
F
  0
LAYER
  5
73
330
2
100
AcDbSymbolTableRecord
100
AcDbLayerTableRecord
  2
FORMAT
 70
     0
 62
     7
  6
Continuous
370
    -3
390
F
  0
ENDTAB
  0
TABLE
  2
STYLE
  5
3
330
0
100
AcDbSymbolTable
 70
     4
  0
STYLE
  5
11
330
3
100
AcDbSymbolTableRecord
100
AcDbTextStyleTableRecord
  2
Standard
 70
     0
 40
0.0
 41
1.0
 50
0.0
 71
     0
 42
3.5
  3
txt
  4

  0
STYLE
  5
E5
330
3
100
AcDbSymbolTableRecord
100
AcDbTextStyleTableRecord
  2
SLDTEXTSTYLE0
 70
     0
 40
0.0
 41
0.75
 50
0.0
 71
     0
 42
3.5
  3
TXT
  4

  0
STYLE
  5
137
330
3
100
AcDbSymbolTableRecord
100
AcDbTextStyleTableRecord
  2
SLDTEXTSTYLE1
 70
     0
 40
0.0
 41
0.75
 50
0.0
 71
     0
 42
3.5
  3
TXT
  4
bigfont
  0
STYLE
  5
13A
330
3
100
AcDbSymbolTableRecord
100
AcDbTextStyleTableRecord
  2
SLDTEXTSTYLE2
 70
     0
 40
0.0
 41
0.6818181818
 50
0.0
 71
     0
 42
3.5
  3
TXT
  4
bigfont
  0
ENDTAB
  0
TABLE
  2
VIEW
  5
6
330
0
100
AcDbSymbolTable
 70
     0
  0
ENDTAB
  0
TABLE
  2
UCS
  5
7
330
0
100
AcDbSymbolTable
 70
     0
  0
ENDTAB
  0
TABLE
  2
APPID
  5
9
330
0
100
AcDbSymbolTable
 70
     1
  0
APPID
  5
12
330
9
100
AcDbSymbolTableRecord
100
AcDbRegAppTableRecord
  2
ACAD
 70
     0
  0
ENDTAB
  0
TABLE
  2
DIMSTYLE
  5
A
330
0
100
AcDbSymbolTable
 70
     1
100
AcDbDimStyleTable
  0
DIMSTYLE
105
27
330
A
100
AcDbSymbolTableRecord
100
AcDbDimStyleTableRecord
  2
ISO-25
 70
     0
 41
2.5
 42
0.625
 43
3.75
 44
1.25
 73
     0
 74
     0
 77
     1
 78
     8
140
2.5
141
2.5
143
0.0393700787
147
0.625
171
     3
172
     1
178
     0
271
     2
272
     2
274
     3
278
    44
283
     0
284
     8
340
11
  0
ENDTAB
  0
TABLE
  2
BLOCK_RECORD
  5
1
330
0
100
AcDbSymbolTable
 70
     3
  0
BLOCK_RECORD
  5
1F
330
1
100
AcDbSymbolTableRecord
100
AcDbBlockTableRecord
  2
*Model_Space
340
22
  0
BLOCK_RECORD
  5
1B
330
1
100
AcDbSymbolTableRecord
100
AcDbBlockTableRecord
  2
*Paper_Space
340
1E
  0
BLOCK_RECORD
  5
23
330
1
100
AcDbSymbolTableRecord
100
AcDbBlockTableRecord
  2
*Paper_Space0
340
26
  0
BLOCK_RECORD
  5
145
330
1
100
AcDbSymbolTableRecord
100
AcDbBlockTableRecord
  2
SW_NOTE_0
340
0
102
{BLKREFS
331
14B
102
}
  0
BLOCK_RECORD
  5
14D
330
1
100
AcDbSymbolTableRecord
100
AcDbBlockTableRecord
  2
SW_NOTE_1
340
0
102
{BLKREFS
331
156
102
}
  0
ENDTAB
  0
ENDSEC
  0
SECTION
  2
BLOCKS
  0
BLOCK
  5
20
330
1F
100
AcDbEntity
  8
0
100
AcDbBlockBegin
  2
*Model_Space
 70
     0
 10
0.0
 20
0.0
 30
0.0
  3
*Model_Space
  1

  0
ENDBLK
  5
21
330
1F
100
AcDbEntity
  8
0
100
AcDbBlockEnd
  0
BLOCK
  5
1C
330
1B
100
AcDbEntity
 67
     1
  8
0
100
AcDbBlockBegin
  2
*Paper_Space
 70
     0
 10
0.0
 20
0.0
 30
0.0
  3
*Paper_Space
  1

  0
ENDBLK
  5
1D
330
1B
100
AcDbEntity
 67
     1
  8
0
100
AcDbBlockEnd
  0
BLOCK
  5
24
330
23
100
AcDbEntity
  8
0
100
AcDbBlockBegin
  2
*Paper_Space0
 70
     0
 10
0.0
 20
0.0
 30
0.0
  3
*Paper_Space0
  1

  0
ENDBLK
  5
25
330
23
100
AcDbEntity
  8
0
100
AcDbBlockEnd
  0
BLOCK
  5
146
330
145
100
AcDbEntity
  8
0
100
AcDbBlockBegin
  2
SW_NOTE_0
 70
     0
 10
0.0
 20
0.0
 30
0.0
  3
SW_NOTE_0
  1

  0
MTEXT
  5
148
330
145
100
AcDbEntity
  8
0
  6
Continuous
 62
     0
370
     0
100
AcDbMText
 10
0.0
 20
1.9336016097
 30
0.0
 40
1.5
 41
0.0
 71
     1
 72
     1
  1
\M+18452\M+18443\M+1844C\M+18440\M+18444\M+18449\M+18453\M+1845D
  7
SLDTEXTSTYLE1
 73
     1
 44
1.0
  0
MTEXT
  5
149
330
145
100
AcDbEntity
  8
0
  6
Continuous
 62
     0
370
     0
100
AcDbMText
 10
0.0
 20
-0.5663983345
 30
0.0
 40
1.5
 41
0.0
 71
     1
 72
     1
  1
\M+18448\M+18440\M+18454\M+18452\M+18445\M+1844E\M+18457\M+1845C \M+18449
  7
SLDTEXTSTYLE1
 73
     1
 44
1.0
  0
MTEXT
  5
14A
330
145
100
AcDbEntity
  8
0
  6
Continuous
 62
     0
370
     0
100
AcDbMText
 10
0.0
 20
-3.0663982786
 30
0.0
 40
1.5
 41
0.0
 71
     1
 72
     1
  1
\M+1844F\M+18452\M+18453\M+18451\M+1845C\M+18445 \M+1844B\M+18451\M+1844F\M+1844D\M+1844B\M+18449
  7
SLDTEXTSTYLE1
 73
     1
 44
1.0
  0
ENDBLK
  5
147
330
145
100
AcDbEntity
  8
0
100
AcDbBlockEnd
  0
BLOCK
  5
14E
330
14D
100
AcDbEntity
  8
0
100
AcDbBlockBegin
  2
SW_NOTE_1
 70
     0
 10
0.0
 20
0.0
 30
0.0
  3
SW_NOTE_1
  1

  0
MTEXT
  5
150
330
14D
100
AcDbEntity
  8
0
  6
Continuous
 62
     0
370
     0
100
AcDbMText
 10
0.0
 20
1.9336016097
 30
0.0
 40
1.5
 41
0.0
 71
     1
 72
     1
  1
\M+18450\M+1844F \M+18454\M+1844D\M+1844F\M+1844C\M+18458\M+18440\M+1844E\M+18449\M+1845F:
  7
SLDTEXTSTYLE1
 73
     1
 44
1.0
  0
MTEXT
  5
151
330
14D
100
AcDbEntity
  8
0
  6
Continuous
 62
     0
370
     0
100
AcDbMText
 10
0.0
 20
-0.5663983345
 30
0.0
 40
1.5
 41
0.0
 71
     1
 72
     1
  1
\M+18451\M+18440\M+18448\M+1844D\M+18445\M+18451\M+1845C \M+18442 \M+1844D\M+18449\M+1844C\M+1844C\M+18449\M+1844D\M+18445\M+18453\M+18451\M+18440\M+18456
  7
SLDTEXTSTYLE1
 73
     1
 44
1.0
  0
MTEXT
  5
152
330
14D
100
AcDbEntity
  8
0
  6
Continuous
 62
     0
370
     0
100
AcDbMText
 10
0.0
 20
-3.0663982786
 30
0.0
 40
1.5
 41
0.0
 71
     1
 72
     1
  1
\M+18459\M+18445\M+18451\M+1844F\M+18456\M+1844F\M+18442\M+18440\M+18453\M+1844F\M+18452\M+18453\M+1845D:
  7
SLDTEXTSTYLE1
 73
     1
 44
1.0
  0
MTEXT
  5
153
330
14D
100
AcDbEntity
  8
0
  6
Continuous
 62
     0
370
     0
100
AcDbMText
 10
0.0
 20
-5.5663982227
 30
0.0
 40
1.5
 41
0.0
 71
     1
 72
     1
  1
\M+18444\M+1844F\M+18450\M+18454\M+18452\M+1844B\M+18449:
  7
SLDTEXTSTYLE1
 73
     1
 44
1.0
  0
MTEXT
  5
154
330
14D
100
AcDbEntity
  8
0
  6
Continuous
 62
     0
370
     0
100
AcDbMText
 10
1.6875
 20
-8.0663981668
 30
0.0
 40
1.5
 41
0.0
 71
     1
 72
     1
  1
\M+1844C\M+18449\M+1844E\M+18445\M+1844A\M+1844E\M+1845C\M+18445:
  7
SLDTEXTSTYLE1
 73
     1
 44
1.0
  0
MTEXT
  5
155
330
14D
100
AcDbEntity
  8
0
  6
Continuous
 62
     0
370
     0
100
AcDbMText
 10
1.6875
 20
-10.5663981109
 30
0.0
 40
1.5
 41
0.0
 71
     1
 72
     1
  1
\M+18454\M+18443\M+1844C\M+1844F\M+18442\M+1845C\M+18445:
  7
SLDTEXTSTYLE1
 73
     1
 44
1.0
  0
ENDBLK
  5
14F
330
14D
100
AcDbEntity
  8
0
100
AcDbBlockEnd
  0
ENDSEC
  0
SECTION
  2
ENTITIES
  0
LINE
  5
74
330
1F
100
AcDbEntity
  8
0
  6
Continuous
 62
     7
370
    50
100
AcDbLine
 10
999.0
 20
14.25
 30
0.0
 11
1179.0
 21
14.25
 31
0.0
  0
LINE
  5
75
330
1F
100
AcDbEntity
  8
0
  6
Continuous
 62
     7
370
    50
100
AcDbLine
 10
1179.0
 20
48.25
 30
0.0
 11
999.0
 21
48.25
 31
0.0
  0
LINE
  5
76
330
1F
100
AcDbEntity
  8
0
  6
Continuous
 62
     7
370
    50
100
AcDbLine
 10
999.0
 20
65.25
 30
0.0
 11
1179.0
 21
65.25
 31
0.0
  0
LINE
  5
77
330
1F
100
AcDbEntity
  8
0
  6
Continuous
 62
     7
370
    50
100
AcDbLine
 10
1025.9909524338
 20
48.25
 30
0.0
 11
1025.9909524338
 21
10.0
 31
0.0
  0
LINE
  5
78
330
1F
100
AcDbEntity
  8
0
  6
Continuous
 62
     7
370
    50
100
AcDbLine
 10
1097.8
 20
31.25
 30
0.0
 11
999.0
 21
31.25
 31
0.0
  0
LINE
  5
79
330
1F
100
AcDbEntity
  8
0
  6
Continuous
 62
     7
370
    50
100
AcDbLine
 10
1097.8
 20
35.5
 30
0.0
 11
999.0
 21
35.5
 31
0.0
  0
LINE
  5
7A
330
1F
100
AcDbEntity
  8
0
  6
Continuous
 62
     7
370
    50
100
AcDbLine
 10
1097.8
 20
39.75
 30
0.0
 11
999.0
 21
39.75
 31
0.0
  0
LINE
  5
7B
330
1F
100
AcDbEntity
  8
0
  6
Continuous
 62
     7
370
    50
100
AcDbLine
 10
1097.8
 20
44.0
 30
0.0
 11
999.0
 21
44.0
 31
0.0
  0
LINE
  5
7C
330
1F
100
AcDbEntity
  8
0
  6
Continuous
 62
     7
370
    50
100
AcDbLine
 10
1053.6
 20
10.0
 30
0.0
 11
1053.6
 21
48.25
 31
0.0
  0
LINE
  5
7D
330
1F
100
AcDbEntity
  8
0
  6
Continuous
 62
     7
370
    50
100
AcDbLine
 10
999.0
 20
65.25
 30
0.0
 11
999.0
 21
10.0
 31
0.0
  0
LINE
  5
7E
330
1F
100
AcDbEntity
  8
0
  6
Continuous
 62
     7
370
    50
100
AcDbLine
 10
1006.8
 20
48.25
 30
0.0
 11
1006.8
 21
10.0
 31
0.0
  0
LINE
  5
7F
330
1F
100
AcDbEntity
  8
0
  6
Continuous
 62
     7
370
    50
100
AcDbLine
 10
1032.8
 20
48.25
 30
0.0
 11
1032.8
 21
65.25
 31
0.0
  0
LINE
  5
80
330
1F
100
AcDbEntity
  8
0
  6
Continuous
 62
     7
370
    50
100
AcDbLine
 10
1043.3989261635
 20
48.25
 30
0.0
 11
1043.3989261635
 21
10.0
 31
0.0
  0
LINE
  5
81
330
1F
100
AcDbEntity
  8
0
  6
Continuous
 62
     7
370
    50
100
AcDbLine
 10
1064.0
 20
31.25
 30
0.0
 11
1064.0
 21
48.25
 31
0.0
  0
LINE
  5
82
330
1F
100
AcDbEntity
  8
0
  6
Continuous
 62
     7
370
    50
100
AcDbLine
 10
1053.6
 20
18.5
 30
0.0
 11
999.0
 21
18.5
 31
0.0
  0
LINE
  5
83
330
1F
100
AcDbEntity
  8
0
  6
Continuous
 62
     7
370
    50
100
AcDbLine
 10
1079.6
 20
65.25
 30
0.0
 11
1079.6
 21
27.0
 31
0.0
  0
LINE
  5
84
330
1F
100
AcDbEntity
  8
0
  6
Continuous
 62
     7
370
    50
100
AcDbLine
 10
1053.6
 20
22.749928
 30
0.0
 11
999.0
 21
22.749928
 31
0.0
  0
LINE
  5
85
330
1F
100
AcDbEntity
  8
0
  6
Continuous
 62
     7
370
    50
100
AcDbLine
 10
1053.6
 20
27.0
 30
0.0
 11
999.0
 21
27.0
 31
0.0
  0
LINE
  5
86
330
1F
100
AcDbEntity
  8
0
  6
Continuous
 62
     7
370
    50
100
AcDbLine
 10
1053.6
 20
27.0
 30
0.0
 11
1179.0
 21
27.0
 31
0.0
  0
LINE
  5
87
330
1F
100
AcDbEntity
  8
0
  6
Continuous
 62
     7
370
    50
100
AcDbLine
 10
1097.8
 20
65.25
 30
0.0
 11
1097.8
 21
10.0
 31
0.0
  0
LINE
  5
88
330
1F
100
AcDbEntity
  8
0
  6
Continuous
 62
     7
370
    50
100
AcDbLine
 10
1142.0
 20
10.0
 30
0.0
 11
1142.0
 21
14.25
 31
0.0
  0
LINE
  5
89
330
1F
100
AcDbEntity
  8
0
  6
Continuous
 62
     7
370
    50
100
AcDbLine
 10
1149.8
 20
58.875
 30
0.0
 11
1149.8
 21
65.25
 31
0.0
  0
LINE
  5
8A
330
1F
100
AcDbEntity
  8
0
  6
Continuous
 62
     7
370
    50
100
AcDbLine
 10
1166.0
 20
14.25
 30
0.0
 11
1166.0
 21
27.0
 31
0.0
  0
LINE
  5
8B
330
1F
100
AcDbEntity
  8
0
  6
Continuous
 62
     7
370
    50
100
AcDbLine
 10
1179.0
 20
58.875
 30
0.0
 11
1097.8
 21
58.875
 31
0.0
  0
LINE
  5
8C
330
1F
100
AcDbEntity
  8
0
  6
Continuous
 62
     7
370
    50
100
AcDbLine
 10
1179.0
 20
18.5
 30
0.0
 11
1166.0
 21
18.5
 31
0.0
  0
LINE
  5
8D
330
1F
100
AcDbEntity
  8
0
  6
Continuous
 62
     7
370
    70
100
AcDbLine
 10
20.0
 20
10.0
 30
0.0
 11
20.0
 21
831.0
 31
0.0
  0
LINE
  5
8E
330
1F
100
AcDbEntity
  8
0
  6
Continuous
 62
     7
370
    70
100
AcDbLine
 10
20.0
 20
831.0
 30
0.0
 11
1179.0
 21
831.0
 31
0.0
  0
LINE
  5
8F
330
1F
100
AcDbEntity
  8
0
  6
Continuous
 62
     7
370
    70
100
AcDbLine
 10
1179.0
 20
831.0
 30
0.0
 11
1179.0
 21
10.0
 31
0.0
  0
LINE
  5
90
330
1F
100
AcDbEntity
  8
0
  6
Continuous
 62
     7
370
    70
100
AcDbLine
 10
1179.0
 20
10.0
 30
0.0
 11
20.0
 21
10.0
 31
0.0
  0
LINE
  5
91
330
1F
100
AcDbEntity
  8
0
  6
Continuous
 62
     7
370
    70
100
AcDbLine
 10
15.0
 20
5.0
 30
0.0
 11
15.0
 21
836.0
 31
0.0
  0
LINE
  5
92
330
1F
100
AcDbEntity
  8
0
  6
Continuous
 62
     7
370
    70
100
AcDbLine
 10
15.0
 20
836.0
 30
0.0
 11
1184.0
 21
836.0
 31
0.0
  0
LINE
  5
93
330
1F
100
AcDbEntity
  8
0
  6
Continuous
 62
     7
370
    70
100
AcDbLine
 10
1184.0
 20
836.0
 30
0.0
 11
1184.0
 21
5.0
 31
0.0
  0
LINE
  5
94
330
1F
100
AcDbEntity
  8
0
  6
Continuous
 62
     7
370
    70
100
AcDbLine
 10
1184.0
 20
5.0
 30
0.0
 11
15.0
 21
5.0
 31
0.0
  0
LINE
  5
95
330
1F
100
AcDbEntity
  8
0
  6
Continuous
 62
     7
370
    35
100
AcDbLine
 10
15.0
 20
420.5
 30
0.0
 11
25.0
 21
420.5
 31
0.0
  0
LINE
  5
96
330
1F
100
AcDbEntity
  8
0
  6
Continuous
 62
     7
370
    35
100
AcDbLine
 10
599.5
 20
836.0
 30
0.0
 11
599.5
 21
826.0
 31
0.0
  0
LINE
  5
97
330
1F
100
AcDbEntity
  8
0
  6
Continuous
 62
     7
370
    35
100
AcDbLine
 10
1184.0
 20
420.5
 30
0.0
 11
1174.0
 21
420.5
 31
0.0
  0
LINE
  5
98
330
1F
100
AcDbEntity
  8
0
  6
Continuous
 62
     7
370
    35
100
AcDbLine
 10
599.5
 20
5.0
 30
0.0
 11
599.5
 21
15.0
 31
0.0
  0
LINE
  5
99
330
1F
100
AcDbEntity
  8
0
  6
Continuous
 62
     7
370
    35
100
AcDbLine
 10
20.0
 20
70.5
 30
0.0
 11
15.0
 21
70.5
 31
0.0
  0
LINE
  5
9A
330
1F
100
AcDbEntity
  8
0
  6
Continuous
 62
     7
370
    35
100
AcDbLine
 10
1179.0
 20
70.5
 30
0.0
 11
1184.0
 21
70.5
 31
0.0
  0
LINE
  5
9B
330
1F
100
AcDbEntity
  8
0
  6
Continuous
 62
     7
370
    35
100
AcDbLine
 10
20.0
 20
120.5
 30
0.0
 11
15.0
 21
120.5
 31
0.0
  0
LINE
  5
9C
330
1F
100
AcDbEntity
  8
0
  6
Continuous
 62
     7
370
    35
100
AcDbLine
 10
1179.0
 20
120.5
 30
0.0
 11
1184.0
 21
120.5
 31
0.0
  0
LINE
  5
9D
330
1F
100
AcDbEntity
  8
0
  6
Continuous
 62
     7
370
    35
100
AcDbLine
 10
20.0
 20
170.5
 30
0.0
 11
15.0
 21
170.5
 31
0.0
  0
LINE
  5
9E
330
1F
100
AcDbEntity
  8
0
  6
Continuous
 62
     7
370
    35
100
AcDbLine
 10
1179.0
 20
170.5
 30
0.0
 11
1184.0
 21
170.5
 31
0.0
  0
LINE
  5
9F
330
1F
100
AcDbEntity
  8
0
  6
Continuous
 62
     7
370
    35
100
AcDbLine
 10
20.0
 20
220.5
 30
0.0
 11
15.0
 21
220.5
 31
0.0
  0
LINE
  5
A0
330
1F
100
AcDbEntity
  8
0
  6
Continuous
 62
     7
370
    35
100
AcDbLine
 10
1179.0
 20
220.5
 30
0.0
 11
1184.0
 21
220.5
 31
0.0
  0
LINE
  5
A1
330
1F
100
AcDbEntity
  8
0
  6
Continuous
 62
     7
370
    35
100
AcDbLine
 10
20.0
 20
270.5
 30
0.0
 11
15.0
 21
270.5
 31
0.0
  0
LINE
  5
A2
330
1F
100
AcDbEntity
  8
0
  6
Continuous
 62
     7
370
    35
100
AcDbLine
 10
1179.0
 20
270.5
 30
0.0
 11
1184.0
 21
270.5
 31
0.0
  0
LINE
  5
A3
330
1F
100
AcDbEntity
  8
0
  6
Continuous
 62
     7
370
    35
100
AcDbLine
 10
20.0
 20
320.5
 30
0.0
 11
15.0
 21
320.5
 31
0.0
  0
LINE
  5
A4
330
1F
100
AcDbEntity
  8
0
  6
Continuous
 62
     7
370
    35
100
AcDbLine
 10
1179.0
 20
320.5
 30
0.0
 11
1184.0
 21
320.5
 31
0.0
  0
LINE
  5
A5
330
1F
100
AcDbEntity
  8
0
  6
Continuous
 62
     7
370
    35
100
AcDbLine
 10
20.0
 20
370.5
 30
0.0
 11
15.0
 21
370.5
 31
0.0
  0
LINE
  5
A6
330
1F
100
AcDbEntity
  8
0
  6
Continuous
 62
     7
370
    35
100
AcDbLine
 10
1179.0
 20
370.5
 30
0.0
 11
1184.0
 21
370.5
 31
0.0
  0
LINE
  5
A7
330
1F
100
AcDbEntity
  8
0
  6
Continuous
 62
     7
370
    35
100
AcDbLine
 10
20.0
 20
420.5
 30
0.0
 11
15.0
 21
420.5
 31
0.0
  0
LINE
  5
A8
330
1F
100
AcDbEntity
  8
0
  6
Continuous
 62
     7
370
    35
100
AcDbLine
 10
1179.0
 20
420.5
 30
0.0
 11
1184.0
 21
420.5
 31
0.0
  0
LINE
  5
A9
330
1F
100
AcDbEntity
  8
0
  6
Continuous
 62
     7
370
    35
100
AcDbLine
 10
20.0
 20
470.5
 30
0.0
 11
15.0
 21
470.5
 31
0.0
  0
LINE
  5
AA
330
1F
100
AcDbEntity
  8
0
  6
Continuous
 62
     7
370
    35
100
AcDbLine
 10
1179.0
 20
470.5
 30
0.0
 11
1184.0
 21
470.5
 31
0.0
  0
LINE
  5
AB
330
1F
100
AcDbEntity
  8
0
  6
Continuous
 62
     7
370
    35
100
AcDbLine
 10
20.0
 20
520.5
 30
0.0
 11
15.0
 21
520.5
 31
0.0
  0
LINE
  5
AC
330
1F
100
AcDbEntity
  8
0
  6
Continuous
 62
     7
370
    35
100
AcDbLine
 10
1179.0
 20
520.5
 30
0.0
 11
1184.0
 21
520.5
 31
0.0
  0
LINE
  5
AD
330
1F
100
AcDbEntity
  8
0
  6
Continuous
 62
     7
370
    35
100
AcDbLine
 10
20.0
 20
570.5
 30
0.0
 11
15.0
 21
570.5
 31
0.0
  0
LINE
  5
AE
330
1F
100
AcDbEntity
  8
0
  6
Continuous
 62
     7
370
    35
100
AcDbLine
 10
1179.0
 20
570.5
 30
0.0
 11
1184.0
 21
570.5
 31
0.0
  0
LINE
  5
AF
330
1F
100
AcDbEntity
  8
0
  6
Continuous
 62
     7
370
    35
100
AcDbLine
 10
20.0
 20
620.5
 30
0.0
 11
15.0
 21
620.5
 31
0.0
  0
LINE
  5
B0
330
1F
100
AcDbEntity
  8
0
  6
Continuous
 62
     7
370
    35
100
AcDbLine
 10
1179.0
 20
620.5
 30
0.0
 11
1184.0
 21
620.5
 31
0.0
  0
LINE
  5
B1
330
1F
100
AcDbEntity
  8
0
  6
Continuous
 62
     7
370
    35
100
AcDbLine
 10
20.0
 20
670.5
 30
0.0
 11
15.0
 21
670.5
 31
0.0
  0
LINE
  5
B2
330
1F
100
AcDbEntity
  8
0
  6
Continuous
 62
     7
370
    35
100
AcDbLine
 10
1179.0
 20
670.5
 30
0.0
 11
1184.0
 21
670.5
 31
0.0
  0
LINE
  5
B3
330
1F
100
AcDbEntity
  8
0
  6
Continuous
 62
     7
370
    35
100
AcDbLine
 10
20.0
 20
720.5
 30
0.0
 11
15.0
 21
720.5
 31
0.0
  0
LINE
  5
B4
330
1F
100
AcDbEntity
  8
0
  6
Continuous
 62
     7
370
    35
100
AcDbLine
 10
1179.0
 20
720.5
 30
0.0
 11
1184.0
 21
720.5
 31
0.0
  0
LINE
  5
B5
330
1F
100
AcDbEntity
  8
0
  6
Continuous
 62
     7
370
    35
100
AcDbLine
 10
20.0
 20
770.5
 30
0.0
 11
15.0
 21
770.5
 31
0.0
  0
LINE
  5
B6
330
1F
100
AcDbEntity
  8
0
  6
Continuous
 62
     7
370
    35
100
AcDbLine
 10
1179.0
 20
770.5
 30
0.0
 11
1184.0
 21
770.5
 31
0.0
  0
LINE
  5
B7
330
1F
100
AcDbEntity
  8
0
  6
Continuous
 62
     7
370
    35
100
AcDbLine
 10
49.5
 20
831.0
 30
0.0
 11
49.5
 21
836.0
 31
0.0
  0
LINE
  5
B8
330
1F
100
AcDbEntity
  8
0
  6
Continuous
 62
     7
370
    35
100
AcDbLine
 10
49.5
 20
10.0
 30
0.0
 11
49.5
 21
5.0
 31
0.0
  0
LINE
  5
B9
330
1F
100
AcDbEntity
  8
0
  6
Continuous
 62
     7
370
    35
100
AcDbLine
 10
99.5
 20
831.0
 30
0.0
 11
99.5
 21
836.0
 31
0.0
  0
LINE
  5
BA
330
1F
100
AcDbEntity
  8
0
  6
Continuous
 62
     7
370
    35
100
AcDbLine
 10
99.5
 20
10.0
 30
0.0
 11
99.5
 21
5.0
 31
0.0
  0
LINE
  5
BB
330
1F
100
AcDbEntity
  8
0
  6
Continuous
 62
     7
370
    35
100
AcDbLine
 10
149.5
 20
831.0
 30
0.0
 11
149.5
 21
836.0
 31
0.0
  0
LINE
  5
BC
330
1F
100
AcDbEntity
  8
0
  6
Continuous
 62
     7
370
    35
100
AcDbLine
 10
149.5
 20
10.0
 30
0.0
 11
149.5
 21
5.0
 31
0.0
  0
LINE
  5
BD
330
1F
100
AcDbEntity
  8
0
  6
Continuous
 62
     7
370
    35
100
AcDbLine
 10
199.5
 20
831.0
 30
0.0
 11
199.5
 21
836.0
 31
0.0
  0
LINE
  5
BE
330
1F
100
AcDbEntity
  8
0
  6
Continuous
 62
     7
370
    35
100
AcDbLine
 10
199.5
 20
10.0
 30
0.0
 11
199.5
 21
5.0
 31
0.0
  0
LINE
  5
BF
330
1F
100
AcDbEntity
  8
0
  6
Continuous
 62
     7
370
    35
100
AcDbLine
 10
249.5
 20
831.0
 30
0.0
 11
249.5
 21
836.0
 31
0.0
  0
LINE
  5
C0
330
1F
100
AcDbEntity
  8
0
  6
Continuous
 62
     7
370
    35
100
AcDbLine
 10
249.5
 20
10.0
 30
0.0
 11
249.5
 21
5.0
 31
0.0
  0
LINE
  5
C1
330
1F
100
AcDbEntity
  8
0
  6
Continuous
 62
     7
370
    35
100
AcDbLine
 10
299.5
 20
831.0
 30
0.0
 11
299.5
 21
836.0
 31
0.0
  0
LINE
  5
C2
330
1F
100
AcDbEntity
  8
0
  6
Continuous
 62
     7
370
    35
100
AcDbLine
 10
299.5
 20
10.0
 30
0.0
 11
299.5
 21
5.0
 31
0.0
  0
LINE
  5
C3
330
1F
100
AcDbEntity
  8
0
  6
Continuous
 62
     7
370
    35
100
AcDbLine
 10
349.5
 20
831.0
 30
0.0
 11
349.5
 21
836.0
 31
0.0
  0
LINE
  5
C4
330
1F
100
AcDbEntity
  8
0
  6
Continuous
 62
     7
370
    35
100
AcDbLine
 10
349.5
 20
10.0
 30
0.0
 11
349.5
 21
5.0
 31
0.0
  0
LINE
  5
C5
330
1F
100
AcDbEntity
  8
0
  6
Continuous
 62
     7
370
    35
100
AcDbLine
 10
399.5
 20
831.0
 30
0.0
 11
399.5
 21
836.0
 31
0.0
  0
LINE
  5
C6
330
1F
100
AcDbEntity
  8
0
  6
Continuous
 62
     7
370
    35
100
AcDbLine
 10
399.5
 20
10.0
 30
0.0
 11
399.5
 21
5.0
 31
0.0
  0
LINE
  5
C7
330
1F
100
AcDbEntity
  8
0
  6
Continuous
 62
     7
370
    35
100
AcDbLine
 10
449.5
 20
831.0
 30
0.0
 11
449.5
 21
836.0
 31
0.0
  0
LINE
  5
C8
330
1F
100
AcDbEntity
  8
0
  6
Continuous
 62
     7
370
    35
100
AcDbLine
 10
449.5
 20
10.0
 30
0.0
 11
449.5
 21
5.0
 31
0.0
  0
LINE
  5
C9
330
1F
100
AcDbEntity
  8
0
  6
Continuous
 62
     7
370
    35
100
AcDbLine
 10
499.5
 20
831.0
 30
0.0
 11
499.5
 21
836.0
 31
0.0
  0
LINE
  5
CA
330
1F
100
AcDbEntity
  8
0
  6
Continuous
 62
     7
370
    35
100
AcDbLine
 10
499.5
 20
10.0
 30
0.0
 11
499.5
 21
5.0
 31
0.0
  0
LINE
  5
CB
330
1F
100
AcDbEntity
  8
0
  6
Continuous
 62
     7
370
    35
100
AcDbLine
 10
549.5
 20
831.0
 30
0.0
 11
549.5
 21
836.0
 31
0.0
  0
LINE
  5
CC
330
1F
100
AcDbEntity
  8
0
  6
Continuous
 62
     7
370
    35
100
AcDbLine
 10
549.5
 20
10.0
 30
0.0
 11
549.5
 21
5.0
 31
0.0
  0
LINE
  5
CD
330
1F
100
AcDbEntity
  8
0
  6
Continuous
 62
     7
370
    35
100
AcDbLine
 10
599.5
 20
831.0
 30
0.0
 11
599.5
 21
836.0
 31
0.0
  0
LINE
  5
CE
330
1F
100
AcDbEntity
  8
0
  6
Continuous
 62
     7
370
    35
100
AcDbLine
 10
599.5
 20
10.0
 30
0.0
 11
599.5
 21
5.0
 31
0.0
  0
LINE
  5
CF
330
1F
100
AcDbEntity
  8
0
  6
Continuous
 62
     7
370
    35
100
AcDbLine
 10
649.5
 20
831.0
 30
0.0
 11
649.5
 21
836.0
 31
0.0
  0
LINE
  5
D0
330
1F
100
AcDbEntity
  8
0
  6
Continuous
 62
     7
370
    35
100
AcDbLine
 10
649.5
 20
10.0
 30
0.0
 11
649.5
 21
5.0
 31
0.0
  0
LINE
  5
D1
330
1F
100
AcDbEntity
  8
0
  6
Continuous
 62
     7
370
    35
100
AcDbLine
 10
699.5
 20
831.0
 30
0.0
 11
699.5
 21
836.0
 31
0.0
  0
LINE
  5
D2
330
1F
100
AcDbEntity
  8
0
  6
Continuous
 62
     7
370
    35
100
AcDbLine
 10
699.5
 20
10.0
 30
0.0
 11
699.5
 21
5.0
 31
0.0
  0
LINE
  5
D3
330
1F
100
AcDbEntity
  8
0
  6
Continuous
 62
     7
370
    35
100
AcDbLine
 10
749.5
 20
831.0
 30
0.0
 11
749.5
 21
836.0
 31
0.0
  0
LINE
  5
D4
330
1F
100
AcDbEntity
  8
0
  6
Continuous
 62
     7
370
    35
100
AcDbLine
 10
749.5
 20
10.0
 30
0.0
 11
749.5
 21
5.0
 31
0.0
  0
LINE
  5
D5
330
1F
100
AcDbEntity
  8
0
  6
Continuous
 62
     7
370
    35
100
AcDbLine
 10
799.5
 20
831.0
 30
0.0
 11
799.5
 21
836.0
 31
0.0
  0
LINE
  5
D6
330
1F
100
AcDbEntity
  8
0
  6
Continuous
 62
     7
370
    35
100
AcDbLine
 10
799.5
 20
10.0
 30
0.0
 11
799.5
 21
5.0
 31
0.0
  0
LINE
  5
D7
330
1F
100
AcDbEntity
  8
0
  6
Continuous
 62
     7
370
    35
100
AcDbLine
 10
849.5
 20
831.0
 30
0.0
 11
849.5
 21
836.0
 31
0.0
  0
LINE
  5
D8
330
1F
100
AcDbEntity
  8
0
  6
Continuous
 62
     7
370
    35
100
AcDbLine
 10
849.5
 20
10.0
 30
0.0
 11
849.5
 21
5.0
 31
0.0
  0
LINE
  5
D9
330
1F
100
AcDbEntity
  8
0
  6
Continuous
 62
     7
370
    35
100
AcDbLine
 10
899.5
 20
831.0
 30
0.0
 11
899.5
 21
836.0
 31
0.0
  0
LINE
  5
DA
330
1F
100
AcDbEntity
  8
0
  6
Continuous
 62
     7
370
    35
100
AcDbLine
 10
899.5
 20
10.0
 30
0.0
 11
899.5
 21
5.0
 31
0.0
  0
LINE
  5
DB
330
1F
100
AcDbEntity
  8
0
  6
Continuous
 62
     7
370
    35
100
AcDbLine
 10
949.5
 20
831.0
 30
0.0
 11
949.5
 21
836.0
 31
0.0
  0
LINE
  5
DC
330
1F
100
AcDbEntity
  8
0
  6
Continuous
 62
     7
370
    35
100
AcDbLine
 10
949.5
 20
10.0
 30
0.0
 11
949.5
 21
5.0
 31
0.0
  0
LINE
  5
DD
330
1F
100
AcDbEntity
  8
0
  6
Continuous
 62
     7
370
    35
100
AcDbLine
 10
999.5
 20
831.0
 30
0.0
 11
999.5
 21
836.0
 31
0.0
  0
LINE
  5
DE
330
1F
100
AcDbEntity
  8
0
  6
Continuous
 62
     7
370
    35
100
AcDbLine
 10
999.5
 20
10.0
 30
0.0
 11
999.5
 21
5.0
 31
0.0
  0
LINE
  5
DF
330
1F
100
AcDbEntity
  8
0
  6
Continuous
 62
     7
370
    35
100
AcDbLine
 10
1049.5
 20
831.0
 30
0.0
 11
1049.5
 21
836.0
 31
0.0
  0
LINE
  5
E0
330
1F
100
AcDbEntity
  8
0
  6
Continuous
 62
     7
370
    35
100
AcDbLine
 10
1049.5
 20
10.0
 30
0.0
 11
1049.5
 21
5.0
 31
0.0
  0
LINE
  5
E1
330
1F
100
AcDbEntity
  8
0
  6
Continuous
 62
     7
370
    35
100
AcDbLine
 10
1099.5
 20
831.0
 30
0.0
 11
1099.5
 21
836.0
 31
0.0
  0
LINE
  5
E2
330
1F
100
AcDbEntity
  8
0
  6
Continuous
 62
     7
370
    35
100
AcDbLine
 10
1099.5
 20
10.0
 30
0.0
 11
1099.5
 21
5.0
 31
0.0
  0
LINE
  5
E3
330
1F
100
AcDbEntity
  8
0
  6
Continuous
 62
     7
370
    35
100
AcDbLine
 10
1149.5
 20
831.0
 30
0.0
 11
1149.5
 21
836.0
 31
0.0
  0
LINE
  5
E4
330
1F
100
AcDbEntity
  8
0
  6
Continuous
 62
     7
370
    35
100
AcDbLine
 10
1149.5
 20
10.0
 30
0.0
 11
1149.5
 21
5.0
 31
0.0
  0
MTEXT
  5
E6
330
1F
100
AcDbEntity
  8
0
  6
Continuous
 62
     7
370
     0
100
AcDbMText
 10
17.3396881428
 20
42.2239273576
 30
0.0
 40
3.96875
 41
0.0
 71
     2
 72
     1
  1
A
  7
SLDTEXTSTYLE0
 73
     1
 44
1.0
  0
MTEXT
  5
E7
330
1F
100
AcDbEntity
  8
0
  6
Continuous
 62
     7
370
     0
100
AcDbMText
 10
1181.3396881428
 20
42.2239273576
 30
0.0
 40
3.96875
 41
0.0
 71
     2
 72
     1
  1
A
  7
SLDTEXTSTYLE0
 73
     1
 44
1.0
  0
MTEXT
  5
E8
330
1F
100
AcDbEntity
  8
0
  6
Continuous
 62
     7
370
     0
100
AcDbMText
 10
17.4706018241
 20
97.417684388
 30
0.0
 40
3.96875
 41
0.0
 71
     2
 72
     1
  1
B
  7
SLDTEXTSTYLE0
 73
     1
 44
1.0
  0
MTEXT
  5
E9
330
1F
100
AcDbEntity
  8
0
  6
Continuous
 62
     7
370
     0
100
AcDbMText
 10
1181.4706018241
 20
97.417684388
 30
0.0
 40
3.96875
 41
0.0
 71
     2
 72
     1
  1
B
  7
SLDTEXTSTYLE0
 73
     1
 44
1.0
  0
MTEXT
  5
EA
330
1F
100
AcDbEntity
  8
0
  6
Continuous
 62
     7
370
     0
100
AcDbMText
 10
17.458658902
 20
147.4739273576
 30
0.0
 40
3.96875
 41
0.0
 71
     2
 72
     1
  1
C
  7
SLDTEXTSTYLE0
 73
     1
 44
1.0
  0
MTEXT
  5
EB
330
1F
100
AcDbEntity
  8
0
  6
Continuous
 62
     7
370
     0
100
AcDbMText
 10
1181.458658902
 20
147.4739273576
 30
0.0
 40
3.96875
 41
0.0
 71
     2
 72
     1
  1
C
  7
SLDTEXTSTYLE0
 73
     1
 44
1.0
  0
MTEXT
  5
EC
330
1F
100
AcDbEntity
  8
0
  6
Continuous
 62
     7
370
     0
100
AcDbMText
 10
17.4526872821
 20
197.417684388
 30
0.0
 40
3.96875
 41
0.0
 71
     2
 72
     1
  1
D
  7
SLDTEXTSTYLE0
 73
     1
 44
1.0
  0
MTEXT
  5
ED
330
1F
100
AcDbEntity
  8
0
  6
Continuous
 62
     7
370
     0
100
AcDbMText
 10
1181.4526872821
 20
197.417684388
 30
0.0
 40
3.96875
 41
0.0
 71
     2
 72
     1
  1
D
  7
SLDTEXTSTYLE0
 73
     1
 44
1.0
  0
MTEXT
  5
EE
330
1F
100
AcDbEntity
  8
0
  6
Continuous
 62
     7
370
     0
100
AcDbMText
 10
17.5078089051
 20
247.4739273576
 30
0.0
 40
3.96875
 41
0.0
 71
     2
 72
     1
  1
E
  7
SLDTEXTSTYLE0
 73
     1
 44
1.0
  0
MTEXT
  5
EF
330
1F
100
AcDbEntity
  8
0
  6
Continuous
 62
     7
370
     0
100
AcDbMText
 10
1181.5078089051
 20
247.4739273576
 30
0.0
 40
3.96875
 41
0.0
 71
     2
 72
     1
  1
E
  7
SLDTEXTSTYLE0
 73
     1
 44
1.0
  0
MTEXT
  5
F0
330
1F
100
AcDbEntity
  8
0
  6
Continuous
 62
     7
370
     0
100
AcDbMText
 10
17.4577402091
 20
297.417684388
 30
0.0
 40
3.96875
 41
0.0
 71
     2
 72
     1
  1
F
  7
SLDTEXTSTYLE0
 73
     1
 44
1.0
  0
MTEXT
  5
F1
330
1F
100
AcDbEntity
  8
0
  6
Continuous
 62
     7
370
     0
100
AcDbMText
 10
1181.4577402091
 20
297.417684388
 30
0.0
 40
3.96875
 41
0.0
 71
     2
 72
     1
  1
F
  7
SLDTEXTSTYLE0
 73
     1
 44
1.0
  0
MTEXT
  5
F2
330
1F
100
AcDbEntity
  8
0
  6
Continuous
 62
     7
370
     0
100
AcDbMText
 10
17.4866788853
 20
347.4739273576
 30
0.0
 40
3.96875
 41
0.0
 71
     2
 72
     1
  1
G
  7
SLDTEXTSTYLE0
 73
     1
 44
1.0
  0
MTEXT
  5
F3
330
1F
100
AcDbEntity
  8
0
  6
Continuous
 62
     7
370
     0
100
AcDbMText
 10
1181.4866788853
 20
347.4739273576
 30
0.0
 40
3.96875
 41
0.0
 71
     2
 72
     1
  1
G
  7
SLDTEXTSTYLE0
 73
     1
 44
1.0
  0
MTEXT
  5
F4
330
1F
100
AcDbEntity
  8
0
  6
Continuous
 62
     7
370
     0
100
AcDbMText
 10
17.4903537836
 20
397.417684388
 30
0.0
 40
3.96875
 41
0.0
 71
     2
 72
     1
  1
H
  7
SLDTEXTSTYLE0
 73
     1
 44
1.0
  0
MTEXT
  5
F5
330
1F
100
AcDbEntity
  8
0
  6
Continuous
 62
     7
370
     0
100
AcDbMText
 10
1181.4903537836
 20
397.417684388
 30
0.0
 40
3.96875
 41
0.0
 71
     2
 72
     1
  1
H
  7
SLDTEXTSTYLE0
 73
     1
 44
1.0
  0
MTEXT
  5
F6
330
1F
100
AcDbEntity
  8
0
  6
Continuous
 62
     7
370
     0
100
AcDbMText
 10
17.4650897412
 20
447.4739273576
 30
0.0
 40
3.96875
 41
0.0
 71
     2
 72
     1
  1
J
  7
SLDTEXTSTYLE0
 73
     1
 44
1.0
  0
MTEXT
  5
F7
330
1F
100
AcDbEntity
  8
0
  6
Continuous
 62
     7
370
     0
100
AcDbMText
 10
1181.4650897412
 20
447.4739273576
 30
0.0
 40
3.96875
 41
0.0
 71
     2
 72
     1
  1
J
  7
SLDTEXTSTYLE0
 73
     1
 44
1.0
  0
MTEXT
  5
F8
330
1F
100
AcDbEntity
  8
0
  6
Continuous
 62
     7
370
     0
100
AcDbMText
 10
17.4885163503
 20
497.417684388
 30
0.0
 40
3.96875
 41
0.0
 71
     2
 72
     1
  1
K
  7
SLDTEXTSTYLE0
 73
     1
 44
1.0
  0
MTEXT
  5
F9
330
1F
100
AcDbEntity
  8
0
  6
Continuous
 62
     7
370
     0
100
AcDbMText
 10
1181.4885163503
 20
497.417684388
 30
0.0
 40
3.96875
 41
0.0
 71
     2
 72
     1
  1
K
  7
SLDTEXTSTYLE0
 73
     1
 44
1.0
  0
MTEXT
  5
FA
330
1F
100
AcDbEntity
  8
0
  6
Continuous
 62
     7
370
     0
100
AcDbMText
 10
17.4545247471
 20
547.4739273576
 30
0.0
 40
3.96875
 41
0.0
 71
     2
 72
     1
  1
L
  7
SLDTEXTSTYLE0
 73
     1
 44
1.0
  0
MTEXT
  5
FB
330
1F
100
AcDbEntity
  8
0
  6
Continuous
 62
     7
370
     0
100
AcDbMText
 10
1181.4545247471
 20
547.4739273576
 30
0.0
 40
3.96875
 41
0.0
 71
     2
 72
     1
  1
L
  7
SLDTEXTSTYLE0
 73
     1
 44
1.0
  0
MTEXT
  5
FC
330
1F
100
AcDbEntity
  8
0
  6
Continuous
 62
     7
370
     0
100
AcDbMText
 10
17.3617368396
 20
597.417684388
 30
0.0
 40
3.96875
 41
0.0
 71
     2
 72
     1
  1
M
  7
SLDTEXTSTYLE0
 73
     1
 44
1.0
  0
MTEXT
  5
FD
330
1F
100
AcDbEntity
  8
0
  6
Continuous
 62
     7
370
     0
100
AcDbMText
 10
1181.3617368396
 20
597.417684388
 30
0.0
 40
3.96875
 41
0.0
 71
     2
 72
     1
  1
M
  7
SLDTEXTSTYLE0
 73
     1
 44
1.0
  0
MTEXT
  5
FE
330
1F
100
AcDbEntity
  8
0
  6
Continuous
 62
     7
370
     0
100
AcDbMText
 10
17.4637115803
 20
647.4739273576
 30
0.0
 40
3.96875
 41
0.0
 71
     2
 72
     1
  1
N
  7
SLDTEXTSTYLE0
 73
     1
 44
1.0
  0
MTEXT
  5
FF
330
1F
100
AcDbEntity
  8
0
  6
Continuous
 62
     7
370
     0
100
AcDbMText
 10
1181.4637115803
 20
647.4739273576
 30
0.0
 40
3.96875
 41
0.0
 71
     2
 72
     1
  1
N
  7
SLDTEXTSTYLE0
 73
     1
 44
1.0
  0
MTEXT
  5
100
330
1F
100
AcDbEntity
  8
0
  6
Continuous
 62
     7
370
     0
100
AcDbMText
 10
17.4848415842
 20
697.417684388
 30
0.0
 40
3.96875
 41
0.0
 71
     2
 72
     1
  1
P
  7
SLDTEXTSTYLE0
 73
     1
 44
1.0
  0
MTEXT
  5
101
330
1F
100
AcDbEntity
  8
0
  6
Continuous
 62
     7
370
     0
100
AcDbMText
 10
1181.4848415842
 20
697.417684388
 30
0.0
 40
3.96875
 41
0.0
 71
     2
 72
     1
  1
P
  7
SLDTEXTSTYLE0
 73
     1
 44
1.0
  0
MTEXT
  5
102
330
1F
100
AcDbEntity
  8
0
  6
Continuous
 62
     7
370
     0
100
AcDbMText
 10
17.4444191577
 20
747.4739273576
 30
0.0
 40
3.96875
 41
0.0
 71
     2
 72
     1
  1
R
  7
SLDTEXTSTYLE0
 73
     1
 44
1.0
  0
MTEXT
  5
103
330
1F
100
AcDbEntity
  8
0
  6
Continuous
 62
     7
370
     0
100
AcDbMText
 10
1181.4444191577
 20
747.4739273576
 30
0.0
 40
3.96875
 41
0.0
 71
     2
 72
     1
  1
R
  7
SLDTEXTSTYLE0
 73
     1
 44
1.0
  0
MTEXT
  5
104
330
1F
100
AcDbEntity
  8
0
  6
Continuous
 62
     7
370
     0
100
AcDbMText
 10
17.4880569456
 20
802.7239273576
 30
0.0
 40
3.96875
 41
0.0
 71
     2
 72
     1
  1
T
  7
SLDTEXTSTYLE0
 73
     1
 44
1.0
  0
MTEXT
  5
105
330
1F
100
AcDbEntity
  8
0
  6
Continuous
 62
     7
370
     0
100
AcDbMText
 10
1181.4880569456
 20
802.7239273576
 30
0.0
 40
3.96875
 41
0.0
 71
     2
 72
     1
  1
T
  7
SLDTEXTSTYLE0
 73
     1
 44
1.0
  0
MTEXT
  5
106
330
1F
100
AcDbEntity
  8
0
  6
Continuous
 62
     7
370
     0
100
AcDbMText
 10
34.6700738929
 20
9.4739273576
 30
0.0
 40
3.96875
 41
0.0
 71
     2
 72
     1
  1
24
  7
SLDTEXTSTYLE0
 73
     1
 44
1.0
  0
MTEXT
  5
107
330
1F
100
AcDbEntity
  8
0
  6
Continuous
 62
     7
370
     0
100
AcDbMText
 10
34.6700738929
 20
835.4739273576
 30
0.0
 40
3.96875
 41
0.0
 71
     2
 72
     1
  1
24
  7
SLDTEXTSTYLE0
 73
     1
 44
1.0
  0
MTEXT
  5
108
330
1F
100
AcDbEntity
  8
0
  6
Continuous
 62
     7
370
     0
100
AcDbMText
 10
74.4200738929
 20
9.4739273576
 30
0.0
 40
3.96875
 41
0.0
 71
     2
 72
     1
  1
23
  7
SLDTEXTSTYLE0
 73
     1
 44
1.0
  0
MTEXT
  5
109
330
1F
100
AcDbEntity
  8
0
  6
Continuous
 62
     7
370
     0
100
AcDbMText
 10
74.4200738929
 20
835.4739273576
 30
0.0
 40
3.96875
 41
0.0
 71
     2
 72
     1
  1
23
  7
SLDTEXTSTYLE0
 73
     1
 44
1.0
  0
MTEXT
  5
10A
330
1F
100
AcDbEntity
  8
0
  6
Continuous
 62
     7
370
     0
100
AcDbMText
 10
124.4200738929
 20
9.4739273576
 30
0.0
 40
3.96875
 41
0.0
 71
     2
 72
     1
  1
22
  7
SLDTEXTSTYLE0
 73
     1
 44
1.0
  0
MTEXT
  5
10B
330
1F
100
AcDbEntity
  8
0
  6
Continuous
 62
     7
370
     0
100
AcDbMText
 10
124.4200738929
 20
835.4739273576
 30
0.0
 40
3.96875
 41
0.0
 71
     2
 72
     1
  1
22
  7
SLDTEXTSTYLE0
 73
     1
 44
1.0
  0
MTEXT
  5
10C
330
1F
100
AcDbEntity
  8
0
  6
Continuous
 62
     7
370
     0
100
AcDbMText
 10
174.4200738929
 20
9.4739273576
 30
0.0
 40
3.96875
 41
0.0
 71
     2
 72
     1
  1
21
  7
SLDTEXTSTYLE0
 73
     1
 44
1.0
  0
MTEXT
  5
10D
330
1F
100
AcDbEntity
  8
0
  6
Continuous
 62
     7
370
     0
100
AcDbMText
 10
174.4200738929
 20
835.4739273576
 30
0.0
 40
3.96875
 41
0.0
 71
     2
 72
     1
  1
21
  7
SLDTEXTSTYLE0
 73
     1
 44
1.0
  0
MTEXT
  5
10E
330
1F
100
AcDbEntity
  8
0
  6
Continuous
 62
     7
370
     0
100
AcDbMText
 10
224.4200738929
 20
9.4739273576
 30
0.0
 40
3.96875
 41
0.0
 71
     2
 72
     1
  1
20
  7
SLDTEXTSTYLE0
 73
     1
 44
1.0
  0
MTEXT
  5
10F
330
1F
100
AcDbEntity
  8
0
  6
Continuous
 62
     7
370
     0
100
AcDbMText
 10
224.4200738929
 20
835.4739273576
 30
0.0
 40
3.96875
 41
0.0
 71
     2
 72
     1
  1
20
  7
SLDTEXTSTYLE0
 73
     1
 44
1.0
  0
MTEXT
  5
110
330
1F
100
AcDbEntity
  8
0
  6
Continuous
 62
     7
370
     0
100
AcDbMText
 10
274.4200738929
 20
9.4739273576
 30
0.0
 40
3.96875
 41
0.0
 71
     2
 72
     1
  1
19
  7
SLDTEXTSTYLE0
 73
     1
 44
1.0
  0
MTEXT
  5
111
330
1F
100
AcDbEntity
  8
0
  6
Continuous
 62
     7
370
     0
100
AcDbMText
 10
274.4200738929
 20
835.4739273576
 30
0.0
 40
3.96875
 41
0.0
 71
     2
 72
     1
  1
19
  7
SLDTEXTSTYLE0
 73
     1
 44
1.0
  0
MTEXT
  5
112
330
1F
100
AcDbEntity
  8
0
  6
Continuous
 62
     7
370
     0
100
AcDbMText
 10
324.4200738929
 20
9.4739273576
 30
0.0
 40
3.96875
 41
0.0
 71
     2
 72
     1
  1
18
  7
SLDTEXTSTYLE0
 73
     1
 44
1.0
  0
MTEXT
  5
113
330
1F
100
AcDbEntity
  8
0
  6
Continuous
 62
     7
370
     0
100
AcDbMText
 10
324.4200738929
 20
835.4739273576
 30
0.0
 40
3.96875
 41
0.0
 71
     2
 72
     1
  1
18
  7
SLDTEXTSTYLE0
 73
     1
 44
1.0
  0
MTEXT
  5
114
330
1F
100
AcDbEntity
  8
0
  6
Continuous
 62
     7
370
     0
100
AcDbMText
 10
374.4200738929
 20
9.4739273576
 30
0.0
 40
3.96875
 41
0.0
 71
     2
 72
     1
  1
17
  7
SLDTEXTSTYLE0
 73
     1
 44
1.0
  0
MTEXT
  5
115
330
1F
100
AcDbEntity
  8
0
  6
Continuous
 62
     7
370
     0
100
AcDbMText
 10
374.4200738929
 20
835.4739273576
 30
0.0
 40
3.96875
 41
0.0
 71
     2
 72
     1
  1
17
  7
SLDTEXTSTYLE0
 73
     1
 44
1.0
  0
MTEXT
  5
116
330
1F
100
AcDbEntity
  8
0
  6
Continuous
 62
     7
370
     0
100
AcDbMText
 10
424.4200738929
 20
9.4739273576
 30
0.0
 40
3.96875
 41
0.0
 71
     2
 72
     1
  1
16
  7
SLDTEXTSTYLE0
 73
     1
 44
1.0
  0
MTEXT
  5
117
330
1F
100
AcDbEntity
  8
0
  6
Continuous
 62
     7
370
     0
100
AcDbMText
 10
424.4200738929
 20
835.4739273576
 30
0.0
 40
3.96875
 41
0.0
 71
     2
 72
     1
  1
16
  7
SLDTEXTSTYLE0
 73
     1
 44
1.0
  0
MTEXT
  5
118
330
1F
100
AcDbEntity
  8
0
  6
Continuous
 62
     7
370
     0
100
AcDbMText
 10
474.4200738929
 20
9.4739273576
 30
0.0
 40
3.96875
 41
0.0
 71
     2
 72
     1
  1
15
  7
SLDTEXTSTYLE0
 73
     1
 44
1.0
  0
MTEXT
  5
119
330
1F
100
AcDbEntity
  8
0
  6
Continuous
 62
     7
370
     0
100
AcDbMText
 10
474.4200738929
 20
835.4739273576
 30
0.0
 40
3.96875
 41
0.0
 71
     2
 72
     1
  1
15
  7
SLDTEXTSTYLE0
 73
     1
 44
1.0
  0
MTEXT
  5
11A
330
1F
100
AcDbEntity
  8
0
  6
Continuous
 62
     7
370
     0
100
AcDbMText
 10
524.4200738929
 20
9.4739273576
 30
0.0
 40
3.96875
 41
0.0
 71
     2
 72
     1
  1
14
  7
SLDTEXTSTYLE0
 73
     1
 44
1.0
  0
MTEXT
  5
11B
330
1F
100
AcDbEntity
  8
0
  6
Continuous
 62
     7
370
     0
100
AcDbMText
 10
524.4200738929
 20
835.4739273576
 30
0.0
 40
3.96875
 41
0.0
 71
     2
 72
     1
  1
14
  7
SLDTEXTSTYLE0
 73
     1
 44
1.0
  0
MTEXT
  5
11C
330
1F
100
AcDbEntity
  8
0
  6
Continuous
 62
     7
370
     0
100
AcDbMText
 10
574.4200738929
 20
9.4739273576
 30
0.0
 40
3.96875
 41
0.0
 71
     2
 72
     1
  1
13
  7
SLDTEXTSTYLE0
 73
     1
 44
1.0
  0
MTEXT
  5
11D
330
1F
100
AcDbEntity
  8
0
  6
Continuous
 62
     7
370
     0
100
AcDbMText
 10
574.4200738929
 20
835.4739273576
 30
0.0
 40
3.96875
 41
0.0
 71
     2
 72
     1
  1
13
  7
SLDTEXTSTYLE0
 73
     1
 44
1.0
  0
MTEXT
  5
11E
330
1F
100
AcDbEntity
  8
0
  6
Continuous
 62
     7
370
     0
100
AcDbMText
 10
624.4200738929
 20
9.4739273576
 30
0.0
 40
3.96875
 41
0.0
 71
     2
 72
     1
  1
12
  7
SLDTEXTSTYLE0
 73
     1
 44
1.0
  0
MTEXT
  5
11F
330
1F
100
AcDbEntity
  8
0
  6
Continuous
 62
     7
370
     0
100
AcDbMText
 10
624.4200738929
 20
835.4739273576
 30
0.0
 40
3.96875
 41
0.0
 71
     2
 72
     1
  1
12
  7
SLDTEXTSTYLE0
 73
     1
 44
1.0
  0
MTEXT
  5
120
330
1F
100
AcDbEntity
  8
0
  6
Continuous
 62
     7
370
     0
100
AcDbMText
 10
674.4200738929
 20
9.4739273576
 30
0.0
 40
3.96875
 41
0.0
 71
     2
 72
     1
  1
11
  7
SLDTEXTSTYLE0
 73
     1
 44
1.0
  0
MTEXT
  5
121
330
1F
100
AcDbEntity
  8
0
  6
Continuous
 62
     7
370
     0
100
AcDbMText
 10
674.4200738929
 20
835.4739273576
 30
0.0
 40
3.96875
 41
0.0
 71
     2
 72
     1
  1
11
  7
SLDTEXTSTYLE0
 73
     1
 44
1.0
  0
MTEXT
  5
122
330
1F
100
AcDbEntity
  8
0
  6
Continuous
 62
     7
370
     0
100
AcDbMText
 10
724.4200738929
 20
9.4739273576
 30
0.0
 40
3.96875
 41
0.0
 71
     2
 72
     1
  1
10
  7
SLDTEXTSTYLE0
 73
     1
 44
1.0
  0
MTEXT
  5
123
330
1F
100
AcDbEntity
  8
0
  6
Continuous
 62
     7
370
     0
100
AcDbMText
 10
724.4200738929
 20
835.4739273576
 30
0.0
 40
3.96875
 41
0.0
 71
     2
 72
     1
  1
10
  7
SLDTEXTSTYLE0
 73
     1
 44
1.0
  0
MTEXT
  5
124
330
1F
100
AcDbEntity
  8
0
  6
Continuous
 62
     7
370
     0
100
AcDbMText
 10
774.4600369465
 20
9.4739273576
 30
0.0
 40
3.96875
 41
0.0
 71
     2
 72
     1
  1
9
  7
SLDTEXTSTYLE0
 73
     1
 44
1.0
  0
MTEXT
  5
125
330
1F
100
AcDbEntity
  8
0
  6
Continuous
 62
     7
370
     0
100
AcDbMText
 10
774.4600369465
 20
835.4739273576
 30
0.0
 40
3.96875
 41
0.0
 71
     2
 72
     1
  1
9
  7
SLDTEXTSTYLE0
 73
     1
 44
1.0
  0
MTEXT
  5
126
330
1F
100
AcDbEntity
  8
0
  6
Continuous
 62
     7
370
     0
100
AcDbMText
 10
824.4600369465
 20
9.4739273576
 30
0.0
 40
3.96875
 41
0.0
 71
     2
 72
     1
  1
8
  7
SLDTEXTSTYLE0
 73
     1
 44
1.0
  0
MTEXT
  5
127
330
1F
100
AcDbEntity
  8
0
  6
Continuous
 62
     7
370
     0
100
AcDbMText
 10
824.4600369465
 20
835.4739273576
 30
0.0
 40
3.96875
 41
0.0
 71
     2
 72
     1
  1
8
  7
SLDTEXTSTYLE0
 73
     1
 44
1.0
  0
MTEXT
  5
128
330
1F
100
AcDbEntity
  8
0
  6
Continuous
 62
     7
370
     0
100
AcDbMText
 10
874.4600369465
 20
9.4739273576
 30
0.0
 40
3.96875
 41
0.0
 71
     2
 72
     1
  1
7
  7
SLDTEXTSTYLE0
 73
     1
 44
1.0
  0
MTEXT
  5
129
330
1F
100
AcDbEntity
  8
0
  6
Continuous
 62
     7
370
     0
100
AcDbMText
 10
874.4600369465
 20
835.4739273576
 30
0.0
 40
3.96875
 41
0.0
 71
     2
 72
     1
  1
7
  7
SLDTEXTSTYLE0
 73
     1
 44
1.0
  0
MTEXT
  5
12A
330
1F
100
AcDbEntity
  8
0
  6
Continuous
 62
     7
370
     0
100
AcDbMText
 10
924.4600369465
 20
9.4739273576
 30
0.0
 40
3.96875
 41
0.0
 71
     2
 72
     1
  1
6
  7
SLDTEXTSTYLE0
 73
     1
 44
1.0
  0
MTEXT
  5
12B
330
1F
100
AcDbEntity
  8
0
  6
Continuous
 62
     7
370
     0
100
AcDbMText
 10
924.4600369465
 20
835.4739273576
 30
0.0
 40
3.96875
 41
0.0
 71
     2
 72
     1
  1
6
  7
SLDTEXTSTYLE0
 73
     1
 44
1.0
  0
MTEXT
  5
12C
330
1F
100
AcDbEntity
  8
0
  6
Continuous
 62
     7
370
     0
100
AcDbMText
 10
974.4600369465
 20
9.4739273576
 30
0.0
 40
3.96875
 41
0.0
 71
     2
 72
     1
  1
5
  7
SLDTEXTSTYLE0
 73
     1
 44
1.0
  0
MTEXT
  5
12D
330
1F
100
AcDbEntity
  8
0
  6
Continuous
 62
     7
370
     0
100
AcDbMText
 10
974.4600369465
 20
835.4739273576
 30
0.0
 40
3.96875
 41
0.0
 71
     2
 72
     1
  1
5
  7
SLDTEXTSTYLE0
 73
     1
 44
1.0
  0
MTEXT
  5
12E
330
1F
100
AcDbEntity
  8
0
  6
Continuous
 62
     7
370
     0
100
AcDbMText
 10
1024.4600369465
 20
9.4739273576
 30
0.0
 40
3.96875
 41
0.0
 71
     2
 72
     1
  1
4
  7
SLDTEXTSTYLE0
 73
     1
 44
1.0
  0
MTEXT
  5
12F
330
1F
100
AcDbEntity
  8
0
  6
Continuous
 62
     7
370
     0
100
AcDbMText
 10
1024.4600369465
 20
835.4739273576
 30
0.0
 40
3.96875
 41
0.0
 71
     2
 72
     1
  1
4
  7
SLDTEXTSTYLE0
 73
     1
 44
1.0
  0
MTEXT
  5
130
330
1F
100
AcDbEntity
  8
0
  6
Continuous
 62
     7
370
     0
100
AcDbMText
 10
1074.4600369465
 20
9.4739273576
 30
0.0
 40
3.96875
 41
0.0
 71
     2
 72
     1
  1
3
  7
SLDTEXTSTYLE0
 73
     1
 44
1.0
  0
MTEXT
  5
131
330
1F
100
AcDbEntity
  8
0
  6
Continuous
 62
     7
370
     0
100
AcDbMText
 10
1074.4600369465
 20
835.4739273576
 30
0.0
 40
3.96875
 41
0.0
 71
     2
 72
     1
  1
3
  7
SLDTEXTSTYLE0
 73
     1
 44
1.0
  0
MTEXT
  5
132
330
1F
100
AcDbEntity
  8
0
  6
Continuous
 62
     7
370
     0
100
AcDbMText
 10
1124.4600369465
 20
9.4739273576
 30
0.0
 40
3.96875
 41
0.0
 71
     2
 72
     1
  1
2
  7
SLDTEXTSTYLE0
 73
     1
 44
1.0
  0
MTEXT
  5
133
330
1F
100
AcDbEntity
  8
0
  6
Continuous
 62
     7
370
     0
100
AcDbMText
 10
1124.4600369465
 20
835.4739273576
 30
0.0
 40
3.96875
 41
0.0
 71
     2
 72
     1
  1
2
  7
SLDTEXTSTYLE0
 73
     1
 44
1.0
  0
MTEXT
  5
134
330
1F
100
AcDbEntity
  8
0
  6
Continuous
 62
     7
370
     0
100
AcDbMText
 10
1164.2100369465
 20
9.4739273576
 30
0.0
 40
3.96875
 41
0.0
 71
     2
 72
     1
  1
1
  7
SLDTEXTSTYLE0
 73
     1
 44
1.0
  0
MTEXT
  5
135
330
1F
100
AcDbEntity
  8
0
  6
Continuous
 62
     7
370
     0
100
AcDbMText
 10
1164.2100369465
 20
835.4739273576
 30
0.0
 40
3.96875
 41
0.0
 71
     2
 72
     1
  1
1
  7
SLDTEXTSTYLE0
 73
     1
 44
1.0
  0
MTEXT
  5
136
330
1F
100
AcDbEntity
  8
0
  6
Continuous
 62
     7
370
     0
100
AcDbMText
 10
1133.7473841503
 20
23.6069109673
 30
0.0
 40
6.35
 41
0.0
 71
     2
 72
     1
  1
FrontAndBack
  7
SLDTEXTSTYLE0
 73
     1
 44
1.0
  0
MTEXT
  5
138
330
1F
100
AcDbEntity
  8
0
  6
Continuous
 62
     7
370
     0
100
AcDbMText
 10
1054.6178111281
 20
12.9493119036
 30
0.0
 40
1.4986
 41
0.0
 71
     1
 72
     1
  1
\M+1844D\M+18440\M+18452\M+18452\M+18440:
  7
SLDTEXTSTYLE1
 73
     1
 44
1.0
  0
MTEXT
  5
139
330
1F
100
AcDbEntity
  8
0
  6
Continuous
 62
     7
370
     0
100
AcDbMText
 10
1169.8711564346
 20
24.406388569
 30
0.0
 40
2.9104166667
 41
0.0
 71
     1
 72
     1
  1
A0
  7
SLDTEXTSTYLE0
 73
     1
 44
1.0
  0
MTEXT
  5
13B
330
1F
100
AcDbEntity
  8
0
  6
Continuous
 62
     7
370
     0
100
AcDbMText
 10
1143.4782944278
 20
12.9000872745
 30
0.0
 40
1.5
 41
0.0
 71
     1
 72
     1
  1
\M+1844C\M+18449\M+18452\M+18453 1 \M+18449\M+18448 1
  7
SLDTEXTSTYLE2
 73
     1
 44
1.0
  0
MTEXT
  5
13C
330
1F
100
AcDbEntity
  8
0
  6
Continuous
 62
     7
370
     0
100
AcDbMText
 10
1099.0739661175
 20
12.9000872745
 30
0.0
 40
1.5
 41
0.0
 71
     1
 72
     1
  1
\M+1844D\M+18440\M+18452\M+18459\M+18453\M+18440\M+18441:1:2
  7
SLDTEXTSTYLE1
 73
     1
 44
1.0
  0
MTEXT
  5
13D
330
1F
100
AcDbEntity
  8
0
  6
Continuous
 62
     7
370
     0
100
AcDbMText
 10
1099.3724037799
 20
25.9860562892
 30
0.0
 40
1.5
 41
0.0
 71
     1
 72
     1
  1
\M+18458\M+18445\M+18451\M+18453\M+18445\M+18447 \M+18782:
  7
SLDTEXTSTYLE1
 73
     1
 44
1.0
  0
MTEXT
  5
13E
330
1F
100
AcDbEntity
  8
0
  6
Continuous
 62
     7
370
     0
100
AcDbMText
 10
1099.0739661175
 20
46.5761792212
 30
0.0
 40
1.5
 41
0.0
 71
     1
 72
     1
  1
\M+1844E\M+18440\M+18448\M+18442\M+18440\M+1844E\M+18449\M+18445:
  7
SLDTEXTSTYLE1
 73
     1
 44
1.0
  0
MTEXT
  5
13F
330
1F
100
AcDbEntity
  8
0
  6
Continuous
 62
     7
370
     0
100
AcDbMText
 10
1152.3275816993
 20
62.3349086805
 30
0.0
 40
1.5
 41
0.0
 71
     1
 72
     1
  1
\M+18451\M+18445\M+18444\M+18440\M+1844B\M+18457\M+18449\M+18460
  7
SLDTEXTSTYLE1
 73
     1
 44
1.0
  0
MTEXT
  5
140
330
1F
100
AcDbEntity
  8
0
  6
Continuous
 62
     7
370
     0
100
AcDbMText
 10
1111.6146405229
 20
62.5329935751
 30
0.0
 40
1.5
 41
0.0
 71
     1
 72
     1
  1
\M+1844E\M+18445 \M+1844D\M+18440\M+18452\M+18459\M+18453\M+18440\M+18441\M+18449\M+18451\M+1844F\M+18442\M+18440\M+18453\M+1845D \M+18458\M+18445\M+18451\M+18453\M+18445\M+18447
  7
SLDTEXTSTYLE1
 73
     1
 44
1.0
  0
MTEXT
  5
141
330
1F
100
AcDbEntity
  8
0
  6
Continuous
 62
     7
370
     0
100
AcDbMText
 10
1054.6458623088
 20
25.9860562892
 30
0.0
 40
1.5
 41
0.0
 71
     1
 72
     1
  1
\M+1844D\M+18440\M+18453\M+18445\M+18451\M+18449\M+18440\M+1844C:
  7
SLDTEXTSTYLE1
 73
     1
 44
1.0
  0
MTEXT
  5
142
330
1F
100
AcDbEntity
  8
0
  6
Continuous
 62
     7
370
     0
100
AcDbMText
 10
1046.2147019657
 20
46.5761792212
 30
0.0
 40
1.5
 41
0.0
 71
     1
 72
     1
  1
\M+18444\M+18440\M+18453\M+18440
  7
SLDTEXTSTYLE1
 73
     1
 44
1.0
  0
MTEXT
  5
143
330
1F
100
AcDbEntity
  8
0
  6
Continuous
 62
     7
370
     0
100
AcDbMText
 10
1029.0335875632
 20
46.5617563795
 30
0.0
 40
1.5
 41
0.0
 71
     1
 72
     1
  1
\M+18450\M+1844F\M+18444\M+18450\M+18449\M+18452\M+1845D
  7
SLDTEXTSTYLE1
 73
     1
 44
1.0
  0
MTEXT
  5
144
330
1F
100
AcDbEntity
  8
0
  6
Continuous
 62
     7
370
     0
100
AcDbMText
 10
1013.3222392177
 20
46.5014826335
 30
0.0
 40
1.5
 41
0.0
 71
     1
 72
     1
  1
\M+18449\M+1844D\M+18460
  7
SLDTEXTSTYLE1
 73
     1
 44
1.0
  0
INSERT
  5
14B
330
1F
100
AcDbEntity
  8
0
  6
Continuous
 62
     7
370
     0
100
AcDbBlockReference
  2
SW_NOTE_0
 10
1080.3092156863
 20
62.069489643
 30
0.0
  0
MTEXT
  5
14C
330
1F
100
AcDbEntity
  8
0
  6
Continuous
 62
     7
370
     0
100
AcDbMText
 10
1033.3712921668
 20
63.9192719951
 30
0.0
 40
1.5
 41
0.0
 71
     1
 72
     1
  1
\M+1844F\M+18441\M+18451\M+18440\M+18441\M+1844F\M+18453\M+1844B\M+18440:
  7
SLDTEXTSTYLE1
 73
     1
 44
1.0
  0
INSERT
  5
156
330
1F
100
AcDbEntity
  8
0
  6
Continuous
 62
     7
370
     0
100
AcDbBlockReference
  2
SW_NOTE_1
 10
999.5936687456
 20
61.9873698743
 30
0.0
  0
MTEXT
  5
157
330
1F
100
AcDbEntity
  8
0
  6
Continuous
 62
     7
370
     0
100
AcDbMText
 10
999.6690428622
 20
25.3496492073
 30
0.0
 40
1.5
 41
0.0
 71
     1
 72
     1
  1
\M+18453.\M+1847B\M+18480\M+1847E\M+18484\M+18482
  7
SLDTEXTSTYLE1
 73
     1
 44
1.0
  0
MTEXT
  5
158
330
1F
100
AcDbEntity
  8
0
  6
Continuous
 62
     7
370
     0
100
AcDbMText
 10
999.4551864991
 20
29.7337046506
 30
0.0
 40
1.5
 41
0.0
 71
     1
 72
     1
  1
\M+1844D\M+18470\M+1848A.
  7
SLDTEXTSTYLE1
 73
     1
 44
1.0
  0
MTEXT
  5
159
330
1F
100
AcDbEntity
  8
0
  6
Continuous
 62
     7
370
     0
100
AcDbMText
 10
999.4017224083
 20
34.0642960031
 30
0.0
 40
1.5
 41
0.0
 71
     1
 72
     1
  1
\M+18454\M+18484\M+18472.
  7
SLDTEXTSTYLE1
 73
     1
 44
1.0
  0
MTEXT
  5
15A
330
1F
100
AcDbEntity
  8
0
  6
Continuous
 62
     7
370
     0
100
AcDbMText
 10
999.4104688676
 20
38.15440716
 30
0.0
 40
1.5
 41
0.0
 71
     1
 72
     1
  1
\M+18450\M+18482\M+18480\M+18472.
  7
SLDTEXTSTYLE1
 73
     1
 44
1.0
  0
MTEXT
  5
15B
330
1F
100
AcDbEntity
  8
0
  6
Continuous
 62
     7
370
     0
100
AcDbMText
 10
999.2121492441
 20
42.4297148859
 30
0.0
 40
1.5
 41
0.0
 71
     1
 72
     1
  1
\M+18451\M+18470\M+18478\M+18482\M+18470\M+18471.
  7
SLDTEXTSTYLE1
 73
     1
 44
1.0
  0
LINE
  5
15C
330
1F
100
AcDbEntity
  8
0
  6
Continuous
 62
     7
370
    25
100
AcDbLine
 10
396.0452725187
 20
406.6598267982
 30
0.0
 11
396.0452725187
 21
400.5598352978
 31
0.0
  0
LINE
  5
15D
330
1F
100
AcDbEntity
  8
0
  6
Continuous
 62
     7
370
    25
100
AcDbLine
 10
396.0452725187
 20
400.5598352978
 30
0.0
 11
406.045262982
 21
400.5598352978
 31
0.0
  0
LINE
  5
15E
330
1F
100
AcDbEntity
  8
0
  6
Continuous
 62
     7
370
    25
100
AcDbLine
 10
406.045262982
 20
400.5598352978
 30
0.0
 11
406.045262982
 21
406.6598267982
 31
0.0
  0
LINE
  5
15F
330
1F
100
AcDbEntity
  8
0
  6
Continuous
 62
     7
370
    25
100
AcDbLine
 10
406.045262982
 20
406.6598267982
 30
0.0
 11
396.0452725187
 21
406.6598267982
 31
0.0
  0
LINE
  5
160
330
1F
100
AcDbEntity
  8
0
  6
Continuous
 62
     7
370
    25
100
AcDbLine
 10
456.0452451006
 20
736.6621644924
 30
0.0
 11
456.0452451006
 21
724.5621533821
 31
0.0
  0
LINE
  5
161
330
1F
100
AcDbEntity
  8
0
  6
Continuous
 62
     7
370
    25
100
AcDbLine
 10
456.0452451006
 20
724.5621533821
 30
0.0
 11
466.0452653662
 21
724.5621533821
 31
0.0
  0
LINE
  5
162
330
1F
100
AcDbEntity
  8
0
  6
Continuous
 62
     7
370
    25
100
AcDbLine
 10
466.0452653662
 20
724.5621533821
 30
0.0
 11
466.0452653662
 21
736.6621644924
 31
0.0
  0
LINE
  5
163
330
1F
100
AcDbEntity
  8
0
  6
Continuous
 62
     7
370
    25
100
AcDbLine
 10
466.0452653662
 20
736.6621644924
 30
0.0
 11
456.0452451006
 21
736.6621644924
 31
0.0
  0
LINE
  5
164
330
1F
100
AcDbEntity
  8
0
  6
Continuous
 62
     7
370
    25
100
AcDbLine
 10
396.0452725187
 20
736.6621644924
 30
0.0
 11
396.0452725187
 21
724.5621533821
 31
0.0
  0
LINE
  5
165
330
1F
100
AcDbEntity
  8
0
  6
Continuous
 62
     7
370
    25
100
AcDbLine
 10
396.0452725187
 20
724.5621533821
 30
0.0
 11
406.045262982
 21
724.5621533821
 31
0.0
  0
LINE
  5
166
330
1F
100
AcDbEntity
  8
0
  6
Continuous
 62
     7
370
    25
100
AcDbLine
 10
406.045262982
 20
724.5621533821
 30
0.0
 11
406.045262982
 21
736.6621644924
 31
0.0
  0
LINE
  5
167
330
1F
100
AcDbEntity
  8
0
  6
Continuous
 62
     7
370
    25
100
AcDbLine
 10
406.045262982
 20
736.6621644924
 30
0.0
 11
396.0452725187
 21
736.6621644924
 31
0.0
  0
LINE
  5
168
330
1F
100
AcDbEntity
  8
0
  6
Continuous
 62
     7
370
    25
100
AcDbLine
 10
166.0452534452
 20
724.5621533821
 30
0.0
 11
176.0452588097
 21
724.5621533821
 31
0.0
  0
LINE
  5
169
330
1F
100
AcDbEntity
  8
0
  6
Continuous
 62
     7
370
    25
100
AcDbLine
 10
176.0452588097
 20
724.5621533821
 30
0.0
 11
176.0452588097
 21
736.6621644924
 31
0.0
  0
LINE
  5
16A
330
1F
100
AcDbEntity
  8
0
  6
Continuous
 62
     7
370
    25
100
AcDbLine
 10
176.0452588097
 20
736.6621644924
 30
0.0
 11
166.0452534452
 21
736.6621644924
 31
0.0
  0
LINE
  5
16B
330
1F
100
AcDbEntity
  8
0
  6
Continuous
 62
     7
370
    25
100
AcDbLine
 10
166.0452534452
 20
736.6621644924
 30
0.0
 11
166.0452534452
 21
724.5621533821
 31
0.0
  0
LINE
  5
16C
330
1F
100
AcDbEntity
  8
0
  6
Continuous
 62
     7
370
    25
100
AcDbLine
 10
226.0452558294
 20
400.5598352978
 30
0.0
 11
236.0452611938
 21
400.5598352978
 31
0.0
  0
LINE
  5
16D
330
1F
100
AcDbEntity
  8
0
  6
Continuous
 62
     7
370
    25
100
AcDbLine
 10
236.0452611938
 20
400.5598352978
 30
0.0
 11
236.0452611938
 21
406.6598267982
 31
0.0
  0
LINE
  5
16E
330
1F
100
AcDbEntity
  8
0
  6
Continuous
 62
     7
370
    25
100
AcDbLine
 10
236.0452611938
 20
406.6598267982
 30
0.0
 11
226.0452558294
 21
406.6598267982
 31
0.0
  0
LINE
  5
16F
330
1F
100
AcDbEntity
  8
0
  6
Continuous
 62
     7
370
    25
100
AcDbLine
 10
226.0452558294
 20
406.6598267982
 30
0.0
 11
226.0452558294
 21
400.5598352978
 31
0.0
  0
CIRCLE
  5
170
330
1F
100
AcDbEntity
  8
0
  6
Continuous
 62
     7
370
    25
100
AcDbCircle
 10
456.0023374826
 20
557.2242325703
 30
0.0
 40
1.5
  0
CIRCLE
  5
171
330
1F
100
AcDbEntity
  8
0
  6
Continuous
 62
     7
370
    25
100
AcDbCircle
 10
176.8177034826
 20
448.1473005703
 30
0.0
 40
1.700000000000017
  0
CIRCLE
  5
172
330
1F
100
AcDbEntity
  8
0
  6
Continuous
 62
     7
370
    25
100
AcDbCircle
 10
176.8177034826
 20
466.1473005703
 30
0.0
 40
1.700000000000017
  0
CIRCLE
  5
173
330
1F
100
AcDbEntity
  8
0
  6
Continuous
 62
     7
370
    25
100
AcDbCircle
 10
176.8177034826
 20
646.5175915703
 30
0.0
 40
1.699999999999989
  0
CIRCLE
  5
174
330
1F
100
AcDbEntity
  8
0
  6
Continuous
 62
     7
370
    25
100
AcDbCircle
 10
176.8177034826
 20
664.5175915703
 30
0.0
 40
1.700000000000017
  0
CIRCLE
  5
175
330
1F
100
AcDbEntity
  8
0
  6
Continuous
 62
     7
370
    25
100
AcDbCircle
 10
150.0452594826
 20
694.5621575703
 30
0.0
 40
1.599999999999994
  0
CIRCLE
  5
176
330
1F
100
AcDbEntity
  8
0
  6
Continuous
 62
     7
370
    25
100
AcDbCircle
 10
150.0452594826
 20
562.0621575703
 30
0.0
 40
1.599999999999966
  0
CIRCLE
  5
177
330
1F
100
AcDbEntity
  8
0
  6
Continuous
 62
     7
370
    25
100
AcDbCircle
 10
150.0452594826
 20
436.6598325703
 30
0.0
 40
1.599999999999966
  0
CIRCLE
  5
178
330
1F
100
AcDbEntity
  8
0
  6
Continuous
 62
     7
370
    25
100
AcDbCircle
 10
482.0452594826
 20
436.6598325703
 30
0.0
 40
1.599999999999909
  0
CIRCLE
  5
179
330
1F
100
AcDbEntity
  8
0
  6
Continuous
 62
     7
370
    25
100
AcDbCircle
 10
482.0452594826
 20
562.0621575703
 30
0.0
 40
1.599999999999909
  0
CIRCLE
  5
17A
330
1F
100
AcDbEntity
  8
0
  6
Continuous
 62
     7
370
    25
100
AcDbCircle
 10
482.0452594826
 20
694.5621575703
 30
0.0
 40
1.599999999999909
  0
LINE
  5
17B
330
1F
100
AcDbEntity
  8
0
  6
Continuous
 62
     7
370
    25
100
AcDbLine
 10
516.0452772871
 20
724.5621533821
 30
0.0
 11
526.0452677504
 21
724.5621533821
 31
0.0
  0
LINE
  5
17C
330
1F
100
AcDbEntity
  8
0
  6
Continuous
 62
     7
370
    25
100
AcDbLine
 10
526.0452677504
 20
724.5621533821
 30
0.0
 11
526.0452677504
 21
736.6621644924
 31
0.0
  0
LINE
  5
17D
330
1F
100
AcDbEntity
  8
0
  6
Continuous
 62
     7
370
    25
100
AcDbLine
 10
526.0452677504
 20
736.6621644924
 30
0.0
 11
516.0452772871
 21
736.6621644924
 31
0.0
  0
LINE
  5
17E
330
1F
100
AcDbEntity
  8
0
  6
Continuous
 62
     7
370
    25
100
AcDbLine
 10
516.0452772871
 20
736.6621644924
 30
0.0
 11
516.0452772871
 21
724.5621533821
 31
0.0
  0
CIRCLE
  5
17F
330
1F
100
AcDbEntity
  8
0
  6
Continuous
 62
     7
370
    25
100
AcDbCircle
 10
141.0452594826
 20
727.6121575703
 30
0.0
 40
1.599999999999966
  0
CIRCLE
  5
180
330
1F
100
AcDbEntity
  8
0
  6
Continuous
 62
     7
370
    25
100
AcDbCircle
 10
491.0452594826
 20
727.6121575703
 30
0.0
 40
1.599999999999966
  0
LINE
  5
181
330
1F
100
AcDbEntity
  8
0
  6
Continuous
 62
     7
370
    25
100
AcDbLine
 10
585.0452830091
 20
804.5621664951
 30
0.0
 11
47.045258154
 21
804.5621664951
 31
0.0
  0
LINE
  5
182
330
1F
100
AcDbEntity
  8
0
  6
Continuous
 62
     7
370
    25
100
AcDbLine
 10
585.0452830091
 20
751.6621501873
 30
0.0
 11
585.0452830091
 21
804.5621664951
 31
0.0
  0
LINE
  5
183
330
1F
100
AcDbEntity
  8
0
  6
Continuous
 62
     7
370
    25
100
AcDbLine
 10
591.0452653662
 20
751.5621633957
 30
0.0
 11
585.0452830091
 21
751.6621501873
 31
0.0
  0
LINE
  5
184
330
1F
100
AcDbEntity
  8
0
  6
Continuous
 62
     7
370
    25
100
AcDbLine
 10
591.0452653662
 20
741.5621431301
 30
0.0
 11
591.0452653662
 21
751.5621633957
 31
0.0
  0
LINE
  5
185
330
1F
100
AcDbEntity
  8
0
  6
Continuous
 62
     7
370
    25
100
AcDbLine
 10
585.0452830091
 20
741.4621563385
 30
0.0
 11
591.0452653662
 21
741.5621431301
 31
0.0
  0
LINE
  5
186
330
1F
100
AcDbEntity
  8
0
  6
Continuous
 62
     7
370
    25
100
AcDbLine
 10
585.0452830091
 20
723.1121511886
 30
0.0
 11
585.0452830091
 21
741.4621563385
 31
0.0
  0
LINE
  5
187
330
1F
100
AcDbEntity
  8
0
  6
Continuous
 62
     7
370
    25
100
AcDbLine
 10
578.2452871099
 20
723.1121511886
 30
0.0
 11
585.0452830091
 21
723.1121511886
 31
0.0
  0
LINE
  5
188
330
1F
100
AcDbEntity
  8
0
  6
Continuous
 62
     7
370
    25
100
AcDbLine
 10
578.2452871099
 20
724.3121715019
 30
0.0
 11
578.2452871099
 21
723.1121511886
 31
0.0
  0
LINE
  5
189
330
1F
100
AcDbEntity
  8
0
  6
Continuous
 62
     7
370
    25
100
AcDbLine
 10
576.0452796713
 20
724.3121715019
 30
0.0
 11
578.2452871099
 21
724.3121715019
 31
0.0
  0
LINE
  5
18A
330
1F
100
AcDbEntity
  8
0
  6
Continuous
 62
     7
370
    25
100
AcDbLine
 10
576.0452796713
 20
723.1121511886
 30
0.0
 11
576.0452796713
 21
724.3121715019
 31
0.0
  0
LINE
  5
18B
330
1F
100
AcDbEntity
  8
0
  6
Continuous
 62
     7
370
    25
100
AcDbLine
 10
574.5452691809
 20
723.1121511886
 30
0.0
 11
576.0452796713
 21
723.1121511886
 31
0.0
  0
LINE
  5
18C
330
1F
100
AcDbEntity
  8
0
  6
Continuous
 62
     7
370
    25
100
AcDbLine
 10
574.5452691809
 20
720.0121434162
 30
0.0
 11
574.5452691809
 21
723.1121511886
 31
0.0
  0
LINE
  5
18D
330
1F
100
AcDbEntity
  8
0
  6
Continuous
 62
     7
370
    25
100
AcDbLine
 10
576.0452796713
 20
720.0121434162
 30
0.0
 11
574.5452691809
 21
720.0121434162
 31
0.0
  0
LINE
  5
18E
330
1F
100
AcDbEntity
  8
0
  6
Continuous
 62
     7
370
    25
100
AcDbLine
 10
576.0452796713
 20
718.8121529052
 30
0.0
 11
576.0452796713
 21
720.0121434162
 31
0.0
  0
LINE
  5
18F
330
1F
100
AcDbEntity
  8
0
  6
Continuous
 62
     7
370
    25
100
AcDbLine
 10
578.2452871099
 20
718.8121529052
 30
0.0
 11
576.0452796713
 21
718.8121529052
 31
0.0
  0
LINE
  5
190
330
1F
100
AcDbEntity
  8
0
  6
Continuous
 62
     7
370
    25
100
AcDbLine
 10
578.2452871099
 20
720.0121434162
 30
0.0
 11
578.2452871099
 21
718.8121529052
 31
0.0
  0
LINE
  5
191
330
1F
100
AcDbEntity
  8
0
  6
Continuous
 62
     7
370
    25
100
AcDbLine
 10
585.0452830091
 20
720.0121434162
 30
0.0
 11
578.2452871099
 21
720.0121434162
 31
0.0
  0
LINE
  5
192
330
1F
100
AcDbEntity
  8
0
  6
Continuous
 62
     7
370
    25
100
AcDbLine
 10
585.0452830091
 20
701.6621680687
 30
0.0
 11
585.0452830091
 21
720.0121434162
 31
0.0
  0
LINE
  5
193
330
1F
100
AcDbEntity
  8
0
  6
Continuous
 62
     7
370
    25
100
AcDbLine
 10
591.0452653662
 20
701.5621514747
 30
0.0
 11
585.0452830091
 21
701.6621680687
 31
0.0
  0
LINE
  5
194
330
1F
100
AcDbEntity
  8
0
  6
Continuous
 62
     7
370
    25
100
AcDbLine
 10
591.0452653662
 20
691.5621610115
 30
0.0
 11
591.0452653662
 21
701.5621514747
 31
0.0
  0
LINE
  5
195
330
1F
100
AcDbEntity
  8
0
  6
Continuous
 62
     7
370
    25
100
AcDbLine
 10
585.0452830091
 20
691.4621444175
 30
0.0
 11
591.0452653662
 21
691.5621610115
 31
0.0
  0
LINE
  5
196
330
1F
100
AcDbEntity
  8
0
  6
Continuous
 62
     7
370
    25
100
AcDbLine
 10
585.0452830091
 20
581.6621633003
 30
0.0
 11
585.0452830091
 21
691.4621444175
 31
0.0
  0
LINE
  5
197
330
1F
100
AcDbEntity
  8
0
  6
Continuous
 62
     7
370
    25
100
AcDbLine
 10
591.0452653662
 20
581.5621467064
 30
0.0
 11
585.0452830091
 21
581.6621633003
 31
0.0
  0
LINE
  5
198
330
1F
100
AcDbEntity
  8
0
  6
Continuous
 62
     7
370
    25
100
AcDbLine
 10
591.0452653662
 20
571.5621562431
 30
0.0
 11
591.0452653662
 21
581.5621467064
 31
0.0
  0
LINE
  5
199
330
1F
100
AcDbEntity
  8
0
  6
Continuous
 62
     7
370
    25
100
AcDbLine
 10
585.0452830091
 20
571.4621694515
 30
0.0
 11
591.0452653662
 21
571.5621562431
 31
0.0
  0
LINE
  5
19A
330
1F
100
AcDbEntity
  8
0
  6
Continuous
 62
     7
370
    25
100
AcDbLine
 10
585.0452830091
 20
553.1121643017
 30
0.0
 11
585.0452830091
 21
571.4621694515
 31
0.0
  0
LINE
  5
19B
330
1F
100
AcDbEntity
  8
0
  6
Continuous
 62
     7
370
    25
100
AcDbLine
 10
578.2452871099
 20
553.1121643017
 30
0.0
 11
585.0452830091
 21
553.1121643017
 31
0.0
  0
LINE
  5
19C
330
1F
100
AcDbEntity
  8
0
  6
Continuous
 62
     7
370
    25
100
AcDbLine
 10
578.2452871099
 20
554.3121548126
 30
0.0
 11
578.2452871099
 21
553.1121643017
 31
0.0
  0
LINE
  5
19D
330
1F
100
AcDbEntity
  8
0
  6
Continuous
 62
     7
370
    25
100
AcDbLine
 10
576.0452796713
 20
554.3121548126
 30
0.0
 11
578.2452871099
 21
554.3121548126
 31
0.0
  0
LINE
  5
19E
330
1F
100
AcDbEntity
  8
0
  6
Continuous
 62
     7
370
    25
100
AcDbLine
 10
576.0452796713
 20
553.1121643017
 30
0.0
 11
576.0452796713
 21
554.3121548126
 31
0.0
  0
LINE
  5
19F
330
1F
100
AcDbEntity
  8
0
  6
Continuous
 62
     7
370
    25
100
AcDbLine
 10
574.5452691809
 20
553.1121643017
 30
0.0
 11
576.0452796713
 21
553.1121643017
 31
0.0
  0
LINE
  5
1A0
330
1F
100
AcDbEntity
  8
0
  6
Continuous
 62
     7
370
    25
100
AcDbLine
 10
574.5452691809
 20
550.0121565292
 30
0.0
 11
574.5452691809
 21
553.1121643017
 31
0.0
  0
LINE
  5
1A1
330
1F
100
AcDbEntity
  8
0
  6
Continuous
 62
     7
370
    25
100
AcDbLine
 10
576.0452796713
 20
550.0121565292
 30
0.0
 11
574.5452691809
 21
550.0121565292
 31
0.0
  0
LINE
  5
1A2
330
1F
100
AcDbEntity
  8
0
  6
Continuous
 62
     7
370
    25
100
AcDbLine
 10
576.0452796713
 20
548.8121660183
 30
0.0
 11
576.0452796713
 21
550.0121565292
 31
0.0
  0
LINE
  5
1A3
330
1F
100
AcDbEntity
  8
0
  6
Continuous
 62
     7
370
    25
100
AcDbLine
 10
578.2452871099
 20
548.8121660183
 30
0.0
 11
576.0452796713
 21
548.8121660183
 31
0.0
  0
LINE
  5
1A4
330
1F
100
AcDbEntity
  8
0
  6
Continuous
 62
     7
370
    25
100
AcDbLine
 10
578.2452871099
 20
550.0121565292
 30
0.0
 11
578.2452871099
 21
548.8121660183
 31
0.0
  0
LINE
  5
1A5
330
1F
100
AcDbEntity
  8
0
  6
Continuous
 62
     7
370
    25
100
AcDbLine
 10
585.0452830091
 20
550.0121565292
 30
0.0
 11
578.2452871099
 21
550.0121565292
 31
0.0
  0
LINE
  5
1A6
330
1F
100
AcDbEntity
  8
0
  6
Continuous
 62
     7
370
    25
100
AcDbLine
 10
585.0452830091
 20
531.6621513794
 30
0.0
 11
585.0452830091
 21
550.0121565292
 31
0.0
  0
LINE
  5
1A7
330
1F
100
AcDbEntity
  8
0
  6
Continuous
 62
     7
370
    25
100
AcDbLine
 10
591.0452653662
 20
531.5621645878
 30
0.0
 11
585.0452830091
 21
531.6621513794
 31
0.0
  0
LINE
  5
1A8
330
1F
100
AcDbEntity
  8
0
  6
Continuous
 62
     7
370
    25
100
AcDbLine
 10
591.0452653662
 20
521.5621592233
 30
0.0
 11
591.0452653662
 21
531.5621645878
 31
0.0
  0
LINE
  5
1A9
330
1F
100
AcDbEntity
  8
0
  6
Continuous
 62
     7
370
    25
100
AcDbLine
 10
585.0452830091
 20
521.4621575306
 30
0.0
 11
591.0452653662
 21
521.5621592233
 31
0.0
  0
LINE
  5
1AA
330
1F
100
AcDbEntity
  8
0
  6
Continuous
 62
     7
370
    25
100
AcDbLine
 10
585.0452830091
 20
431.6621573398
 30
0.0
 11
585.0452830091
 21
521.4621575306
 31
0.0
  0
LINE
  5
1AB
330
1F
100
AcDbEntity
  8
0
  6
Continuous
 62
     7
370
    25
100
AcDbLine
 10
591.0452653662
 20
431.5621556471
 30
0.0
 11
585.0452830091
 21
431.6621573398
 31
0.0
  0
LINE
  5
1AC
330
1F
100
AcDbEntity
  8
0
  6
Continuous
 62
     7
370
    25
100
AcDbLine
 10
591.0452653662
 20
421.5621502826
 30
0.0
 11
591.0452653662
 21
431.5621556471
 31
0.0
  0
LINE
  5
1AD
330
1F
100
AcDbEntity
  8
0
  6
Continuous
 62
     7
370
    25
100
AcDbLine
 10
585.0452830091
 20
421.462163491
 30
0.0
 11
591.0452653662
 21
421.5621502826
 31
0.0
  0
LINE
  5
1AE
330
1F
100
AcDbEntity
  8
0
  6
Continuous
 62
     7
370
    25
100
AcDbLine
 10
585.0452830091
 20
403.1121583412
 30
0.0
 11
585.0452830091
 21
421.462163491
 31
0.0
  0
LINE
  5
1AF
330
1F
100
AcDbEntity
  8
0
  6
Continuous
 62
     7
370
    25
100
AcDbLine
 10
578.2452871099
 20
403.1121583412
 30
0.0
 11
585.0452830091
 21
403.1121583412
 31
0.0
  0
LINE
  5
1B0
330
1F
100
AcDbEntity
  8
0
  6
Continuous
 62
     7
370
    25
100
AcDbLine
 10
578.2452871099
 20
404.3121563027
 30
0.0
 11
578.2452871099
 21
403.1121583412
 31
0.0
  0
LINE
  5
1B1
330
1F
100
AcDbEntity
  8
0
  6
Continuous
 62
     7
370
    25
100
AcDbLine
 10
576.0452796713
 20
404.3121563027
 30
0.0
 11
578.2452871099
 21
404.3121563027
 31
0.0
  0
LINE
  5
1B2
330
1F
100
AcDbEntity
  8
0
  6
Continuous
 62
     7
370
    25
100
AcDbLine
 10
576.0452796713
 20
403.1121583412
 30
0.0
 11
576.0452796713
 21
404.3121563027
 31
0.0
  0
LINE
  5
1B3
330
1F
100
AcDbEntity
  8
0
  6
Continuous
 62
     7
370
    25
100
AcDbLine
 10
574.5452691809
 20
403.1121583412
 30
0.0
 11
576.0452796713
 21
403.1121583412
 31
0.0
  0
LINE
  5
1B4
330
1F
100
AcDbEntity
  8
0
  6
Continuous
 62
     7
370
    25
100
AcDbLine
 10
574.5452691809
 20
400.0121580193
 30
0.0
 11
574.5452691809
 21
403.1121583412
 31
0.0
  0
LINE
  5
1B5
330
1F
100
AcDbEntity
  8
0
  6
Continuous
 62
     7
370
    25
100
AcDbLine
 10
576.0452796713
 20
400.0121580193
 30
0.0
 11
574.5452691809
 21
400.0121580193
 31
0.0
  0
LINE
  5
1B6
330
1F
100
AcDbEntity
  8
0
  6
Continuous
 62
     7
370
    25
100
AcDbLine
 10
576.0452796713
 20
398.8121600578
 30
0.0
 11
576.0452796713
 21
400.0121580193
 31
0.0
  0
LINE
  5
1B7
330
1F
100
AcDbEntity
  8
0
  6
Continuous
 62
     7
370
    25
100
AcDbLine
 10
578.2452871099
 20
398.8121600578
 30
0.0
 11
576.0452796713
 21
398.8121600578
 31
0.0
  0
LINE
  5
1B8
330
1F
100
AcDbEntity
  8
0
  6
Continuous
 62
     7
370
    25
100
AcDbLine
 10
578.2452871099
 20
400.0121580193
 30
0.0
 11
578.2452871099
 21
398.8121600578
 31
0.0
  0
LINE
  5
1B9
330
1F
100
AcDbEntity
  8
0
  6
Continuous
 62
     7
370
    25
100
AcDbLine
 10
585.0452830091
 20
400.0121580193
 30
0.0
 11
578.2452871099
 21
400.0121580193
 31
0.0
  0
LINE
  5
1BA
330
1F
100
AcDbEntity
  8
0
  6
Continuous
 62
     7
370
    25
100
AcDbLine
 10
585.0452830091
 20
381.6621603201
 30
0.0
 11
585.0452830091
 21
400.0121580193
 31
0.0
  0
LINE
  5
1BB
330
1F
100
AcDbEntity
  8
0
  6
Continuous
 62
     7
370
    25
100
AcDbLine
 10
591.0452653662
 20
381.5621586273
 30
0.0
 11
585.0452830091
 21
381.6621603201
 31
0.0
  0
LINE
  5
1BC
330
1F
100
AcDbEntity
  8
0
  6
Continuous
 62
     7
370
    25
100
AcDbLine
 10
591.0452653662
 20
371.5621607135
 30
0.0
 11
591.0452653662
 21
381.5621586273
 31
0.0
  0
LINE
  5
1BD
330
1F
100
AcDbEntity
  8
0
  6
Continuous
 62
     7
370
    25
100
AcDbLine
 10
585.0452830091
 20
371.4621590207
 30
0.0
 11
591.0452653662
 21
371.5621607135
 31
0.0
  0
LINE
  5
1BE
330
1F
100
AcDbEntity
  8
0
  6
Continuous
 62
     7
370
    25
100
AcDbLine
 10
585.0452830091
 20
321.5621562431
 30
0.0
 11
585.0452830091
 21
371.4621590207
 31
0.0
  0
LINE
  5
1BF
330
1F
100
AcDbEntity
  8
0
  6
Continuous
 62
     7
370
    25
100
AcDbLine
 10
535.0452710882
 20
321.5621562431
 30
0.0
 11
585.0452830091
 21
321.5621562431
 31
0.0
  0
LINE
  5
1C0
330
1F
100
AcDbEntity
  8
0
  6
Continuous
 62
     7
370
    25
100
AcDbLine
 10
518.0452515379
 20
330.2621582279
 30
0.0
 11
535.0452710882
 21
321.5621562431
 31
0.0
  0
LINE
  5
1C1
330
1F
100
AcDbEntity
  8
0
  6
Continuous
 62
     7
370
    25
100
AcDbLine
 10
114.0452598229
 20
330.2621582279
 30
0.0
 11
518.0452515379
 21
330.2621582279
 31
0.0
  0
LINE
  5
1C2
330
1F
100
AcDbEntity
  8
0
  6
Continuous
 62
     7
370
    25
100
AcDbLine
 10
97.0452626244
 20
321.5621562431
 30
0.0
 11
114.0452598229
 21
330.2621582279
 31
0.0
  0
LINE
  5
1C3
330
1F
100
AcDbEntity
  8
0
  6
Continuous
 62
     7
370
    25
100
AcDbLine
 10
47.045258154
 20
321.5621562431
 30
0.0
 11
97.0452626244
 21
321.5621562431
 31
0.0
  0
LINE
  5
1C4
330
1F
100
AcDbEntity
  8
0
  6
Continuous
 62
     7
370
    25
100
AcDbLine
 10
47.045258154
 20
371.4621590207
 30
0.0
 11
47.045258154
 21
321.5621562431
 31
0.0
  0
LINE
  5
1C5
330
1F
100
AcDbEntity
  8
0
  6
Continuous
 62
     7
370
    25
100
AcDbLine
 10
41.0452608958
 20
371.5621607135
 30
0.0
 11
47.045258154
 21
371.4621590207
 31
0.0
  0
LINE
  5
1C6
330
1F
100
AcDbEntity
  8
0
  6
Continuous
 62
     7
370
    25
100
AcDbLine
 10
41.0452608958
 20
381.5621586273
 30
0.0
 11
41.0452608958
 21
371.5621607135
 31
0.0
  0
LINE
  5
1C7
330
1F
100
AcDbEntity
  8
0
  6
Continuous
 62
     7
370
    25
100
AcDbLine
 10
47.045258154
 20
381.6621603201
 30
0.0
 11
41.0452608958
 21
381.5621586273
 31
0.0
  0
LINE
  5
1C8
330
1F
100
AcDbEntity
  8
0
  6
Continuous
 62
     7
370
    25
100
AcDbLine
 10
47.045258154
 20
400.0121580193
 30
0.0
 11
47.045258154
 21
381.6621603201
 31
0.0
  0
LINE
  5
1C9
330
1F
100
AcDbEntity
  8
0
  6
Continuous
 62
     7
370
    25
100
AcDbLine
 10
53.8452577785
 20
400.0121580193
 30
0.0
 11
47.045258154
 21
400.0121580193
 31
0.0
  0
LINE
  5
1CA
330
1F
100
AcDbEntity
  8
0
  6
Continuous
 62
     7
370
    25
100
AcDbLine
 10
53.8452577785
 20
398.8121600578
 30
0.0
 11
53.8452577785
 21
400.0121580193
 31
0.0
  0
LINE
  5
1CB
330
1F
100
AcDbEntity
  8
0
  6
Continuous
 62
     7
370
    25
100
AcDbLine
 10
56.0452577666
 20
398.8121600578
 30
0.0
 11
53.8452577785
 21
398.8121600578
 31
0.0
  0
LINE
  5
1CC
330
1F
100
AcDbEntity
  8
0
  6
Continuous
 62
     7
370
    25
100
AcDbLine
 10
56.0452577666
 20
400.0121580193
 30
0.0
 11
56.0452577666
 21
398.8121600578
 31
0.0
  0
LINE
  5
1CD
330
1F
100
AcDbEntity
  8
0
  6
Continuous
 62
     7
370
    25
100
AcDbLine
 10
57.5452608064
 20
400.0121580193
 30
0.0
 11
56.0452577666
 21
400.0121580193
 31
0.0
  0
LINE
  5
1CE
330
1F
100
AcDbEntity
  8
0
  6
Continuous
 62
     7
370
    25
100
AcDbLine
 10
57.5452608064
 20
403.1121583412
 30
0.0
 11
57.5452608064
 21
400.0121580193
 31
0.0
  0
LINE
  5
1CF
330
1F
100
AcDbEntity
  8
0
  6
Continuous
 62
     7
370
    25
100
AcDbLine
 10
56.0452577666
 20
403.1121583412
 30
0.0
 11
57.5452608064
 21
403.1121583412
 31
0.0
  0
LINE
  5
1D0
330
1F
100
AcDbEntity
  8
0
  6
Continuous
 62
     7
370
    25
100
AcDbLine
 10
56.0452577666
 20
404.3121563027
 30
0.0
 11
56.0452577666
 21
403.1121583412
 31
0.0
  0
LINE
  5
1D1
330
1F
100
AcDbEntity
  8
0
  6
Continuous
 62
     7
370
    25
100
AcDbLine
 10
53.8452577785
 20
404.3121563027
 30
0.0
 11
56.0452577666
 21
404.3121563027
 31
0.0
  0
LINE
  5
1D2
330
1F
100
AcDbEntity
  8
0
  6
Continuous
 62
     7
370
    25
100
AcDbLine
 10
53.8452577785
 20
403.1121583412
 30
0.0
 11
53.8452577785
 21
404.3121563027
 31
0.0
  0
LINE
  5
1D3
330
1F
100
AcDbEntity
  8
0
  6
Continuous
 62
     7
370
    25
100
AcDbLine
 10
47.045258154
 20
403.1121583412
 30
0.0
 11
53.8452577785
 21
403.1121583412
 31
0.0
  0
LINE
  5
1D4
330
1F
100
AcDbEntity
  8
0
  6
Continuous
 62
     7
370
    25
100
AcDbLine
 10
47.045258154
 20
421.462163491
 30
0.0
 11
47.045258154
 21
403.1121583412
 31
0.0
  0
LINE
  5
1D5
330
1F
100
AcDbEntity
  8
0
  6
Continuous
 62
     7
370
    25
100
AcDbLine
 10
41.0452608958
 20
421.5621502826
 30
0.0
 11
47.045258154
 21
421.462163491
 31
0.0
  0
LINE
  5
1D6
330
1F
100
AcDbEntity
  8
0
  6
Continuous
 62
     7
370
    25
100
AcDbLine
 10
41.0452608958
 20
431.5621556471
 30
0.0
 11
41.0452608958
 21
421.5621502826
 31
0.0
  0
LINE
  5
1D7
330
1F
100
AcDbEntity
  8
0
  6
Continuous
 62
     7
370
    25
100
AcDbLine
 10
47.045258154
 20
431.6621573398
 30
0.0
 11
41.0452608958
 21
431.5621556471
 31
0.0
  0
LINE
  5
1D8
330
1F
100
AcDbEntity
  8
0
  6
Continuous
 62
     7
370
    25
100
AcDbLine
 10
47.045258154
 20
521.4621575306
 30
0.0
 11
47.045258154
 21
431.6621573398
 31
0.0
  0
LINE
  5
1D9
330
1F
100
AcDbEntity
  8
0
  6
Continuous
 62
     7
370
    25
100
AcDbLine
 10
41.0452608958
 20
521.5621592233
 30
0.0
 11
47.045258154
 21
521.4621575306
 31
0.0
  0
LINE
  5
1DA
330
1F
100
AcDbEntity
  8
0
  6
Continuous
 62
     7
370
    25
100
AcDbLine
 10
41.0452608958
 20
531.5621645878
 30
0.0
 11
41.0452608958
 21
521.5621592233
 31
0.0
  0
LINE
  5
1DB
330
1F
100
AcDbEntity
  8
0
  6
Continuous
 62
     7
370
    25
100
AcDbLine
 10
47.045258154
 20
531.6621513794
 30
0.0
 11
41.0452608958
 21
531.5621645878
 31
0.0
  0
LINE
  5
1DC
330
1F
100
AcDbEntity
  8
0
  6
Continuous
 62
     7
370
    25
100
AcDbLine
 10
47.045258154
 20
550.0121565292
 30
0.0
 11
47.045258154
 21
531.6621513794
 31
0.0
  0
LINE
  5
1DD
330
1F
100
AcDbEntity
  8
0
  6
Continuous
 62
     7
370
    25
100
AcDbLine
 10
53.8452577785
 20
550.0121565292
 30
0.0
 11
47.045258154
 21
550.0121565292
 31
0.0
  0
LINE
  5
1DE
330
1F
100
AcDbEntity
  8
0
  6
Continuous
 62
     7
370
    25
100
AcDbLine
 10
53.8452577785
 20
548.8121660183
 30
0.0
 11
53.8452577785
 21
550.0121565292
 31
0.0
  0
LINE
  5
1DF
330
1F
100
AcDbEntity
  8
0
  6
Continuous
 62
     7
370
    25
100
AcDbLine
 10
56.0452577666
 20
548.8121660183
 30
0.0
 11
53.8452577785
 21
548.8121660183
 31
0.0
  0
LINE
  5
1E0
330
1F
100
AcDbEntity
  8
0
  6
Continuous
 62
     7
370
    25
100
AcDbLine
 10
56.0452577666
 20
550.0121565292
 30
0.0
 11
56.0452577666
 21
548.8121660183
 31
0.0
  0
LINE
  5
1E1
330
1F
100
AcDbEntity
  8
0
  6
Continuous
 62
     7
370
    25
100
AcDbLine
 10
57.5452608064
 20
550.0121565292
 30
0.0
 11
56.0452577666
 21
550.0121565292
 31
0.0
  0
LINE
  5
1E2
330
1F
100
AcDbEntity
  8
0
  6
Continuous
 62
     7
370
    25
100
AcDbLine
 10
57.5452608064
 20
553.1121643017
 30
0.0
 11
57.5452608064
 21
550.0121565292
 31
0.0
  0
LINE
  5
1E3
330
1F
100
AcDbEntity
  8
0
  6
Continuous
 62
     7
370
    25
100
AcDbLine
 10
56.0452577666
 20
553.1121643017
 30
0.0
 11
57.5452608064
 21
553.1121643017
 31
0.0
  0
LINE
  5
1E4
330
1F
100
AcDbEntity
  8
0
  6
Continuous
 62
     7
370
    25
100
AcDbLine
 10
56.0452577666
 20
554.3121548126
 30
0.0
 11
56.0452577666
 21
553.1121643017
 31
0.0
  0
LINE
  5
1E5
330
1F
100
AcDbEntity
  8
0
  6
Continuous
 62
     7
370
    25
100
AcDbLine
 10
53.8452577785
 20
554.3121548126
 30
0.0
 11
56.0452577666
 21
554.3121548126
 31
0.0
  0
LINE
  5
1E6
330
1F
100
AcDbEntity
  8
0
  6
Continuous
 62
     7
370
    25
100
AcDbLine
 10
53.8452577785
 20
553.1121643017
 30
0.0
 11
53.8452577785
 21
554.3121548126
 31
0.0
  0
LINE
  5
1E7
330
1F
100
AcDbEntity
  8
0
  6
Continuous
 62
     7
370
    25
100
AcDbLine
 10
47.045258154
 20
553.1121643017
 30
0.0
 11
53.8452577785
 21
553.1121643017
 31
0.0
  0
LINE
  5
1E8
330
1F
100
AcDbEntity
  8
0
  6
Continuous
 62
     7
370
    25
100
AcDbLine
 10
47.045258154
 20
571.4621694515
 30
0.0
 11
47.045258154
 21
553.1121643017
 31
0.0
  0
LINE
  5
1E9
330
1F
100
AcDbEntity
  8
0
  6
Continuous
 62
     7
370
    25
100
AcDbLine
 10
41.0452608958
 20
571.5621562431
 30
0.0
 11
47.045258154
 21
571.4621694515
 31
0.0
  0
LINE
  5
1EA
330
1F
100
AcDbEntity
  8
0
  6
Continuous
 62
     7
370
    25
100
AcDbLine
 10
41.0452608958
 20
581.5621467064
 30
0.0
 11
41.0452608958
 21
571.5621562431
 31
0.0
  0
LINE
  5
1EB
330
1F
100
AcDbEntity
  8
0
  6
Continuous
 62
     7
370
    25
100
AcDbLine
 10
47.045258154
 20
581.6621633003
 30
0.0
 11
41.0452608958
 21
581.5621467064
 31
0.0
  0
LINE
  5
1EC
330
1F
100
AcDbEntity
  8
0
  6
Continuous
 62
     7
370
    25
100
AcDbLine
 10
47.045258154
 20
691.4621444175
 30
0.0
 11
47.045258154
 21
581.6621633003
 31
0.0
  0
LINE
  5
1ED
330
1F
100
AcDbEntity
  8
0
  6
Continuous
 62
     7
370
    25
100
AcDbLine
 10
41.0452608958
 20
691.5621610115
 30
0.0
 11
47.045258154
 21
691.4621444175
 31
0.0
  0
LINE
  5
1EE
330
1F
100
AcDbEntity
  8
0
  6
Continuous
 62
     7
370
    25
100
AcDbLine
 10
41.0452608958
 20
701.5621514747
 30
0.0
 11
41.0452608958
 21
691.5621610115
 31
0.0
  0
LINE
  5
1EF
330
1F
100
AcDbEntity
  8
0
  6
Continuous
 62
     7
370
    25
100
AcDbLine
 10
47.045258154
 20
701.6621680687
 30
0.0
 11
41.0452608958
 21
701.5621514747
 31
0.0
  0
LINE
  5
1F0
330
1F
100
AcDbEntity
  8
0
  6
Continuous
 62
     7
370
    25
100
AcDbLine
 10
47.045258154
 20
720.0121434162
 30
0.0
 11
47.045258154
 21
701.6621680687
 31
0.0
  0
LINE
  5
1F1
330
1F
100
AcDbEntity
  8
0
  6
Continuous
 62
     7
370
    25
100
AcDbLine
 10
53.8452577785
 20
720.0121434162
 30
0.0
 11
47.045258154
 21
720.0121434162
 31
0.0
  0
LINE
  5
1F2
330
1F
100
AcDbEntity
  8
0
  6
Continuous
 62
     7
370
    25
100
AcDbLine
 10
53.8452577785
 20
718.8121529052
 30
0.0
 11
53.8452577785
 21
720.0121434162
 31
0.0
  0
LINE
  5
1F3
330
1F
100
AcDbEntity
  8
0
  6
Continuous
 62
     7
370
    25
100
AcDbLine
 10
56.0452577666
 20
718.8121529052
 30
0.0
 11
53.8452577785
 21
718.8121529052
 31
0.0
  0
LINE
  5
1F4
330
1F
100
AcDbEntity
  8
0
  6
Continuous
 62
     7
370
    25
100
AcDbLine
 10
56.0452577666
 20
720.0121434162
 30
0.0
 11
56.0452577666
 21
718.8121529052
 31
0.0
  0
LINE
  5
1F5
330
1F
100
AcDbEntity
  8
0
  6
Continuous
 62
     7
370
    25
100
AcDbLine
 10
57.5452608064
 20
720.0121434162
 30
0.0
 11
56.0452577666
 21
720.0121434162
 31
0.0
  0
LINE
  5
1F6
330
1F
100
AcDbEntity
  8
0
  6
Continuous
 62
     7
370
    25
100
AcDbLine
 10
57.5452608064
 20
723.1121511886
 30
0.0
 11
57.5452608064
 21
720.0121434162
 31
0.0
  0
LINE
  5
1F7
330
1F
100
AcDbEntity
  8
0
  6
Continuous
 62
     7
370
    25
100
AcDbLine
 10
56.0452577666
 20
723.1121511886
 30
0.0
 11
57.5452608064
 21
723.1121511886
 31
0.0
  0
LINE
  5
1F8
330
1F
100
AcDbEntity
  8
0
  6
Continuous
 62
     7
370
    25
100
AcDbLine
 10
56.0452577666
 20
724.3121715019
 30
0.0
 11
56.0452577666
 21
723.1121511886
 31
0.0
  0
LINE
  5
1F9
330
1F
100
AcDbEntity
  8
0
  6
Continuous
 62
     7
370
    25
100
AcDbLine
 10
53.8452577785
 20
724.3121715019
 30
0.0
 11
56.0452577666
 21
724.3121715019
 31
0.0
  0
LINE
  5
1FA
330
1F
100
AcDbEntity
  8
0
  6
Continuous
 62
     7
370
    25
100
AcDbLine
 10
53.8452577785
 20
723.1121511886
 30
0.0
 11
53.8452577785
 21
724.3121715019
 31
0.0
  0
LINE
  5
1FB
330
1F
100
AcDbEntity
  8
0
  6
Continuous
 62
     7
370
    25
100
AcDbLine
 10
47.045258154
 20
723.1121511886
 30
0.0
 11
53.8452577785
 21
723.1121511886
 31
0.0
  0
LINE
  5
1FC
330
1F
100
AcDbEntity
  8
0
  6
Continuous
 62
     7
370
    25
100
AcDbLine
 10
47.045258154
 20
741.4621563385
 30
0.0
 11
47.045258154
 21
723.1121511886
 31
0.0
  0
LINE
  5
1FD
330
1F
100
AcDbEntity
  8
0
  6
Continuous
 62
     7
370
    25
100
AcDbLine
 10
41.0452608958
 20
741.5621431301
 30
0.0
 11
47.045258154
 21
741.4621563385
 31
0.0
  0
LINE
  5
1FE
330
1F
100
AcDbEntity
  8
0
  6
Continuous
 62
     7
370
    25
100
AcDbLine
 10
41.0452608958
 20
751.5621633957
 30
0.0
 11
41.0452608958
 21
741.5621431301
 31
0.0
  0
LINE
  5
1FF
330
1F
100
AcDbEntity
  8
0
  6
Continuous
 62
     7
370
    25
100
AcDbLine
 10
47.045258154
 20
751.6621501873
 30
0.0
 11
41.0452608958
 21
751.5621633957
 31
0.0
  0
LINE
  5
200
330
1F
100
AcDbEntity
  8
0
  6
Continuous
 62
     7
370
    25
100
AcDbLine
 10
47.045258154
 20
804.5621664951
 30
0.0
 11
47.045258154
 21
751.6621501873
 31
0.0
  0
LINE
  5
201
330
1F
100
AcDbEntity
  8
0
  6
Continuous
 62
     7
370
    25
100
AcDbLine
 10
106.0452585116
 20
724.5621533821
 30
0.0
 11
116.0452564255
 21
724.5621533821
 31
0.0
  0
LINE
  5
202
330
1F
100
AcDbEntity
  8
0
  6
Continuous
 62
     7
370
    25
100
AcDbLine
 10
116.0452564255
 20
724.5621533821
 30
0.0
 11
116.0452564255
 21
736.6621644924
 31
0.0
  0
LINE
  5
203
330
1F
100
AcDbEntity
  8
0
  6
Continuous
 62
     7
370
    25
100
AcDbLine
 10
116.0452564255
 20
736.6621644924
 30
0.0
 11
106.0452585116
 21
736.6621644924
 31
0.0
  0
LINE
  5
204
330
1F
100
AcDbEntity
  8
0
  6
Continuous
 62
     7
370
    25
100
AcDbLine
 10
106.0452585116
 20
736.6621644924
 30
0.0
 11
106.0452585116
 21
724.5621533821
 31
0.0
  0
LINE
  5
205
330
1F
100
AcDbEntity
  8
0
  6
Continuous
 62
     7
370
    25
100
AcDbLine
 10
311.0452641741
 20
724.5621533821
 30
0.0
 11
321.0452546373
 21
724.5621533821
 31
0.0
  0
LINE
  5
206
330
1F
100
AcDbEntity
  8
0
  6
Continuous
 62
     7
370
    25
100
AcDbLine
 10
321.0452546373
 20
724.5621533821
 30
0.0
 11
321.0452546373
 21
736.6621644924
 31
0.0
  0
LINE
  5
207
330
1F
100
AcDbEntity
  8
0
  6
Continuous
 62
     7
370
    25
100
AcDbLine
 10
321.0452546373
 20
736.6621644924
 30
0.0
 11
311.0452641741
 21
736.6621644924
 31
0.0
  0
LINE
  5
208
330
1F
100
AcDbEntity
  8
0
  6
Continuous
 62
     7
370
    25
100
AcDbLine
 10
311.0452641741
 20
736.6621644924
 30
0.0
 11
311.0452641741
 21
724.5621533821
 31
0.0
  0
CIRCLE
  5
209
330
1F
100
AcDbEntity
  8
0
  6
Continuous
 62
     7
370
    25
100
AcDbCircle
 10
268.5452594826
 20
727.6121575703
 30
0.0
 40
1.599999999999966
  0
CIRCLE
  5
20A
330
1F
100
AcDbEntity
  8
0
  6
Continuous
 62
     7
370
    25
100
AcDbCircle
 10
201.0452594826
 20
727.6121575703
 30
0.0
 40
1.599999999999966
  0
CIRCLE
  5
20B
330
1F
100
AcDbEntity
  8
0
  6
Continuous
 62
     7
370
    25
100
AcDbCircle
 10
77.2177034826
 20
646.0142325703
 30
0.0
 40
1.600000000000023
  0
CIRCLE
  5
20C
330
1F
100
AcDbEntity
  8
0
  6
Continuous
 62
     7
370
    25
100
AcDbCircle
 10
77.2177034826
 20
465.6442325703
 30
0.0
 40
1.599999999999994
  0
CIRCLE
  5
20D
330
1F
100
AcDbEntity
  8
0
  6
Continuous
 62
     7
370
    25
100
AcDbCircle
 10
77.2177034826
 20
447.6442325703
 30
0.0
 40
1.599999999999994
  0
CIRCLE
  5
20E
330
1F
100
AcDbEntity
  8
0
  6
Continuous
 62
     7
370
    25
100
AcDbCircle
 10
201.0452594826
 20
403.6098325703
 30
0.0
 40
1.599999999999994
  0
CIRCLE
  5
20F
330
1F
100
AcDbEntity
  8
0
  6
Continuous
 62
     7
370
    25
100
AcDbCircle
 10
150.0452594826
 20
397.4598325703
 30
0.0
 40
1.700000000000017
  0
CIRCLE
  5
210
330
1F
100
AcDbEntity
  8
0
  6
Continuous
 62
     7
370
    25
100
AcDbCircle
 10
150.0452594826
 20
342.6598325703
 30
0.0
 40
1.700000000000017
  0
CIRCLE
  5
211
330
1F
100
AcDbEntity
  8
0
  6
Continuous
 62
     7
370
    25
100
AcDbCircle
 10
197.1578595216
 20
375.3818063841
 30
0.0
 40
8.049999999999983
  0
LINE
  5
212
330
1F
100
AcDbEntity
  8
0
  6
Continuous
 62
     7
370
    25
100
AcDbLine
 10
166.0452534452
 20
400.5598352978
 30
0.0
 11
176.0452588097
 21
400.5598352978
 31
0.0
  0
LINE
  5
213
330
1F
100
AcDbEntity
  8
0
  6
Continuous
 62
     7
370
    25
100
AcDbLine
 10
176.0452588097
 20
400.5598352978
 30
0.0
 11
176.0452588097
 21
406.6598267982
 31
0.0
  0
LINE
  5
214
330
1F
100
AcDbEntity
  8
0
  6
Continuous
 62
     7
370
    25
100
AcDbLine
 10
176.0452588097
 20
406.6598267982
 30
0.0
 11
166.0452534452
 21
406.6598267982
 31
0.0
  0
LINE
  5
215
330
1F
100
AcDbEntity
  8
0
  6
Continuous
 62
     7
370
    25
100
AcDbLine
 10
166.0452534452
 20
406.6598267982
 30
0.0
 11
166.0452534452
 21
400.5598352978
 31
0.0
  0
LINE
  5
216
330
1F
100
AcDbEntity
  8
0
  6
Continuous
 62
     7
370
    25
100
AcDbLine
 10
226.0452558294
 20
724.5621533821
 30
0.0
 11
236.0452611938
 21
724.5621533821
 31
0.0
  0
LINE
  5
217
330
1F
100
AcDbEntity
  8
0
  6
Continuous
 62
     7
370
    25
100
AcDbLine
 10
236.0452611938
 20
724.5621533821
 30
0.0
 11
236.0452611938
 21
736.6621644924
 31
0.0
  0
LINE
  5
218
330
1F
100
AcDbEntity
  8
0
  6
Continuous
 62
     7
370
    25
100
AcDbLine
 10
236.0452611938
 20
736.6621644924
 30
0.0
 11
226.0452558294
 21
736.6621644924
 31
0.0
  0
LINE
  5
219
330
1F
100
AcDbEntity
  8
0
  6
Continuous
 62
     7
370
    25
100
AcDbLine
 10
226.0452558294
 20
736.6621644924
 30
0.0
 11
226.0452558294
 21
724.5621533821
 31
0.0
  0
ARC
  5
21A
330
1F
100
AcDbEntity
  8
0
  6
Continuous
 62
     7
370
    25
100
AcDbCircle
 10
251.2523662638
 20
407.1598325703
 30
0.0
 40
0.5
100
AcDbArc
 50
225.0
 51
270.0
  0
LINE
  5
21B
330
1F
100
AcDbEntity
  8
0
  6
Continuous
 62
     7
370
    25
100
AcDbLine
 10
251.2523730293
 20
406.6598267982
 30
0.0
 11
255.045254995
 21
406.6598267982
 31
0.0
  0
ARC
  5
21C
330
1F
100
AcDbEntity
  8
0
  6
Continuous
 62
     7
370
    25
100
AcDbCircle
 10
255.0452594826
 20
406.1598325703
 30
0.0
 40
0.5000000000000568
100
AcDbArc
 50
0.0
 51
90.0
  0
LINE
  5
21D
330
1F
100
AcDbEntity
  8
0
  6
Continuous
 62
     7
370
    25
100
AcDbLine
 10
255.5452634588
 20
406.1598332355
 30
0.0
 11
255.5452634588
 21
347.1598328779
 31
0.0
  0
ARC
  5
21E
330
1F
100
AcDbEntity
  8
0
  6
Continuous
 62
     7
370
    25
100
AcDbCircle
 10
256.5452594826
 20
347.1598325703
 30
0.0
 40
1.0
100
AcDbArc
 50
180.0
 51
270.0
  0
LINE
  5
21F
330
1F
100
AcDbEntity
  8
0
  6
Continuous
 62
     7
370
    25
100
AcDbLine
 10
256.5452654854
 20
346.1598308513
 30
0.0
 11
375.5452682272
 21
346.1598308513
 31
0.0
  0
ARC
  5
220
330
1F
100
AcDbEntity
  8
0
  6
Continuous
 62
     7
370
    25
100
AcDbCircle
 10
375.5452594826
 20
347.1598325703
 30
0.0
 40
1.0
100
AcDbArc
 50
270.0
 51
0.0
  0
LINE
  5
221
330
1F
100
AcDbEntity
  8
0
  6
Continuous
 62
     7
370
    25
100
AcDbLine
 10
376.5452553526
 20
347.1598328779
 30
0.0
 11
376.5452553526
 21
406.1598332355
 31
0.0
  0
ARC
  5
222
330
1F
100
AcDbEntity
  8
0
  6
Continuous
 62
     7
370
    25
100
AcDbCircle
 10
377.0452594826
 20
406.1598325703
 30
0.0
 40
0.5
100
AcDbArc
 50
90.0
 51
180.0
  0
LINE
  5
223
330
1F
100
AcDbEntity
  8
0
  6
Continuous
 62
     7
370
    25
100
AcDbLine
 10
377.0452489153
 20
406.6598267982
 30
0.0
 11
380.8381606832
 21
406.6598267982
 31
0.0
  0
ARC
  5
224
330
1F
100
AcDbEntity
  8
0
  6
Continuous
 62
     7
370
    25
100
AcDbCircle
 10
380.8381527014
 20
407.1598325703
 30
0.0
 40
0.5000000000000568
100
AcDbArc
 50
270.0
 51
315.0
  0
LINE
  5
225
330
1F
100
AcDbEntity
  8
0
  6
Continuous
 62
     7
370
    25
100
AcDbLine
 10
381.1917056337
 20
406.8062754104
 30
0.0
 11
388.1796349779
 21
413.7942196558
 31
0.0
  0
ARC
  5
226
330
1F
100
AcDbEntity
  8
0
  6
Continuous
 62
     7
370
    25
100
AcDbCircle
 10
388.5331932638
 20
413.4406595703
 30
0.0
 40
0.500000000000004
100
AcDbArc
 50
90.0
 51
135.0
  0
LINE
  5
227
330
1F
100
AcDbEntity
  8
0
  6
Continuous
 62
     7
370
    25
100
AcDbLine
 10
388.5331799284
 20
413.9406533668
 30
0.0
 11
433.2796086565
 21
413.9406533668
 31
0.0
  0
ARC
  5
228
330
1F
100
AcDbEntity
  8
0
  6
Continuous
 62
     7
370
    25
100
AcDbCircle
 10
433.2796027494
 20
414.9406595703
 30
0.0
 40
0.9999999999999968
100
AcDbArc
 50
270.0
 51
314.797542076
  0
LINE
  5
229
330
1F
100
AcDbEntity
  8
0
  6
Continuous
 62
     7
370
    25
100
AcDbLine
 10
433.9841951624
 20
414.2310620973
 30
0.0
 11
446.2774147287
 21
426.4377059171
 31
0.0
  0
ARC
  5
22A
330
1F
100
AcDbEntity
  8
0
  6
Continuous
 62
     7
370
    25
100
AcDbCircle
 10
445.5728154826
 20
427.1473003054
 30
0.0
 40
0.9999999999999567
100
AcDbArc
 50
314.797542076
 51
0.0
  0
LINE
  5
22B
330
1F
100
AcDbEntity
  8
0
  6
Continuous
 62
     7
370
    25
100
AcDbLine
 10
446.5728153482
 20
427.1472992132
 30
0.0
 11
446.5728153482
 21
685.5175943802
 31
0.0
  0
ARC
  5
22C
330
1F
100
AcDbEntity
  8
0
  6
Continuous
 62
     7
370
    25
100
AcDbCircle
 10
445.5728154826
 20
685.5175918353
 30
0.0
 40
1.0
100
AcDbArc
 50
0.0
 51
45.2024602543
  0
LINE
  5
22D
330
1F
100
AcDbEntity
  8
0
  6
Continuous
 62
     7
370
    25
100
AcDbLine
 10
446.2774147287
 20
686.2271876762
 30
0.0
 11
433.9841951624
 21
698.433831496
 31
0.0
  0
ARC
  5
22E
330
1F
100
AcDbEntity
  8
0
  6
Continuous
 62
     7
370
    25
100
AcDbCircle
 10
433.2796017494
 20
697.7242325703
 30
0.0
 40
0.9999999999999384
100
AcDbArc
 50
45.2024602543
 51
90.0
  0
LINE
  5
22F
330
1F
100
AcDbEntity
  8
0
  6
Continuous
 62
     7
370
    25
100
AcDbLine
 10
433.2796086565
 20
698.7242253254
 30
0.0
 11
198.8109101549
 21
698.7242253254
 31
0.0
  0
ARC
  5
230
330
1F
100
AcDbEntity
  8
0
  6
Continuous
 62
     7
370
    25
100
AcDbCircle
 10
198.8109172157
 20
697.7242325703
 30
0.0
 40
0.9999999999998863
100
AcDbArc
 50
90.0
 51
134.7975397457
  0
LINE
  5
231
330
1F
100
AcDbEntity
  8
0
  6
Continuous
 62
     7
370
    25
100
AcDbLine
 10
198.1063087479
 20
698.433831496
 30
0.0
 11
185.8131040827
 21
686.2271876762
 31
0.0
  0
ARC
  5
232
330
1F
100
AcDbEntity
  8
0
  6
Continuous
 62
     7
370
    25
100
AcDbCircle
 10
186.5177034826
 20
685.5175918353
 30
0.0
 40
1.000000000000059
100
AcDbArc
 50
134.7975397457
 51
180.0
  0
LINE
  5
233
330
1F
100
AcDbEntity
  8
0
  6
Continuous
 62
     7
370
    25
100
AcDbLine
 10
185.5177034632
 20
685.5175943802
 30
0.0
 11
185.5177034632
 21
427.1472992132
 31
0.0
  0
ARC
  5
234
330
1F
100
AcDbEntity
  8
0
  6
Continuous
 62
     7
370
    25
100
AcDbCircle
 10
186.5177034826
 20
427.1473003054
 30
0.0
 40
1.000000000000028
100
AcDbArc
 50
180.0
 51
225.202457924
  0
LINE
  5
235
330
1F
100
AcDbEntity
  8
0
  6
Continuous
 62
     7
370
    25
100
AcDbLine
 10
185.8131040827
 20
426.4377059171
 30
0.0
 11
198.1063087479
 21
414.2310620973
 31
0.0
  0
ARC
  5
236
330
1F
100
AcDbEntity
  8
0
  6
Continuous
 62
     7
370
    25
100
AcDbCircle
 10
198.8109162157
 20
414.9406595703
 30
0.0
 40
1.0
100
AcDbArc
 50
225.202457924
 51
270.0
  0
LINE
  5
237
330
1F
100
AcDbEntity
  8
0
  6
Continuous
 62
     7
370
    25
100
AcDbLine
 10
198.8109101549
 20
413.9406533668
 30
0.0
 11
243.5573239819
 21
413.9406533668
 31
0.0
  0
ARC
  5
238
330
1F
100
AcDbEntity
  8
0
  6
Continuous
 62
     7
370
    25
100
AcDbCircle
 10
243.5573257014
 20
413.4406595703
 30
0.0
 40
0.5
100
AcDbArc
 50
45.0
 51
90.0
  0
LINE
  5
239
330
1F
100
AcDbEntity
  8
0
  6
Continuous
 62
     7
370
    25
100
AcDbLine
 10
243.9108838335
 20
413.7942196558
 30
0.0
 11
250.8988131777
 21
406.8062754104
 31
0.0
  0
CIRCLE
  5
23A
330
1F
100
AcDbEntity
  8
0
  6
Continuous
 62
     7
370
    25
100
AcDbCircle
 10
482.0452594826
 20
342.6598325703
 30
0.0
 40
1.700000000000045
  0
CIRCLE
  5
23B
330
1F
100
AcDbEntity
  8
0
  6
Continuous
 62
     7
370
    25
100
AcDbCircle
 10
482.0452594826
 20
397.4598325703
 30
0.0
 40
1.700000000000045
  0
CIRCLE
  5
23C
330
1F
100
AcDbEntity
  8
0
  6
Continuous
 62
     7
370
    25
100
AcDbCircle
 10
431.0452594826
 20
403.6098325703
 30
0.0
 40
1.600000000000023
  0
CIRCLE
  5
23D
330
1F
100
AcDbEntity
  8
0
  6
Continuous
 62
     7
370
    25
100
AcDbCircle
 10
431.0452594826
 20
727.6121575703
 30
0.0
 40
1.599999999999966
  0
CIRCLE
  5
23E
330
1F
100
AcDbEntity
  8
0
  6
Continuous
 62
     7
370
    25
100
AcDbCircle
 10
363.5452594826
 20
727.6121575703
 30
0.0
 40
1.599999999999966
  0
LINE
  5
23F
330
1F
100
AcDbEntity
  8
0
  6
Continuous
 62
     7
370
    25
100
AcDbLine
 10
456.0452451006
 20
406.6598267982
 30
0.0
 11
456.0452451006
 21
400.5598352978
 31
0.0
  0
LINE
  5
240
330
1F
100
AcDbEntity
  8
0
  6
Continuous
 62
     7
370
    25
100
AcDbLine
 10
456.0452451006
 20
400.5598352978
 30
0.0
 11
466.0452653662
 21
400.5598352978
 31
0.0
  0
LINE
  5
241
330
1F
100
AcDbEntity
  8
0
  6
Continuous
 62
     7
370
    25
100
AcDbLine
 10
466.0452653662
 20
400.5598352978
 30
0.0
 11
466.0452653662
 21
406.6598267982
 31
0.0
  0
LINE
  5
242
330
1F
100
AcDbEntity
  8
0
  6
Continuous
 62
     7
370
    25
100
AcDbLine
 10
466.0452653662
 20
406.6598267982
 30
0.0
 11
456.0452451006
 21
406.6598267982
 31
0.0
  0
LINE
  5
243
330
1F
100
AcDbEntity
  8
0
  6
Continuous
 62
     7
370
    25
100
AcDbLine
 10
1019.6243162761
 20
730.5621501418
 30
0.0
 11
1029.6243067394
 21
730.5621501418
 31
0.0
  0
LINE
  5
244
330
1F
100
AcDbEntity
  8
0
  6
Continuous
 62
     7
370
    25
100
AcDbLine
 10
1029.6243067394
 20
730.5621501418
 30
0.0
 11
1029.6243067394
 21
736.6621490927
 31
0.0
  0
LINE
  5
245
330
1F
100
AcDbEntity
  8
0
  6
Continuous
 62
     7
370
    25
100
AcDbLine
 10
1029.6243067394
 20
736.6621490927
 30
0.0
 11
1019.6243162761
 21
736.6621490927
 31
0.0
  0
LINE
  5
246
330
1F
100
AcDbEntity
  8
0
  6
Continuous
 62
     7
370
    25
100
AcDbLine
 10
1019.6243162761
 20
736.6621490927
 30
0.0
 11
1019.6243162761
 21
730.5621501418
 31
0.0
  0
LINE
  5
247
330
1F
100
AcDbEntity
  8
0
  6
Continuous
 62
     7
370
    25
100
AcDbLine
 10
888.4842033992
 20
374.1238784404
 30
0.0
 11
870.9845181118
 21
374.027192256
 31
0.0
  0
ARC
  5
248
330
1F
100
AcDbEntity
  8
0
  6
Continuous
 62
     7
370
    25
100
AcDbCircle
 10
870.9914111415
 20
372.777211389
 30
0.0
 40
1.250000020377739
100
AcDbArc
 50
90.316563626
 51
270.316563626
  0
LINE
  5
249
330
1F
100
AcDbEntity
  8
0
  6
Continuous
 62
     7
370
    25
100
AcDbLine
 10
870.9983463893
 20
371.5272318931
 30
0.0
 11
888.4980316768
 21
371.6239106269
 31
0.0
  0
ARC
  5
24A
330
1F
100
AcDbEntity
  8
0
  6
Continuous
 62
     7
370
    25
100
AcDbCircle
 10
888.4911439672
 20
372.8738944527
 30
0.0
 40
1.249999664876449
100
AcDbArc
 50
270.3165475101
 51
90.3165475101
  0
LINE
  5
24B
330
1F
100
AcDbEntity
  8
0
  6
Continuous
 62
     7
370
    25
100
AcDbLine
 10
789.6242972026
 20
724.5621677847
 30
0.0
 11
799.6242876659
 21
724.5621677847
 31
0.0
  0
LINE
  5
24C
330
1F
100
AcDbEntity
  8
0
  6
Continuous
 62
     7
370
    25
100
AcDbLine
 10
799.6242876659
 20
724.5621677847
 30
0.0
 11
799.6242876659
 21
736.6621490927
 31
0.0
  0
LINE
  5
24D
330
1F
100
AcDbEntity
  8
0
  6
Continuous
 62
     7
370
    25
100
AcDbLine
 10
799.6242876659
 20
736.6621490927
 30
0.0
 11
789.6242972026
 21
736.6621490927
 31
0.0
  0
LINE
  5
24E
330
1F
100
AcDbEntity
  8
0
  6
Continuous
 62
     7
370
    25
100
AcDbLine
 10
789.6242972026
 20
736.6621490927
 30
0.0
 11
789.6242972026
 21
724.5621677847
 31
0.0
  0
LINE
  5
24F
330
1F
100
AcDbEntity
  8
0
  6
Continuous
 62
     7
370
    25
100
AcDbLine
 10
959.6243734966
 20
724.5621677847
 30
0.0
 11
969.6243639598
 21
724.5621677847
 31
0.0
  0
LINE
  5
250
330
1F
100
AcDbEntity
  8
0
  6
Continuous
 62
     7
370
    25
100
AcDbLine
 10
969.6243639598
 20
724.5621677847
 30
0.0
 11
969.6243639598
 21
736.6621490927
 31
0.0
  0
LINE
  5
251
330
1F
100
AcDbEntity
  8
0
  6
Continuous
 62
     7
370
    25
100
AcDbLine
 10
969.6243639598
 20
736.6621490927
 30
0.0
 11
959.6243734966
 21
736.6621490927
 31
0.0
  0
LINE
  5
252
330
1F
100
AcDbEntity
  8
0
  6
Continuous
 62
     7
370
    25
100
AcDbLine
 10
959.6243734966
 20
736.6621490927
 30
0.0
 11
959.6243734966
 21
724.5621677847
 31
0.0
  0
CIRCLE
  5
253
330
1F
100
AcDbEntity
  8
0
  6
Continuous
 62
     7
370
    25
100
AcDbCircle
 10
764.6243151406
 20
728.0634685605
 30
0.0
 40
1.600000000000023
  0
CIRCLE
  5
254
330
1F
100
AcDbEntity
  8
0
  6
Continuous
 62
     7
370
    25
100
AcDbCircle
 10
994.6243151406
 20
728.0634685605
 30
0.0
 40
1.600000000000023
  0
CIRCLE
  5
255
330
1F
100
AcDbEntity
  8
0
  6
Continuous
 62
     7
370
    25
100
AcDbCircle
 10
927.1243151406
 20
728.0634685605
 30
0.0
 40
1.600000000000023
  0
CIRCLE
  5
256
330
1F
100
AcDbEntity
  8
0
  6
Continuous
 62
     7
370
    25
100
AcDbCircle
 10
832.1243151406
 20
728.0634685605
 30
0.0
 40
1.600000000000136
  0
LINE
  5
257
330
1F
100
AcDbEntity
  8
0
  6
Continuous
 62
     7
370
    25
100
AcDbLine
 10
874.6243353496
 20
724.5621677847
 30
0.0
 11
884.6243258129
 21
724.5621677847
 31
0.0
  0
LINE
  5
258
330
1F
100
AcDbEntity
  8
0
  6
Continuous
 62
     7
370
    25
100
AcDbLine
 10
884.6243258129
 20
724.5621677847
 30
0.0
 11
884.6243258129
 21
736.6621490927
 31
0.0
  0
LINE
  5
259
330
1F
100
AcDbEntity
  8
0
  6
Continuous
 62
     7
370
    25
100
AcDbLine
 10
884.6243258129
 20
736.6621490927
 30
0.0
 11
874.6243353496
 21
736.6621490927
 31
0.0
  0
LINE
  5
25A
330
1F
100
AcDbEntity
  8
0
  6
Continuous
 62
     7
370
    25
100
AcDbLine
 10
874.6243353496
 20
736.6621490927
 30
0.0
 11
874.6243353496
 21
724.5621677847
 31
0.0
  0
LINE
  5
25B
330
1F
100
AcDbEntity
  8
0
  6
Continuous
 62
     7
370
    25
100
AcDbLine
 10
1010.2479096065
 20
717.0761522265
 30
0.0
 11
1050.6813164363
 21
676.1934753867
 31
0.0
  0
ARC
  5
25C
330
1F
100
AcDbEntity
  8
0
  6
Continuous
 62
     7
370
    25
100
AcDbCircle
 10
1051.5700544102
 20
677.0724762935
 30
0.0
 40
1.250000020377745
100
AcDbArc
 50
224.6834513905
 51
44.6834513905
  0
LINE
  5
25D
330
1F
100
AcDbEntity
  8
0
  6
Continuous
 62
     7
370
    25
100
AcDbLine
 10
1052.4588461528
 20
677.9514547797
 30
0.0
 11
1012.025439323
 21
718.8341018172
 31
0.0
  0
ARC
  5
25E
330
1F
100
AcDbEntity
  8
0
  6
Continuous
 62
     7
370
    25
100
AcDbCircle
 10
1011.1366652703
 20
717.9551254294
 30
0.0
 40
1.250000016471175
100
AcDbArc
 50
44.6834603299
 51
224.6834603299
  0
CIRCLE
  5
25F
330
1F
100
AcDbEntity
  8
0
  6
Continuous
 62
     7
370
    25
100
AcDbCircle
 10
927.1243151406
 20
404.0611435605
 30
0.0
 40
1.600000000000023
  0
LINE
  5
260
330
1F
100
AcDbEntity
  8
0
  6
Continuous
 62
     7
370
    25
100
AcDbLine
 10
986.1243601451
 20
451.4621641846
 30
0.0
 11
986.1243601451
 21
441.4621588202
 31
0.0
  0
LINE
  5
261
330
1F
100
AcDbEntity
  8
0
  6
Continuous
 62
     7
370
    25
100
AcDbLine
 10
986.1243601451
 20
441.4621588202
 30
0.0
 11
992.2242994915
 21
441.4621588202
 31
0.0
  0
LINE
  5
262
330
1F
100
AcDbEntity
  8
0
  6
Continuous
 62
     7
370
    25
100
AcDbLine
 10
992.2242994915
 20
441.4621588202
 30
0.0
 11
992.2242994915
 21
451.4621641846
 31
0.0
  0
LINE
  5
263
330
1F
100
AcDbEntity
  8
0
  6
Continuous
 62
     7
370
    25
100
AcDbLine
 10
992.2242994915
 20
451.4621641846
 30
0.0
 11
986.1243601451
 21
451.4621641846
 31
0.0
  0
LINE
  5
264
330
1F
100
AcDbEntity
  8
0
  6
Continuous
 62
     7
370
    25
100
AcDbLine
 10
669.0317030559
 20
390.8838179322
 30
0.0
 11
641.0317059169
 21
390.8838179322
 31
0.0
  0
LINE
  5
265
330
1F
100
AcDbEntity
  8
0
  6
Continuous
 62
     7
370
    25
100
AcDbLine
 10
641.0317059169
 20
390.8838179322
 30
0.0
 11
641.0317059169
 21
342.8838175149
 31
0.0
  0
LINE
  5
266
330
1F
100
AcDbEntity
  8
0
  6
Continuous
 62
     7
370
    25
100
AcDbLine
 10
641.0317059169
 20
342.8838175149
 30
0.0
 11
669.0317030559
 21
342.8838175149
 31
0.0
  0
LINE
  5
267
330
1F
100
AcDbEntity
  8
0
  6
Continuous
 62
     7
370
    25
100
AcDbLine
 10
669.0317030559
 20
342.8838175149
 30
0.0
 11
669.0317030559
 21
390.8838179322
 31
0.0
  0
LINE
  5
268
330
1F
100
AcDbEntity
  8
0
  6
Continuous
 62
     7
370
    25
100
AcDbLine
 10
729.6243544231
 20
730.5621501418
 30
0.0
 11
739.6243448864
 21
730.5621501418
 31
0.0
  0
LINE
  5
269
330
1F
100
AcDbEntity
  8
0
  6
Continuous
 62
     7
370
    25
100
AcDbLine
 10
739.6243448864
 20
730.5621501418
 30
0.0
 11
739.6243448864
 21
736.6621490927
 31
0.0
  0
LINE
  5
26A
330
1F
100
AcDbEntity
  8
0
  6
Continuous
 62
     7
370
    25
100
AcDbLine
 10
739.6243448864
 20
736.6621490927
 30
0.0
 11
729.6243544231
 21
736.6621490927
 31
0.0
  0
LINE
  5
26B
330
1F
100
AcDbEntity
  8
0
  6
Continuous
 62
     7
370
    25
100
AcDbLine
 10
729.6243544231
 20
736.6621490927
 30
0.0
 11
729.6243544231
 21
730.5621501418
 31
0.0
  0
CIRCLE
  5
26C
330
1F
100
AcDbEntity
  8
0
  6
Continuous
 62
     7
370
    25
100
AcDbCircle
 10
832.1243151406
 20
404.0611435605
 30
0.0
 40
1.600000000000136
  0
CIRCLE
  5
26D
330
1F
100
AcDbEntity
  8
0
  6
Continuous
 62
     7
370
    25
100
AcDbCircle
 10
675.0317147127
 20
366.8838175605
 30
0.0
 40
1.649999999999977
  0
LINE
  5
26E
330
1F
100
AcDbEntity
  8
0
  6
Continuous
 62
     7
370
    25
100
AcDbLine
 10
789.6242972026
 20
400.5621593805
 30
0.0
 11
799.6242876659
 21
400.5621593805
 31
0.0
  0
LINE
  5
26F
330
1F
100
AcDbEntity
  8
0
  6
Continuous
 62
     7
370
    25
100
AcDbLine
 10
799.6242876659
 20
400.5621593805
 30
0.0
 11
799.6242876659
 21
406.6621508809
 31
0.0
  0
LINE
  5
270
330
1F
100
AcDbEntity
  8
0
  6
Continuous
 62
     7
370
    25
100
AcDbLine
 10
799.6242876659
 20
406.6621508809
 30
0.0
 11
789.6242972026
 21
406.6621508809
 31
0.0
  0
LINE
  5
271
330
1F
100
AcDbEntity
  8
0
  6
Continuous
 62
     7
370
    25
100
AcDbLine
 10
789.6242972026
 20
406.6621508809
 30
0.0
 11
789.6242972026
 21
400.5621593805
 31
0.0
  0
LINE
  5
272
330
1F
100
AcDbEntity
  8
0
  6
Continuous
 62
     7
370
    25
100
AcDbLine
 10
874.6243353496
 20
400.5621593805
 30
0.0
 11
884.6243258129
 21
400.5621593805
 31
0.0
  0
LINE
  5
273
330
1F
100
AcDbEntity
  8
0
  6
Continuous
 62
     7
370
    25
100
AcDbLine
 10
884.6243258129
 20
400.5621593805
 30
0.0
 11
884.6243258129
 21
406.6621508809
 31
0.0
  0
LINE
  5
274
330
1F
100
AcDbEntity
  8
0
  6
Continuous
 62
     7
370
    25
100
AcDbLine
 10
884.6243258129
 20
406.6621508809
 30
0.0
 11
874.6243353496
 21
406.6621508809
 31
0.0
  0
LINE
  5
275
330
1F
100
AcDbEntity
  8
0
  6
Continuous
 62
     7
370
    25
100
AcDbLine
 10
874.6243353496
 20
406.6621508809
 30
0.0
 11
874.6243353496
 21
400.5621593805
 31
0.0
  0
CIRCLE
  5
276
330
1F
100
AcDbEntity
  8
0
  6
Continuous
 62
     7
370
    25
100
AcDbCircle
 10
635.0317147127
 20
366.8838175605
 30
0.0
 40
1.649999999999864
  0
LINE
  5
277
330
1F
100
AcDbEntity
  8
0
  6
Continuous
 62
     7
370
    25
100
AcDbLine
 10
893.4565420757
 20
379.1514259191
 30
0.0
 11
865.9569855342
 21
378.9994936796
 31
0.0
  0
ARC
  5
278
330
1F
100
AcDbEntity
  8
0
  6
Continuous
 62
     7
370
    25
100
AcDbCircle
 10
865.9638635425
 20
377.7495106138
 30
0.0
 40
1.25000001647108
100
AcDbArc
 50
90.3165312151
 51
270.3165312151
  0
LINE
  5
279
330
1F
100
AcDbEntity
  8
0
  6
Continuous
 62
     7
370
    25
100
AcDbLine
 10
865.9708138118
 20
376.4995333166
 30
0.0
 11
893.4703703533
 21
376.6514581056
 31
0.0
  0
ARC
  5
27A
330
1F
100
AcDbEntity
  8
0
  6
Continuous
 62
     7
370
    25
100
AcDbCircle
 10
893.4634438992
 20
377.9014420517
 30
0.0
 40
1.249999664876623
100
AcDbArc
 50
270.3165475101
 51
90.3165475101
  0
LINE
  5
27B
330
1F
100
AcDbEntity
  8
0
  6
Continuous
 62
     7
370
    25
100
AcDbLine
 10
959.6243734966
 20
400.5621593805
 30
0.0
 11
969.6243639598
 21
400.5621593805
 31
0.0
  0
LINE
  5
27C
330
1F
100
AcDbEntity
  8
0
  6
Continuous
 62
     7
370
    25
100
AcDbLine
 10
969.6243639598
 20
400.5621593805
 30
0.0
 11
969.6243639598
 21
406.6621508809
 31
0.0
  0
LINE
  5
27D
330
1F
100
AcDbEntity
  8
0
  6
Continuous
 62
     7
370
    25
100
AcDbLine
 10
969.6243639598
 20
406.6621508809
 30
0.0
 11
959.6243734966
 21
406.6621508809
 31
0.0
  0
LINE
  5
27E
330
1F
100
AcDbEntity
  8
0
  6
Continuous
 62
     7
370
    25
100
AcDbLine
 10
959.6243734966
 20
406.6621508809
 30
0.0
 11
959.6243734966
 21
400.5621593805
 31
0.0
  0
CIRCLE
  5
27F
330
1F
100
AcDbEntity
  8
0
  6
Continuous
 62
     7
370
    25
100
AcDbCircle
 10
724.5756261309
 20
645.5134685605
 30
0.0
 40
1.600000000000023
  0
CIRCLE
  5
280
330
1F
100
AcDbEntity
  8
0
  6
Continuous
 62
     7
370
    25
100
AcDbCircle
 10
989.1743151406
 20
651.9134685605
 30
0.0
 40
1.600000000000023
  0
LINE
  5
281
330
1F
100
AcDbEntity
  8
0
  6
Continuous
 62
     7
370
    25
100
AcDbLine
 10
898.4288807521
 20
384.1789733978
 30
0.0
 11
860.9294529567
 21
383.9717951031
 31
0.0
  0
ARC
  5
282
330
1F
100
AcDbEntity
  8
0
  6
Continuous
 62
     7
370
    25
100
AcDbCircle
 10
860.9363159435
 20
382.7218105458
 30
0.0
 40
1.250000016471194
100
AcDbArc
 50
90.3165312151
 51
270.3165312151
  0
LINE
  5
283
330
1F
100
AcDbEntity
  8
0
  6
Continuous
 62
     7
370
    25
100
AcDbLine
 10
860.943162025
 20
381.4718272896
 30
0.0
 11
898.4427090297
 21
381.6790055843
 31
0.0
  0
ARC
  5
284
330
1F
100
AcDbEntity
  8
0
  6
Continuous
 62
     7
370
    25
100
AcDbCircle
 10
898.4357434776
 20
382.9289900043
 30
0.0
 40
1.250000020377849
100
AcDbArc
 50
270.316563626
 51
90.316563626
  0
CIRCLE
  5
285
330
1F
100
AcDbEntity
  8
0
  6
Continuous
 62
     7
370
    25
100
AcDbCircle
 10
989.1743151406
 20
481.9134685605
 30
0.0
 40
1.600000000000023
  0
CIRCLE
  5
286
330
1F
100
AcDbEntity
  8
0
  6
Continuous
 62
     7
370
    25
100
AcDbCircle
 10
770.0743151406
 20
481.9134685605
 30
0.0
 40
1.600000000000023
  0
LINE
  5
287
330
1F
100
AcDbEntity
  8
0
  6
Continuous
 62
     7
370
    25
100
AcDbLine
 10
767.4443359981
 20
681.4621683569
 30
0.0
 11
773.5442753444
 21
681.4621683569
 31
0.0
  0
LINE
  5
288
330
1F
100
AcDbEntity
  8
0
  6
Continuous
 62
     7
370
    25
100
AcDbLine
 10
773.5442753444
 20
681.4621683569
 30
0.0
 11
773.5442753444
 21
691.4621588202
 31
0.0
  0
LINE
  5
289
330
1F
100
AcDbEntity
  8
0
  6
Continuous
 62
     7
370
    25
100
AcDbLine
 10
773.5442753444
 20
691.4621588202
 30
0.0
 11
767.4443359981
 21
691.4621588202
 31
0.0
  0
LINE
  5
28A
330
1F
100
AcDbEntity
  8
0
  6
Continuous
 62
     7
370
    25
100
AcDbLine
 10
767.4443359981
 20
691.4621588202
 30
0.0
 11
767.4443359981
 21
681.4621683569
 31
0.0
  0
LINE
  5
28B
330
1F
100
AcDbEntity
  8
0
  6
Continuous
 62
     7
370
    25
100
AcDbLine
 10
850.88809687
 20
391.4164301367
 30
0.0
 11
908.3872671733
 21
391.7341005416
 31
0.0
  0
ARC
  5
28C
330
1F
100
AcDbEntity
  8
0
  6
Continuous
 62
     7
370
    25
100
AcDbCircle
 10
908.3803433416
 20
392.9840852023
 30
0.0
 40
1.25000002037774
100
AcDbArc
 50
270.316563626
 51
90.316563626
  0
LINE
  5
28D
330
1F
100
AcDbEntity
  8
0
  6
Continuous
 62
     7
370
    25
100
AcDbLine
 10
908.3734388957
 20
394.2340683551
 30
0.0
 11
850.8742685924
 21
393.9163904996
 31
0.0
  0
ARC
  5
28E
330
1F
100
AcDbEntity
  8
0
  6
Continuous
 62
     7
370
    25
100
AcDbCircle
 10
850.8812207454
 20
392.6664104098
 30
0.0
 40
1.250000016471308
100
AcDbArc
 50
90.3165312151
 51
270.3165312151
  0
LINE
  5
28F
330
1F
100
AcDbEntity
  8
0
  6
Continuous
 62
     7
370
    25
100
AcDbLine
 10
903.4011002193
 20
389.2065208764
 30
0.0
 11
855.9019203792
 21
388.9440890761
 31
0.0
  0
ARC
  5
290
330
1F
100
AcDbEntity
  8
0
  6
Continuous
 62
     7
370
    25
100
AcDbCircle
 10
855.9087683444
 20
387.6941104778
 30
0.0
 40
1.250000016471136
100
AcDbArc
 50
90.3165312151
 51
270.3165312151
  0
LINE
  5
291
330
1F
100
AcDbEntity
  8
0
  6
Continuous
 62
     7
370
    25
100
AcDbLine
 10
855.9156294475
 20
386.4441287132
 30
0.0
 11
903.4149284969
 21
386.706553063
 31
0.0
  0
ARC
  5
292
330
1F
100
AcDbEntity
  8
0
  6
Continuous
 62
     7
370
    25
100
AcDbCircle
 10
903.4080434096
 20
387.9565376033
 30
0.0
 40
1.250000020377913
100
AcDbArc
 50
270.316563626
 51
90.316563626
  0
ARC
  5
293
330
1F
100
AcDbEntity
  8
0
  6
Continuous
 62
     7
370
    25
100
AcDbCircle
 10
763.0243151406
 20
714.4805518276
 30
0.0
 40
4.0
100
AcDbArc
 50
0.0
 51
180.0
  0
LINE
  5
294
330
1F
100
AcDbEntity
  8
0
  6
Continuous
 62
     7
370
    25
100
AcDbLine
 10
759.0243454586
 20
714.4805487605
 30
0.0
 11
759.0243454586
 21
709.1976102801
 31
0.0
  0
ARC
  5
295
330
1F
100
AcDbEntity
  8
0
  6
Continuous
 62
     7
370
    25
100
AcDbCircle
 10
763.0243151406
 20
709.1976113483
 30
0.0
 40
4.0
100
AcDbArc
 50
180.0
 51
0.0
  0
LINE
  5
296
330
1F
100
AcDbEntity
  8
0
  6
Continuous
 62
     7
370
    25
100
AcDbLine
 10
767.024361671
 20
709.1976102801
 30
0.0
 11
767.024361671
 21
714.4805487605
 31
0.0
  0
CIRCLE
  5
297
330
1F
100
AcDbEntity
  8
0
  6
Continuous
 62
     7
370
    25
100
AcDbCircle
 10
755.5756261309
 20
645.5134685605
 30
0.0
 40
1.600000000000023
  0
LINE
  5
298
330
1F
100
AcDbEntity
  8
0
  6
Continuous
 62
     7
370
    25
100
AcDbLine
 10
1017.3189278255
 20
717.0370813818
 30
0.0
 11
1050.7204170833
 21
683.2644638033
 31
0.0
  0
ARC
  5
299
330
1F
100
AcDbEntity
  8
0
  6
Continuous
 62
     7
370
    25
100
AcDbCircle
 10
1051.6091203998
 20
684.143436304
 30
0.0
 40
1.250000020377942
100
AcDbArc
 50
224.6834520685
 51
44.6834520685
  0
LINE
  5
29A
330
1F
100
AcDbEntity
  8
0
  6
Continuous
 62
     7
370
    25
100
AcDbLine
 10
1052.4978275905
 20
685.022413394
 30
0.0
 11
1019.0963383327
 21
718.7950309725
 31
0.0
  0
ARC
  5
29B
330
1F
100
AcDbEntity
  8
0
  6
Continuous
 62
     7
370
    25
100
AcDbCircle
 10
1018.2076245163
 20
717.9160591862
 30
0.0
 40
1.250000020378058
100
AcDbArc
 50
44.6834444744
 51
224.6834444744
  0
LINE
  5
29C
330
1F
100
AcDbEntity
  8
0
  6
Continuous
 62
     7
370
    25
100
AcDbLine
 10
767.4443359981
 20
621.4621659727
 30
0.0
 11
767.4443359981
 21
611.4621457072
 31
0.0
  0
LINE
  5
29D
330
1F
100
AcDbEntity
  8
0
  6
Continuous
 62
     7
370
    25
100
AcDbLine
 10
767.4443359981
 20
611.4621457072
 30
0.0
 11
773.5442753444
 21
611.4621457072
 31
0.0
  0
LINE
  5
29E
330
1F
100
AcDbEntity
  8
0
  6
Continuous
 62
     7
370
    25
100
AcDbLine
 10
773.5442753444
 20
611.4621457072
 30
0.0
 11
773.5442753444
 21
621.4621659727
 31
0.0
  0
LINE
  5
29F
330
1F
100
AcDbEntity
  8
0
  6
Continuous
 62
     7
370
    25
100
AcDbLine
 10
773.5442753444
 20
621.4621659727
 30
0.0
 11
767.4443359981
 21
621.4621659727
 31
0.0
  0
LINE
  5
2A0
330
1F
100
AcDbEntity
  8
0
  6
Continuous
 62
     7
370
    25
100
AcDbLine
 10
1079.6242590557
 20
730.5621501418
 30
0.0
 11
1089.6243687282
 21
730.5621501418
 31
0.0
  0
LINE
  5
2A1
330
1F
100
AcDbEntity
  8
0
  6
Continuous
 62
     7
370
    25
100
AcDbLine
 10
1089.6243687282
 20
730.5621501418
 30
0.0
 11
1089.6243687282
 21
736.6621490927
 31
0.0
  0
LINE
  5
2A2
330
1F
100
AcDbEntity
  8
0
  6
Continuous
 62
     7
370
    25
100
AcDbLine
 10
1089.6243687282
 20
736.6621490927
 30
0.0
 11
1079.6242590557
 21
736.6621490927
 31
0.0
  0
LINE
  5
2A3
330
1F
100
AcDbEntity
  8
0
  6
Continuous
 62
     7
370
    25
100
AcDbLine
 10
1079.6242590557
 20
736.6621490927
 30
0.0
 11
1079.6242590557
 21
730.5621501418
 31
0.0
  0
LINE
  5
2A4
330
1F
100
AcDbEntity
  8
0
  6
Continuous
 62
     7
370
    25
100
AcDbLine
 10
1100.4068489681
 20
366.8124523373
 30
0.0
 11
1088.7636776577
 21
362.6556914659
 31
0.0
  0
ARC
  5
2A5
330
1F
100
AcDbEntity
  8
0
  6
Continuous
 62
     7
370
    25
100
AcDbCircle
 10
1090.1085952204
 20
358.8885714688
 30
0.0
 40
4.000000000000102
100
AcDbArc
 50
109.6472242847
 51
145.6882879109
  0
ARC
  5
2A6
330
1F
100
AcDbEntity
  8
0
  6
Continuous
 62
     7
370
    25
100
AcDbCircle
 10
1078.4107887127
 20
366.8717784343
 30
0.0
 40
10.16228338040967
100
AcDbArc
 50
280.4770062319
 51
325.6882879109
  0
ARC
  5
2A7
330
1F
100
AcDbEntity
  8
0
  6
Continuous
 62
     7
370
    25
100
AcDbCircle
 10
1080.8042303523
 20
353.9289371349
 30
0.0
 40
3.000000000000024
100
AcDbArc
 50
100.4770062319
 51
196.1143882112
  0
LINE
  5
2A8
330
1F
100
AcDbEntity
  8
0
  6
Continuous
 62
     7
370
    25
100
AcDbLine
 10
1077.9220696102
 20
353.0962687345
 30
0.0
 11
1080.2789564739
 21
344.9384641261
 31
0.0
  0
ARC
  5
2A9
330
1F
100
AcDbEntity
  8
0
  6
Continuous
 62
     7
370
    25
100
AcDbCircle
 10
1086.0432072152
 20
346.6038014243
 30
0.0
 40
6.000000000000206
100
AcDbArc
 50
196.1143882112
 51
290.6218212951
  0
ARC
  5
2AA
330
1F
100
AcDbEntity
  8
0
  6
Continuous
 62
     7
370
    25
100
AcDbCircle
 10
1078.4220045197
 20
366.856259356
 30
0.0
 40
27.63896445763744
100
AcDbArc
 50
290.6218212951
 51
350.7226441352
  0
ARC
  5
2AB
330
1F
100
AcDbEntity
  8
0
  6
Continuous
 62
     7
370
    25
100
AcDbCircle
 10
1101.751759681
 20
363.0453323374
 30
0.0
 40
3.999999999999964
100
AcDbArc
 50
350.7226441352
 51
109.6472242847
  0
LINE
  5
2AC
330
1F
100
AcDbEntity
  8
0
  6
Continuous
 62
     7
370
    25
100
AcDbLine
 10
708.5673447261
 20
676.1934753867
 30
0.0
 11
749.000751556
 21
717.0761522265
 31
0.0
  0
ARC
  5
2AD
330
1F
100
AcDbEntity
  8
0
  6
Continuous
 62
     7
370
    25
100
AcDbCircle
 10
748.1119650109
 20
717.9551254294
 30
0.0
 40
1.250000016471255
100
AcDbArc
 50
315.3165396701
 51
135.3165396701
  0
LINE
  5
2AE
330
1F
100
AcDbEntity
  8
0
  6
Continuous
 62
     7
370
    25
100
AcDbLine
 10
747.2232218395
 20
718.8341018172
 30
0.0
 11
706.7898150096
 21
677.9514547797
 31
0.0
  0
ARC
  5
2AF
330
1F
100
AcDbEntity
  8
0
  6
Continuous
 62
     7
370
    25
100
AcDbCircle
 10
707.678575871
 20
677.0724762935
 30
0.0
 40
1.250000020377745
100
AcDbArc
 50
135.3165486095
 51
315.3165486095
  0
CIRCLE
  5
2B0
330
1F
100
AcDbEntity
  8
0
  6
Continuous
 62
     7
370
    25
100
AcDbCircle
 10
1054.6243151406
 20
728.0634685605
 30
0.0
 40
1.600000000000136
  0
CIRCLE
  5
2B1
330
1F
100
AcDbEntity
  8
0
  6
Continuous
 62
     7
370
    25
100
AcDbCircle
 10
1103.5582117127
 20
392.0192014343
 30
0.0
 40
1.599999999999682
  0
LINE
  5
2B2
330
1F
100
AcDbEntity
  8
0
  6
Continuous
 62
     7
370
    25
100
AcDbLine
 10
740.1522036205
 20
718.7950309725
 30
0.0
 11
706.7507143627
 21
685.022413394
 31
0.0
  0
ARC
  5
2B3
330
1F
100
AcDbEntity
  8
0
  6
Continuous
 62
     7
370
    25
100
AcDbCircle
 10
707.6395098814
 20
684.143436304
 30
0.0
 40
1.250000020377699
100
AcDbArc
 50
135.3165479315
 51
315.3165479315
  0
LINE
  5
2B4
330
1F
100
AcDbEntity
  8
0
  6
Continuous
 62
     7
370
    25
100
AcDbLine
 10
708.5282440792
 20
683.2644638033
 30
0.0
 11
741.929733337
 21
717.0370813818
 31
0.0
  0
ARC
  5
2B5
330
1F
100
AcDbEntity
  8
0
  6
Continuous
 62
     7
370
    25
100
AcDbCircle
 10
741.0410057649
 20
717.9160591862
 30
0.0
 40
1.250000020377816
100
AcDbArc
 50
315.3165555256
 51
135.3165555256
  0
CIRCLE
  5
2B6
330
1F
100
AcDbEntity
  8
0
  6
Continuous
 62
     7
370
    25
100
AcDbCircle
 10
1103.5582117127
 20
342.0192014343
 30
0.0
 40
1.599999999999682
  0
CIRCLE
  5
2B7
330
1F
100
AcDbEntity
  8
0
  6
Continuous
 62
     7
370
    25
100
AcDbCircle
 10
1053.5582117127
 20
342.0192014343
 30
0.0
 40
1.599999999999909
  0
LINE
  5
2B8
330
1F
100
AcDbEntity
  8
0
  6
Continuous
 62
     7
370
    25
100
AcDbLine
 10
733.0813046108
 20
718.7559899302
 30
0.0
 11
706.711732925
 21
692.0933720084
 31
0.0
  0
ARC
  5
2B9
330
1F
100
AcDbEntity
  8
0
  6
Continuous
 62
     7
370
    25
100
AcDbCircle
 10
707.6004436392
 20
691.2143955591
 30
0.0
 40
1.250000371972302
100
AcDbArc
 50
135.3165474235
 51
315.3165474235
  0
LINE
  5
2BA
330
1F
100
AcDbEntity
  8
0
  6
Continuous
 62
     7
370
    25
100
AcDbLine
 10
708.4891434322
 20
690.3354224177
 30
0.0
 11
734.8588343273
 21
716.9980105372
 31
0.0
  0
ARC
  5
2BB
330
1F
100
AcDbEntity
  8
0
  6
Continuous
 62
     7
370
    25
100
AcDbCircle
 10
733.9700457649
 20
717.8769931862
 30
0.0
 40
1.250000020377489
100
AcDbArc
 50
315.3165555263
 51
135.3165555262
  0
CIRCLE
  5
2BC
330
1F
100
AcDbEntity
  8
0
  6
Continuous
 62
     7
370
    25
100
AcDbCircle
 10
1053.5582117127
 20
392.0192014343
 30
0.0
 40
1.599999999999909
  0
LINE
  5
2BD
330
1F
100
AcDbEntity
  8
0
  6
Continuous
 62
     7
370
    25
100
AcDbLine
 10
1024.3898268352
 20
716.9980105372
 30
0.0
 11
1050.759398521
 21
690.3354224177
 31
0.0
  0
ARC
  5
2BE
330
1F
100
AcDbEntity
  8
0
  6
Continuous
 62
     7
370
    25
100
AcDbCircle
 10
1051.648186642
 20
691.2143955591
 30
0.0
 40
1.250000371972302
100
AcDbArc
 50
224.6834525765
 51
44.6834525765
  0
LINE
  5
2BF
330
1F
100
AcDbEntity
  8
0
  6
Continuous
 62
     7
370
    25
100
AcDbLine
 10
1052.5369282375
 20
692.0933720084
 30
0.0
 11
1026.1673565517
 21
718.7559899302
 31
0.0
  0
ARC
  5
2C0
330
1F
100
AcDbEntity
  8
0
  6
Continuous
 62
     7
370
    25
100
AcDbCircle
 10
1025.2785845163
 20
717.8769931862
 30
0.0
 40
1.250000020377732
100
AcDbArc
 50
44.6834444737
 51
224.6834444737
  0
CIRCLE
  5
2C1
330
1F
100
AcDbEntity
  8
0
  6
Continuous
 62
     7
370
    25
100
AcDbCircle
 10
704.6243151406
 20
728.0634685605
 30
0.0
 40
1.600000000000023
  0
LINE
  5
2C2
330
1F
100
AcDbEntity
  8
0
  6
Continuous
 62
     7
370
    25
100
AcDbLine
 10
708.4501619945
 20
697.406381032
 30
0.0
 11
727.7878161083
 21
716.9589396925
 31
0.0
  0
ARC
  5
2C3
330
1F
100
AcDbEntity
  8
0
  6
Continuous
 62
     7
370
    25
100
AcDbCircle
 10
726.8990857648
 20
717.8379271862
 30
0.0
 40
1.250000020377781
100
AcDbArc
 50
315.3165555273
 51
135.3165555273
  0
LINE
  5
2C4
330
1F
100
AcDbEntity
  8
0
  6
Continuous
 62
     7
370
    25
100
AcDbLine
 10
726.0102863918
 20
718.7169190855
 30
0.0
 11
706.672632278
 21
699.1643306227
 31
0.0
  0
ARC
  5
2C5
330
1F
100
AcDbEntity
  8
0
  6
Continuous
 62
     7
370
    25
100
AcDbCircle
 10
707.5613776392
 20
698.2853555591
 30
0.0
 40
1.250000371972556
100
AcDbArc
 50
135.3165474256
 51
315.3165474256
  0
LINE
  5
2C6
330
1F
100
AcDbEntity
  8
0
  6
Continuous
 62
     7
370
    25
100
AcDbLine
 10
718.9393873821
 20
718.6778482409
 30
0.0
 11
706.633531631
 21
706.2352892371
 31
0.0
  0
ARC
  5
2C7
330
1F
100
AcDbEntity
  8
0
  6
Continuous
 62
     7
370
    25
100
AcDbCircle
 10
707.5223116391
 20
705.356315559
 30
0.0
 40
1.250000371972458
100
AcDbArc
 50
135.3165474301
 51
315.3165474301
  0
LINE
  5
2C8
330
1F
100
AcDbEntity
  8
0
  6
Continuous
 62
     7
370
    25
100
AcDbLine
 10
708.4110613475
 20
704.4773396464
 30
0.0
 11
720.7169170986
 21
716.9198688479
 31
0.0
  0
ARC
  5
2C9
330
1F
100
AcDbEntity
  8
0
  6
Continuous
 62
     7
370
    25
100
AcDbCircle
 10
719.8281257648
 20
717.7988611861
 30
0.0
 40
1.250000020378061
100
AcDbArc
 50
315.3165555297
 51
135.3165555297
  0
ARC
  5
2CA
330
1F
100
AcDbEntity
  8
0
  6
Continuous
 62
     7
370
    25
100
AcDbCircle
 10
1074.5843425678
 20
343.5308084871
 30
0.0
 40
4.000000000000248
100
AcDbArc
 50
260.7226436272
 51
19.647225524
  0
LINE
  5
2CB
330
1F
100
AcDbEntity
  8
0
  6
Continuous
 62
     7
370
    25
100
AcDbLine
 10
1078.3514614711
 20
344.8757227869
 30
0.0
 11
1074.1947527538
 21
356.5188866468
 31
0.0
  0
ARC
  5
2CC
330
1F
100
AcDbEntity
  8
0
  6
Continuous
 62
     7
370
    25
100
AcDbCircle
 10
1070.4275817903
 20
355.1739718971
 30
0.0
 40
4.000000000000348
100
AcDbArc
 50
19.647225524
 51
55.6882881225
  0
ARC
  5
2CD
330
1F
100
AcDbEntity
  8
0
  6
Continuous
 62
     7
370
    25
100
AcDbCircle
 10
1078.4107887127
 20
366.8717784343
 30
0.0
 40
10.16228338040953
100
AcDbArc
 50
190.477002276
 51
235.6882881225
  0
ARC
  5
2CE
330
1F
100
AcDbEntity
  8
0
  6
Continuous
 62
     7
370
    25
100
AcDbCircle
 10
1065.4679472479
 20
364.4783376883
 30
0.0
 40
2.999999999999946
100
AcDbArc
 50
10.477002276
 51
106.1143882112
  0
LINE
  5
2CF
330
1F
100
AcDbEntity
  8
0
  6
Continuous
 62
     7
370
    25
100
AcDbLine
 10
1064.6352406154
 20
367.3604648919
 30
0.0
 11
1056.4775105129
 21
365.0036152811
 31
0.0
  0
ARC
  5
2D0
330
1F
100
AcDbEntity
  8
0
  6
Continuous
 62
     7
370
    25
100
AcDbCircle
 10
1058.1428118616
 20
359.2393609191
 30
0.0
 40
5.999999999999946
100
AcDbArc
 50
106.1143882112
 51
200.6218212951
  0
ARC
  5
2D1
330
1F
100
AcDbEntity
  8
0
  6
Continuous
 62
     7
370
    25
100
AcDbCircle
 10
1078.3952697932
 20
366.8605636146
 30
0.0
 40
27.63896445763741
100
AcDbArc
 50
200.6218212951
 51
260.7226436272
  0
LINE
  5
2D2
330
1F
100
AcDbEntity
  8
0
  6
Continuous
 62
     7
370
    25
100
AcDbLine
 10
669.6242924343
 20
736.6621490927
 30
0.0
 11
669.6242924343
 21
730.5621501418
 31
0.0
  0
LINE
  5
2D3
330
1F
100
AcDbEntity
  8
0
  6
Continuous
 62
     7
370
    25
100
AcDbLine
 10
669.6242924343
 20
730.5621501418
 30
0.0
 11
679.6242828975
 21
730.5621501418
 31
0.0
  0
LINE
  5
2D4
330
1F
100
AcDbEntity
  8
0
  6
Continuous
 62
     7
370
    25
100
AcDbLine
 10
679.6242828975
 20
730.5621501418
 30
0.0
 11
679.6242828975
 21
736.6621490927
 31
0.0
  0
LINE
  5
2D5
330
1F
100
AcDbEntity
  8
0
  6
Continuous
 62
     7
370
    25
100
AcDbLine
 10
679.6242828975
 20
736.6621490927
 30
0.0
 11
669.6242924343
 21
736.6621490927
 31
0.0
  0
ARC
  5
2D6
330
1F
100
AcDbEntity
  8
0
  6
Continuous
 62
     7
370
    25
100
AcDbCircle
 10
1078.4107887127
 20
366.8717784343
 30
0.0
 40
10.16228338041003
100
AcDbArc
 50
10.4770045743
 51
55.6882870896
  0
ARC
  5
2D7
330
1F
100
AcDbEntity
  8
0
  6
Continuous
 62
     7
370
    25
100
AcDbCircle
 10
1091.3536300814
 20
369.2652196996
 30
0.0
 40
2.999999999999987
100
AcDbArc
 50
190.4770045743
 51
286.1143902979
  0
LINE
  5
2D8
330
1F
100
AcDbEntity
  8
0
  6
Continuous
 62
     7
370
    25
100
AcDbLine
 10
1092.1862955699
 20
366.3830902787
 30
0.0
 11
1100.3441448818
 21
368.7399398895
 31
0.0
  0
ARC
  5
2D9
330
1F
100
AcDbEntity
  8
0
  6
Continuous
 62
     7
370
    25
100
AcDbCircle
 10
1098.6787665839
 20
374.5041971131
 30
0.0
 40
6.000000000000056
100
AcDbArc
 50
286.1143902979
 51
20.6218222434
  0
ARC
  5
2DA
330
1F
100
AcDbEntity
  8
0
  6
Continuous
 62
     7
370
    25
100
AcDbCircle
 10
1078.4263087784
 20
366.8829940824
 30
0.0
 40
27.63896445763732
100
AcDbArc
 50
20.6218222434
 51
80.7226433571
  0
ARC
  5
2DB
330
1F
100
AcDbEntity
  8
0
  6
Continuous
 62
     7
370
    25
100
AcDbCircle
 10
1082.2372361138
 20
390.212749192
 30
0.0
 40
4.000000000000079
100
AcDbArc
 50
80.7226433571
 51
199.6472194746
  0
LINE
  5
2DC
330
1F
100
AcDbEntity
  8
0
  6
Continuous
 62
     7
370
    25
100
AcDbLine
 10
1078.4700747142
 20
388.8678398342
 30
0.0
 11
1082.6269026409
 21
377.2246759744
 31
0.0
  0
ARC
  5
2DD
330
1F
100
AcDbEntity
  8
0
  6
Continuous
 62
     7
370
    25
100
AcDbCircle
 10
1086.3939958459
 20
378.5695848276
 30
0.0
 40
4.000000000000531
100
AcDbArc
 50
199.6472194746
 51
235.6882870896
  0
ARC
  5
2DE
330
1F
100
AcDbEntity
  8
0
  6
Continuous
 62
     7
370
    25
100
AcDbCircle
 10
1055.0810335513
 20
370.6827054529
 30
0.0
 40
3.999999999999918
100
AcDbArc
 50
170.7226441352
 51
289.6472242847
  0
LINE
  5
2DF
330
1F
100
AcDbEntity
  8
0
  6
Continuous
 62
     7
370
    25
100
AcDbLine
 10
1056.4258928905
 20
366.9155832739
 30
0.0
 11
1068.0690642009
 21
371.0723441453
 31
0.0
  0
ARC
  5
2E0
330
1F
100
AcDbEntity
  8
0
  6
Continuous
 62
     7
370
    25
100
AcDbCircle
 10
1066.724198012
 20
374.8394663215
 30
0.0
 40
4.000000000000006
100
AcDbArc
 50
289.6472242847
 51
325.6882879109
  0
ARC
  5
2E1
330
1F
100
AcDbEntity
  8
0
  6
Continuous
 62
     7
370
    25
100
AcDbCircle
 10
1078.4220045197
 20
366.856259356
 30
0.0
 40
10.16228338041008
100
AcDbArc
 50
100.477002276
 51
145.6882879109
  0
ARC
  5
2E2
330
1F
100
AcDbEntity
  8
0
  6
Continuous
 62
     7
370
    25
100
AcDbCircle
 10
1076.0285637737
 20
379.7991008207
 30
0.0
 40
2.99999999999968
100
AcDbArc
 50
280.4770022761
 51
16.1143882112
  0
LINE
  5
2E3
330
1F
100
AcDbEntity
  8
0
  6
Continuous
 62
     7
370
    25
100
AcDbLine
 10
1078.9106722484
 20
380.6317668767
 30
0.0
 11
1076.5537853847
 21
388.7895714851
 31
0.0
  0
ARC
  5
2E4
330
1F
100
AcDbEntity
  8
0
  6
Continuous
 62
     7
370
    25
100
AcDbCircle
 10
1070.7895868662
 20
387.1242366855
 30
0.0
 40
6.000000000000047
100
AcDbArc
 50
16.1143882112
 51
110.6218188931
  0
ARC
  5
2E5
330
1F
100
AcDbEntity
  8
0
  6
Continuous
 62
     7
370
    25
100
AcDbCircle
 10
1078.4107887127
 20
366.8717784343
 30
0.0
 40
27.63896445763699
100
AcDbArc
 50
110.6218188931
 51
170.7226441352
  0
LINE
  5
2E6
330
1F
100
AcDbEntity
  8
0
  6
Continuous
 62
     7
370
    25
100
AcDbLine
 10
773.5442753444
 20
511.4621516676
 30
0.0
 11
773.5442753444
 21
521.462157032
 31
0.0
  0
LINE
  5
2E7
330
1F
100
AcDbEntity
  8
0
  6
Continuous
 62
     7
370
    25
100
AcDbLine
 10
773.5442753444
 20
521.462157032
 30
0.0
 11
767.4443359981
 21
521.462157032
 31
0.0
  0
LINE
  5
2E8
330
1F
100
AcDbEntity
  8
0
  6
Continuous
 62
     7
370
    25
100
AcDbLine
 10
767.4443359981
 20
521.462157032
 30
0.0
 11
767.4443359981
 21
511.4621516676
 31
0.0
  0
LINE
  5
2E9
330
1F
100
AcDbEntity
  8
0
  6
Continuous
 62
     7
370
    25
100
AcDbLine
 10
767.4443359981
 20
511.4621516676
 30
0.0
 11
773.5442753444
 21
511.4621516676
 31
0.0
  0
CIRCLE
  5
2EA
330
1F
100
AcDbEntity
  8
0
  6
Continuous
 62
     7
370
    25
100
AcDbCircle
 10
755.5756261309
 20
676.5134685605
 30
0.0
 40
1.600000000000023
  0
CIRCLE
  5
2EB
330
1F
100
AcDbEntity
  8
0
  6
Continuous
 62
     7
370
    25
100
AcDbCircle
 10
724.5756261309
 20
676.5134685605
 30
0.0
 40
1.600000000000023
  0
LINE
  5
2EC
330
1F
100
AcDbEntity
  8
0
  6
Continuous
 62
     7
370
    25
100
AcDbLine
 10
751.7492409358
 20
366.8124523373
 30
0.0
 11
740.1060696254
 21
362.6556914659
 31
0.0
  0
ARC
  5
2ED
330
1F
100
AcDbEntity
  8
0
  6
Continuous
 62
     7
370
    25
100
AcDbCircle
 10
741.451036579
 20
358.8885714688
 30
0.0
 40
3.999999999999976
100
AcDbArc
 50
109.6472242847
 51
145.6882879109
  0
ARC
  5
2EE
330
1F
100
AcDbEntity
  8
0
  6
Continuous
 62
     7
370
    25
100
AcDbCircle
 10
729.7532300713
 20
366.8717784343
 30
0.0
 40
10.16228338040958
100
AcDbArc
 50
280.4770062319
 51
325.6882879109
  0
ARC
  5
2EF
330
1F
100
AcDbEntity
  8
0
  6
Continuous
 62
     7
370
    25
100
AcDbCircle
 10
732.146671711
 20
353.9289371349
 30
0.0
 40
2.999999999999843
100
AcDbArc
 50
100.4770062319
 51
196.1143882112
  0
LINE
  5
2F0
330
1F
100
AcDbEntity
  8
0
  6
Continuous
 62
     7
370
    25
100
AcDbLine
 10
729.2645807872
 20
353.0962687345
 30
0.0
 11
731.6213484416
 21
344.9384641261
 31
0.0
  0
ARC
  5
2F1
330
1F
100
AcDbEntity
  8
0
  6
Continuous
 62
     7
370
    25
100
AcDbCircle
 10
737.3856485738
 20
346.6038014243
 30
0.0
 40
6.000000000000113
100
AcDbArc
 50
196.1143882112
 51
290.6218212951
  0
ARC
  5
2F2
330
1F
100
AcDbEntity
  8
0
  6
Continuous
 62
     7
370
    25
100
AcDbCircle
 10
729.7644458783
 20
366.856259356
 30
0.0
 40
27.63896445763739
100
AcDbArc
 50
290.6218212951
 51
350.7226441352
  0
ARC
  5
2F3
330
1F
100
AcDbEntity
  8
0
  6
Continuous
 62
     7
370
    25
100
AcDbCircle
 10
753.0942010397
 20
363.0453323374
 30
0.0
 40
3.999999999999964
100
AcDbArc
 50
350.7226441352
 51
109.6472242847
  0
CIRCLE
  5
2F4
330
1F
100
AcDbEntity
  8
0
  6
Continuous
 62
     7
370
    25
100
AcDbCircle
 10
754.9006530713
 20
392.0192014343
 30
0.0
 40
1.600000000000023
  0
CIRCLE
  5
2F5
330
1F
100
AcDbEntity
  8
0
  6
Continuous
 62
     7
370
    25
100
AcDbCircle
 10
754.9006530713
 20
342.0192014343
 30
0.0
 40
1.600000000000023
  0
CIRCLE
  5
2F6
330
1F
100
AcDbEntity
  8
0
  6
Continuous
 62
     7
370
    25
100
AcDbCircle
 10
704.9006530713
 20
342.0192014343
 30
0.0
 40
1.600000000000023
  0
CIRCLE
  5
2F7
330
1F
100
AcDbEntity
  8
0
  6
Continuous
 62
     7
370
    25
100
AcDbCircle
 10
704.9006530713
 20
392.0192014343
 30
0.0
 40
1.600000000000023
  0
CIRCLE
  5
2F8
330
1F
100
AcDbEntity
  8
0
  6
Continuous
 62
     7
370
    25
100
AcDbCircle
 10
740.0756261309
 20
660.5621575703
 30
0.0
 40
10.99999999999989
  0
LINE
  5
2F9
330
1F
100
AcDbEntity
  8
0
  6
Continuous
 62
     7
370
    25
100
AcDbLine
 10
1031.4608450542
 20
716.9589396925
 30
0.0
 11
1050.798499168
 21
697.406381032
 31
0.0
  0
ARC
  5
2FA
330
1F
100
AcDbEntity
  8
0
  6
Continuous
 62
     7
370
    25
100
AcDbCircle
 10
1051.6872526421
 20
698.2853555591
 30
0.0
 40
1.250000371972476
100
AcDbArc
 50
224.6834525744
 51
44.6834525744
  0
LINE
  5
2FB
330
1F
100
AcDbEntity
  8
0
  6
Continuous
 62
     7
370
    25
100
AcDbLine
 10
1052.5760288845
 20
699.1643306227
 30
0.0
 11
1033.2382555614
 21
718.7169190855
 31
0.0
  0
ARC
  5
2FC
330
1F
100
AcDbEntity
  8
0
  6
Continuous
 62
     7
370
    25
100
AcDbCircle
 10
1032.3495445164
 20
717.8379271862
 30
0.0
 40
1.250000020377944
100
AcDbArc
 50
44.6834444726
 51
224.6834444727
  0
LINE
  5
2FD
330
1F
100
AcDbEntity
  8
0
  6
Continuous
 62
     7
370
    25
100
AcDbLine
 10
767.4443359981
 20
451.4621641846
 30
0.0
 11
767.4443359981
 21
441.4621588202
 31
0.0
  0
LINE
  5
2FE
330
1F
100
AcDbEntity
  8
0
  6
Continuous
 62
     7
370
    25
100
AcDbLine
 10
767.4443359981
 20
441.4621588202
 30
0.0
 11
773.5442753444
 21
441.4621588202
 31
0.0
  0
LINE
  5
2FF
330
1F
100
AcDbEntity
  8
0
  6
Continuous
 62
     7
370
    25
100
AcDbLine
 10
773.5442753444
 20
441.4621588202
 30
0.0
 11
773.5442753444
 21
451.4621641846
 31
0.0
  0
LINE
  5
300
330
1F
100
AcDbEntity
  8
0
  6
Continuous
 62
     7
370
    25
100
AcDbLine
 10
773.5442753444
 20
451.4621641846
 30
0.0
 11
767.4443359981
 21
451.4621641846
 31
0.0
  0
LINE
  5
301
330
1F
100
AcDbEntity
  8
0
  6
Continuous
 62
     7
370
    25
100
AcDbLine
 10
1038.5317440639
 20
716.9198688479
 30
0.0
 11
1050.8375998149
 21
704.4773396464
 31
0.0
  0
ARC
  5
302
330
1F
100
AcDbEntity
  8
0
  6
Continuous
 62
     7
370
    25
100
AcDbCircle
 10
1051.7263186421
 20
705.356315559
 30
0.0
 40
1.250000371972377
100
AcDbArc
 50
224.6834525699
 51
44.6834525699
  0
LINE
  5
303
330
1F
100
AcDbEntity
  8
0
  6
Continuous
 62
     7
370
    25
100
AcDbLine
 10
1052.6151295314
 20
706.2352892371
 30
0.0
 11
1040.3092737804
 21
718.6778482409
 31
0.0
  0
ARC
  5
304
330
1F
100
AcDbEntity
  8
0
  6
Continuous
 62
     7
370
    25
100
AcDbCircle
 10
1039.4205045164
 20
717.7988611861
 30
0.0
 40
1.250000020378384
100
AcDbArc
 50
44.6834444703
 51
224.6834444703
  0
CIRCLE
  5
305
330
1F
100
AcDbEntity
  8
0
  6
Continuous
 62
     7
370
    25
100
AcDbCircle
 10
707.5817899656
 20
497.2801120839
 30
0.0
 40
1.600000000000023
  0
LINE
  5
306
330
1F
100
AcDbEntity
  8
0
  6
Continuous
 62
     7
370
    25
100
AcDbLine
 10
890.5243511806
 20
668.0504676314
 30
0.0
 11
890.5243511806
 21
674.0504797907
 31
0.0
  0
ARC
  5
307
330
1F
100
AcDbEntity
  8
0
  6
Continuous
 62
     7
370
    25
100
AcDbCircle
 10
889.1243151406
 20
674.0504690793
 30
0.0
 40
1.399999999999864
100
AcDbArc
 50
0.0
 51
180.0
  0
LINE
  5
308
330
1F
100
AcDbEntity
  8
0
  6
Continuous
 62
     7
370
    25
100
AcDbLine
 10
887.7243633876
 20
674.0504797907
 30
0.0
 11
887.7243633876
 21
668.0504676314
 31
0.0
  0
ARC
  5
309
330
1F
100
AcDbEntity
  8
0
  6
Continuous
 62
     7
370
    25
100
AcDbCircle
 10
889.1243151406
 20
668.0504690793
 30
0.0
 40
1.399999999999864
100
AcDbArc
 50
180.0
 51
0.0
  0
LINE
  5
30A
330
1F
100
AcDbEntity
  8
0
  6
Continuous
 62
     7
370
    25
100
AcDbLine
 10
992.2242994915
 20
511.4621516676
 30
0.0
 11
992.2242994915
 21
521.462157032
 31
0.0
  0
LINE
  5
30B
330
1F
100
AcDbEntity
  8
0
  6
Continuous
 62
     7
370
    25
100
AcDbLine
 10
992.2242994915
 20
521.462157032
 30
0.0
 11
986.1243601451
 21
521.462157032
 31
0.0
  0
LINE
  5
30C
330
1F
100
AcDbEntity
  8
0
  6
Continuous
 62
     7
370
    25
100
AcDbLine
 10
986.1243601451
 20
521.462157032
 30
0.0
 11
986.1243601451
 21
511.4621516676
 31
0.0
  0
LINE
  5
30D
330
1F
100
AcDbEntity
  8
0
  6
Continuous
 62
     7
370
    25
100
AcDbLine
 10
986.1243601451
 20
511.4621516676
 30
0.0
 11
992.2242994915
 21
511.4621516676
 31
0.0
  0
LINE
  5
30E
330
1F
100
AcDbEntity
  8
0
  6
Continuous
 62
     7
370
    25
100
AcDbLine
 10
881.0243244777
 20
668.0504676314
 30
0.0
 11
881.0243244777
 21
674.0504797907
 31
0.0
  0
ARC
  5
30F
330
1F
100
AcDbEntity
  8
0
  6
Continuous
 62
     7
370
    25
100
AcDbCircle
 10
879.6243151406
 20
674.0504690793
 30
0.0
 40
1.399999999999864
100
AcDbArc
 50
0.0
 51
180.0
  0
LINE
  5
310
330
1F
100
AcDbEntity
  8
0
  6
Continuous
 62
     7
370
    25
100
AcDbLine
 10
878.2243366848
 20
674.0504797907
 30
0.0
 11
878.2243366848
 21
668.0504676314
 31
0.0
  0
ARC
  5
311
330
1F
100
AcDbEntity
  8
0
  6
Continuous
 62
     7
370
    25
100
AcDbCircle
 10
879.6243151406
 20
668.0504690793
 30
0.0
 40
1.399999999999864
100
AcDbArc
 50
180.0
 51
0.0
  0
LINE
  5
312
330
1F
100
AcDbEntity
  8
0
  6
Continuous
 62
     7
370
    25
100
AcDbLine
 10
992.2242994915
 20
611.4621457072
 30
0.0
 11
992.2242994915
 21
621.4621659727
 31
0.0
  0
LINE
  5
313
330
1F
100
AcDbEntity
  8
0
  6
Continuous
 62
     7
370
    25
100
AcDbLine
 10
992.2242994915
 20
621.4621659727
 30
0.0
 11
986.1243601451
 21
621.4621659727
 31
0.0
  0
LINE
  5
314
330
1F
100
AcDbEntity
  8
0
  6
Continuous
 62
     7
370
    25
100
AcDbLine
 10
986.1243601451
 20
621.4621659727
 30
0.0
 11
986.1243601451
 21
611.4621457072
 31
0.0
  0
LINE
  5
315
330
1F
100
AcDbEntity
  8
0
  6
Continuous
 62
     7
370
    25
100
AcDbLine
 10
986.1243601451
 20
611.4621457072
 30
0.0
 11
992.2242994915
 21
611.4621457072
 31
0.0
  0
LINE
  5
316
330
1F
100
AcDbEntity
  8
0
  6
Continuous
 62
     7
370
    25
100
AcDbLine
 10
992.2242994915
 20
681.4621683569
 30
0.0
 11
992.2242994915
 21
691.4621588202
 31
0.0
  0
LINE
  5
317
330
1F
100
AcDbEntity
  8
0
  6
Continuous
 62
     7
370
    25
100
AcDbLine
 10
992.2242994915
 20
691.4621588202
 30
0.0
 11
986.1243601451
 21
691.4621588202
 31
0.0
  0
LINE
  5
318
330
1F
100
AcDbEntity
  8
0
  6
Continuous
 62
     7
370
    25
100
AcDbLine
 10
986.1243601451
 20
691.4621588202
 30
0.0
 11
986.1243601451
 21
681.4621683569
 31
0.0
  0
LINE
  5
319
330
1F
100
AcDbEntity
  8
0
  6
Continuous
 62
     7
370
    25
100
AcDbLine
 10
986.1243601451
 20
681.4621683569
 30
0.0
 11
992.2242994915
 21
681.4621683569
 31
0.0
  0
LINE
  5
31A
330
1F
100
AcDbEntity
  8
0
  6
Continuous
 62
     7
370
    25
100
AcDbLine
 10
871.5242977748
 20
668.0504676314
 30
0.0
 11
871.5242977748
 21
674.0504797907
 31
0.0
  0
ARC
  5
31B
330
1F
100
AcDbEntity
  8
0
  6
Continuous
 62
     7
370
    25
100
AcDbCircle
 10
870.1243151406
 20
674.0504690793
 30
0.0
 40
1.400000000000091
100
AcDbArc
 50
0.0
 51
180.0
  0
LINE
  5
31C
330
1F
100
AcDbEntity
  8
0
  6
Continuous
 62
     7
370
    25
100
AcDbLine
 10
868.7243099819
 20
674.0504797907
 30
0.0
 11
868.7243099819
 21
668.0504676314
 31
0.0
  0
ARC
  5
31D
330
1F
100
AcDbEntity
  8
0
  6
Continuous
 62
     7
370
    25
100
AcDbCircle
 10
870.1243151406
 20
668.0504690793
 30
0.0
 40
1.400000000000091
100
AcDbArc
 50
180.0
 51
0.0
  0
CIRCLE
  5
31E
330
1F
100
AcDbEntity
  8
0
  6
Continuous
 62
     7
370
    25
100
AcDbCircle
 10
745.5817899656
 20
497.2801120839
 30
0.0
 40
1.600000000000023
  0
ARC
  5
31F
330
1F
100
AcDbEntity
  8
0
  6
Continuous
 62
     7
370
    25
100
AcDbCircle
 10
725.9267839264
 20
343.5308084871
 30
0.0
 40
4.000000000000141
100
AcDbArc
 50
260.7226436272
 51
19.647225524
  0
LINE
  5
320
330
1F
100
AcDbEntity
  8
0
  6
Continuous
 62
     7
370
    25
100
AcDbLine
 10
729.6938534389
 20
344.8757227869
 30
0.0
 11
725.5371447216
 21
356.5188866468
 31
0.0
  0
ARC
  5
321
330
1F
100
AcDbEntity
  8
0
  6
Continuous
 62
     7
370
    25
100
AcDbCircle
 10
721.770023149
 20
355.1739718971
 30
0.0
 40
4.000000000000027
100
AcDbArc
 50
19.647225524
 51
55.6882881225
  0
ARC
  5
322
330
1F
100
AcDbEntity
  8
0
  6
Continuous
 62
     7
370
    25
100
AcDbCircle
 10
729.7532300713
 20
366.8717784343
 30
0.0
 40
10.16228338040952
100
AcDbArc
 50
190.477002276
 51
235.6882881225
  0
ARC
  5
323
330
1F
100
AcDbEntity
  8
0
  6
Continuous
 62
     7
370
    25
100
AcDbCircle
 10
716.8103886066
 20
364.4783376883
 30
0.0
 40
2.999999999999969
100
AcDbArc
 50
10.477002276
 51
106.1143882112
  0
LINE
  5
324
330
1F
100
AcDbEntity
  8
0
  6
Continuous
 62
     7
370
    25
100
AcDbLine
 10
715.9777517925
 20
367.3604648919
 30
0.0
 11
707.8199024806
 21
365.0036152811
 31
0.0
  0
ARC
  5
325
330
1F
100
AcDbEntity
  8
0
  6
Continuous
 62
     7
370
    25
100
AcDbCircle
 10
709.4852532202
 20
359.2393609191
 30
0.0
 40
6.000000000000052
100
AcDbArc
 50
106.1143882112
 51
200.6218212951
  0
ARC
  5
326
330
1F
100
AcDbEntity
  8
0
  6
Continuous
 62
     7
370
    25
100
AcDbCircle
 10
729.7532300713
 20
366.8717784343
 30
0.0
 40
10.16228338040984
100
AcDbArc
 50
10.4770045743
 51
55.6882870896
  0
ARC
  5
327
330
1F
100
AcDbEntity
  8
0
  6
Continuous
 62
     7
370
    25
100
AcDbCircle
 10
742.69607144
 20
369.2652196996
 30
0.0
 40
3.000000000000049
100
AcDbArc
 50
190.4770045743
 51
286.1143902979
  0
LINE
  5
328
330
1F
100
AcDbEntity
  8
0
  6
Continuous
 62
     7
370
    25
100
AcDbLine
 10
743.5286875377
 20
366.3830902787
 30
0.0
 11
751.6865368495
 21
368.7399398895
 31
0.0
  0
ARC
  5
329
330
1F
100
AcDbEntity
  8
0
  6
Continuous
 62
     7
370
    25
100
AcDbCircle
 10
750.0212079425
 20
374.5041971131
 30
0.0
 40
5.99999999999997
100
AcDbArc
 50
286.1143902979
 51
20.6218222434
  0
ARC
  5
32A
330
1F
100
AcDbEntity
  8
0
  6
Continuous
 62
     7
370
    25
100
AcDbCircle
 10
729.768750137
 20
366.8829940824
 30
0.0
 40
27.63896445763734
100
AcDbArc
 50
20.6218222434
 51
80.7226433571
  0
ARC
  5
32B
330
1F
100
AcDbEntity
  8
0
  6
Continuous
 62
     7
370
    25
100
AcDbCircle
 10
733.5796774724
 20
390.212749192
 30
0.0
 40
4.000000000000098
100
AcDbArc
 50
80.7226433571
 51
199.6472194746
  0
LINE
  5
32C
330
1F
100
AcDbEntity
  8
0
  6
Continuous
 62
     7
370
    25
100
AcDbLine
 10
729.8125858913
 20
388.8678398342
 30
0.0
 11
733.9692946086
 21
377.2246759744
 31
0.0
  0
ARC
  5
32D
330
1F
100
AcDbEntity
  8
0
  6
Continuous
 62
     7
370
    25
100
AcDbCircle
 10
737.7364372045
 20
378.5695848276
 30
0.0
 40
4.00000000000021
100
AcDbArc
 50
199.6472194746
 51
235.6882870896
  0
LINE
  5
32E
330
1F
100
AcDbEntity
  8
0
  6
Continuous
 62
     7
370
    25
100
AcDbLine
 10
707.7684040676
 20
366.9155832739
 30
0.0
 11
719.411575378
 21
371.0723441453
 31
0.0
  0
ARC
  5
32F
330
1F
100
AcDbEntity
  8
0
  6
Continuous
 62
     7
370
    25
100
AcDbCircle
 10
718.0666393706
 20
374.8394663215
 30
0.0
 40
4.000000000000352
100
AcDbArc
 50
289.6472242847
 51
325.6882879109
  0
ARC
  5
330
330
1F
100
AcDbEntity
  8
0
  6
Continuous
 62
     7
370
    25
100
AcDbCircle
 10
729.7644458783
 20
366.856259356
 30
0.0
 40
10.16228338040986
100
AcDbArc
 50
100.477002276
 51
145.6882879109
  0
ARC
  5
331
330
1F
100
AcDbEntity
  8
0
  6
Continuous
 62
     7
370
    25
100
AcDbCircle
 10
727.3710051323
 20
379.7991008207
 30
0.0
 40
3.00000000000004
100
AcDbArc
 50
280.4770022761
 51
16.1143882112
  0
LINE
  5
332
330
1F
100
AcDbEntity
  8
0
  6
Continuous
 62
     7
370
    25
100
AcDbLine
 10
730.2531834255
 20
380.6317668767
 30
0.0
 11
727.8962965618
 21
388.7895714851
 31
0.0
  0
ARC
  5
333
330
1F
100
AcDbEntity
  8
0
  6
Continuous
 62
     7
370
    25
100
AcDbCircle
 10
722.1320282249
 20
387.1242366855
 30
0.0
 40
5.999999999999829
100
AcDbArc
 50
16.1143882112
 51
110.6218188931
  0
ARC
  5
334
330
1F
100
AcDbEntity
  8
0
  6
Continuous
 62
     7
370
    25
100
AcDbCircle
 10
729.7532300713
 20
366.8717784343
 30
0.0
 40
27.63896445763701
100
AcDbArc
 50
110.6218188931
 51
170.7226441352
  0
ARC
  5
335
330
1F
100
AcDbEntity
  8
0
  6
Continuous
 62
     7
370
    25
100
AcDbCircle
 10
706.42347491
 20
370.6827054529
 30
0.0
 40
4.000000000000142
100
AcDbArc
 50
170.7226441352
 51
289.6472242847
  0
CIRCLE
  5
336
330
1F
100
AcDbEntity
  8
0
  6
Continuous
 62
     7
370
    25
100
AcDbCircle
 10
745.5817899656
 20
535.2801120839
 30
0.0
 40
1.600000000000023
  0
CIRCLE
  5
337
330
1F
100
AcDbEntity
  8
0
  6
Continuous
 62
     7
370
    25
100
AcDbCircle
 10
707.5817899656
 20
535.2801120839
 30
0.0
 40
1.600000000000023
  0
LINE
  5
338
330
1F
100
AcDbEntity
  8
0
  6
Continuous
 62
     7
370
    25
100
AcDbLine
 10
1067.7692528377
 20
676.1934753867
 30
0.0
 11
1108.2026596675
 21
717.0761522265
 31
0.0
  0
ARC
  5
339
330
1F
100
AcDbEntity
  8
0
  6
Continuous
 62
     7
370
    25
100
AcDbCircle
 10
1107.3138520126
 20
717.9551250597
 30
0.0
 40
1.249999664876642
100
AcDbArc
 50
315.3165474672
 51
135.3165474672
  0
LINE
  5
33A
330
1F
100
AcDbEntity
  8
0
  6
Continuous
 62
     7
370
    25
100
AcDbLine
 10
1106.425129951
 20
718.8341018172
 30
0.0
 11
1065.9917231212
 21
677.9514547797
 31
0.0
  0
ARC
  5
33B
330
1F
100
AcDbEntity
  8
0
  6
Continuous
 62
     7
370
    25
100
AcDbCircle
 10
1066.8804623931
 20
677.0724759389
 30
0.0
 40
1.250000020378021
100
AcDbArc
 50
135.3165558794
 51
315.3165558795
  0
LINE
  5
33C
330
1F
100
AcDbEntity
  8
0
  6
Continuous
 62
     7
370
    25
100
AcDbLine
 10
1067.7301521907
 20
683.264434001
 30
0.0
 11
1101.1316414485
 21
717.0370813818
 31
0.0
  0
ARC
  5
33D
330
1F
100
AcDbEntity
  8
0
  6
Continuous
 62
     7
370
    25
100
AcDbCircle
 10
1100.2428920126
 20
717.9160590597
 30
0.0
 40
1.249999664876935
100
AcDbArc
 50
315.3165474677
 51
135.3165474677
  0
LINE
  5
33E
330
1F
100
AcDbEntity
  8
0
  6
Continuous
 62
     7
370
    25
100
AcDbLine
 10
1099.3541117321
 20
718.7950309725
 30
0.0
 11
1065.9526224742
 21
685.022413394
 31
0.0
  0
ARC
  5
33F
330
1F
100
AcDbEntity
  8
0
  6
Continuous
 62
     7
370
    25
100
AcDbCircle
 10
1066.8413965258
 20
684.143435573
 30
0.0
 40
1.250000371972608
100
AcDbArc
 50
135.316548231
 51
315.3165482311
  0
LINE
  5
340
330
1F
100
AcDbEntity
  8
0
  6
Continuous
 62
     7
370
    25
100
AcDbLine
 10
1067.6910515438
 20
690.3354224177
 30
0.0
 11
1094.0607424388
 21
716.9980105372
 31
0.0
  0
ARC
  5
341
330
1F
100
AcDbEntity
  8
0
  6
Continuous
 62
     7
370
    25
100
AcDbCircle
 10
1093.1719320126
 20
717.8769930597
 30
0.0
 40
1.249999664876608
100
AcDbArc
 50
315.3165474683
 51
135.3165474683
  0
LINE
  5
342
330
1F
100
AcDbEntity
  8
0
  6
Continuous
 62
     7
370
    25
100
AcDbLine
 10
1092.2832127223
 20
718.7559899302
 30
0.0
 11
1065.9135218273
 21
692.0933720084
 31
0.0
  0
ARC
  5
343
330
1F
100
AcDbEntity
  8
0
  6
Continuous
 62
     7
370
    25
100
AcDbCircle
 10
1066.8023301446
 20
691.2143956931
 30
0.0
 40
1.250000016471474
100
AcDbArc
 50
135.316539858
 51
315.316539858
  0
CIRCLE
  5
344
330
1F
100
AcDbEntity
  8
0
  6
Continuous
 62
     7
370
    25
100
AcDbCircle
 10
764.0647621355
 20
541.1978625605
 30
0.0
 40
1.25
  0
CIRCLE
  5
345
330
1F
100
AcDbEntity
  8
0
  6
Continuous
 62
     7
370
    25
100
AcDbCircle
 10
759.0934071355
 20
541.2657205605
 30
0.0
 40
1.25
  0
LINE
  5
346
330
1F
100
AcDbEntity
  8
0
  6
Continuous
 62
     7
370
    25
100
AcDbLine
 10
1067.6520701061
 20
697.406381032
 30
0.0
 11
1086.9897242198
 21
716.9589396925
 31
0.0
  0
ARC
  5
347
330
1F
100
AcDbEntity
  8
0
  6
Continuous
 62
     7
370
    25
100
AcDbCircle
 10
1086.1009720126
 20
717.8379270596
 30
0.0
 40
1.249999664876256
100
AcDbArc
 50
315.3165474694
 51
135.3165474694
  0
LINE
  5
348
330
1F
100
AcDbEntity
  8
0
  6
Continuous
 62
     7
370
    25
100
AcDbLine
 10
1085.2121945034
 20
718.7169190855
 30
0.0
 11
1065.8745403896
 21
699.1643306227
 31
0.0
  0
ARC
  5
349
330
1F
100
AcDbEntity
  8
0
  6
Continuous
 62
     7
370
    25
100
AcDbCircle
 10
1066.7632641476
 20
698.2853556961
 30
0.0
 40
1.250000016471755
100
AcDbArc
 50
135.3165400544
 51
315.3165400544
  0
LINE
  5
34A
330
1F
100
AcDbEntity
  8
0
  6
Continuous
 62
     7
370
    25
100
AcDbLine
 10
1067.6129694591
 20
704.4773396464
 30
0.0
 11
1079.9187060009
 21
716.9198688479
 31
0.0
  0
ARC
  5
34B
330
1F
100
AcDbEntity
  8
0
  6
Continuous
 62
     7
370
    25
100
AcDbCircle
 10
1079.0300120126
 20
717.7988610596
 30
0.0
 40
1.249999664876697
100
AcDbArc
 50
315.3165474717
 51
135.3165474717
  0
LINE
  5
34C
330
1F
100
AcDbEntity
  8
0
  6
Continuous
 62
     7
370
    25
100
AcDbLine
 10
1078.1412954936
 20
718.6778482409
 30
0.0
 11
1065.8354397426
 21
706.2352892371
 31
0.0
  0
ARC
  5
34D
330
1F
100
AcDbEntity
  8
0
  6
Continuous
 62
     7
370
    25
100
AcDbCircle
 10
1066.724198154
 20
705.3563157027
 30
0.0
 40
1.25000001647136
100
AcDbArc
 50
135.3165404753
 51
315.3165404754
  0
CIRCLE
  5
34E
330
1F
100
AcDbEntity
  8
0
  6
Continuous
 62
     7
370
    25
100
AcDbCircle
 10
764.0274561355
 20
436.8442525605
 30
0.0
 40
1.25
  0
CIRCLE
  5
34F
330
1F
100
AcDbEntity
  8
0
  6
Continuous
 62
     7
370
    25
100
AcDbCircle
 10
759.0561011355
 20
436.9121115605
 30
0.0
 40
1.25
  0
CIRCLE
  5
350
330
1F
100
AcDbEntity
  8
0
  6
Continuous
 62
     7
370
    25
100
AcDbCircle
 10
1000.1776741406
 20
436.7763945605
 30
0.0
 40
1.250000000000227
  0
CIRCLE
  5
351
330
1F
100
AcDbEntity
  8
0
  6
Continuous
 62
     7
370
    25
100
AcDbCircle
 10
995.2063191406
 20
436.8442535605
 30
0.0
 40
1.25
  0
LINE
  5
352
330
1F
100
AcDbEntity
  8
0
  6
Continuous
 62
     7
370
    25
100
AcDbLine
 10
693.2569380413
 20
677.9514547797
 30
0.0
 11
652.8235312114
 21
718.8341018172
 31
0.0
  0
ARC
  5
353
330
1F
100
AcDbEntity
  8
0
  6
Continuous
 62
     7
370
    25
100
AcDbCircle
 10
651.9347782686
 20
717.9551250597
 30
0.0
 40
1.249999664876884
100
AcDbArc
 50
44.6834525327
 51
224.6834525328
  0
LINE
  5
354
330
1F
100
AcDbEntity
  8
0
  6
Continuous
 62
     7
370
    25
100
AcDbLine
 10
651.0460014949
 20
717.0761522265
 30
0.0
 11
691.4794083248
 21
676.1934753867
 31
0.0
  0
ARC
  5
355
330
1F
100
AcDbEntity
  8
0
  6
Continuous
 62
     7
370
    25
100
AcDbCircle
 10
692.3681678881
 20
677.0724759389
 30
0.0
 40
1.25000002037794
100
AcDbArc
 50
224.6834441205
 51
44.6834441205
  0
CIRCLE
  5
356
330
1F
100
AcDbEntity
  8
0
  6
Continuous
 62
     7
370
    25
100
AcDbCircle
 10
1000.2149801406
 20
541.1300045605
 30
0.0
 40
1.249999999999773
  0
CIRCLE
  5
357
330
1F
100
AcDbEntity
  8
0
  6
Continuous
 62
     7
370
    25
100
AcDbCircle
 10
995.2436251406
 20
541.1978625605
 30
0.0
 40
1.25
  0
CIRCLE
  5
358
330
1F
100
AcDbEntity
  8
0
  6
Continuous
 62
     7
370
    25
100
AcDbCircle
 10
1000.1956701406
 20
603.4197345605
 30
0.0
 40
1.250000000000227
  0
CIRCLE
  5
359
330
1F
100
AcDbEntity
  8
0
  6
Continuous
 62
     7
370
    25
100
AcDbCircle
 10
995.2243151406
 20
603.4875925605
 30
0.0
 40
1.25
  0
LINE
  5
35A
330
1F
100
AcDbEntity
  8
0
  6
Continuous
 62
     7
370
    25
100
AcDbLine
 10
658.1170197139
 20
717.0370813818
 30
0.0
 11
691.5185089717
 21
683.264434001
 31
0.0
  0
ARC
  5
35B
330
1F
100
AcDbEntity
  8
0
  6
Continuous
 62
     7
370
    25
100
AcDbCircle
 10
692.4072337554
 20
684.143435573
 30
0.0
 40
1.250000371972444
100
AcDbArc
 50
224.683451769
 51
44.683451769
  0
LINE
  5
35C
330
1F
100
AcDbEntity
  8
0
  6
Continuous
 62
     7
370
    25
100
AcDbLine
 10
693.2960386882
 20
685.022413394
 30
0.0
 11
659.8945494304
 21
718.7950309725
 31
0.0
  0
ARC
  5
35D
330
1F
100
AcDbEntity
  8
0
  6
Continuous
 62
     7
370
    25
100
AcDbCircle
 10
659.0057382686
 20
717.9160590597
 30
0.0
 40
1.249999664876691
100
AcDbArc
 50
44.6834525323
 51
224.6834525323
  0
LINE
  5
35E
330
1F
100
AcDbEntity
  8
0
  6
Continuous
 62
     7
370
    25
100
AcDbLine
 10
693.3350201259
 20
692.0933720084
 30
0.0
 11
666.9654484401
 21
718.7559899302
 31
0.0
  0
ARC
  5
35F
330
1F
100
AcDbEntity
  8
0
  6
Continuous
 62
     7
370
    25
100
AcDbCircle
 10
666.0766982686
 20
717.8769930597
 30
0.0
 40
1.249999664876607
100
AcDbArc
 50
44.6834525317
 51
224.6834525317
  0
LINE
  5
360
330
1F
100
AcDbEntity
  8
0
  6
Continuous
 62
     7
370
    25
100
AcDbLine
 10
665.1879187236
 20
716.9980105372
 30
0.0
 11
691.5574904094
 21
690.3354224177
 31
0.0
  0
ARC
  5
361
330
1F
100
AcDbEntity
  8
0
  6
Continuous
 62
     7
370
    25
100
AcDbCircle
 10
692.4463001367
 20
691.2143956931
 30
0.0
 40
1.25000001647115
100
AcDbArc
 50
224.683460142
 51
44.683460142
  0
LINE
  5
362
330
1F
100
AcDbEntity
  8
0
  6
Continuous
 62
     7
370
    25
100
AcDbLine
 10
693.3741207729
 20
699.1643306227
 30
0.0
 11
674.0364666591
 21
718.7169190855
 31
0.0
  0
ARC
  5
363
330
1F
100
AcDbEntity
  8
0
  6
Continuous
 62
     7
370
    25
100
AcDbCircle
 10
673.1476582686
 20
717.8379270596
 30
0.0
 40
1.249999664876335
100
AcDbArc
 50
44.6834525306
 51
224.6834525306
  0
LINE
  5
364
330
1F
100
AcDbEntity
  8
0
  6
Continuous
 62
     7
370
    25
100
AcDbLine
 10
672.2589369426
 20
716.9589396925
 30
0.0
 11
691.5965910564
 21
697.406381032
 31
0.0
  0
ARC
  5
365
330
1F
100
AcDbEntity
  8
0
  6
Continuous
 62
     7
370
    25
100
AcDbCircle
 10
692.4853661336
 20
698.2853556961
 30
0.0
 40
1.250000016471514
100
AcDbArc
 50
224.6834599456
 51
44.6834599456
  0
LINE
  5
366
330
1F
100
AcDbEntity
  8
0
  6
Continuous
 62
     7
370
    25
100
AcDbLine
 10
693.4132214199
 20
706.2352892371
 30
0.0
 11
681.1073656688
 21
718.6778482409
 31
0.0
  0
ARC
  5
367
330
1F
100
AcDbEntity
  8
0
  6
Continuous
 62
     7
370
    25
100
AcDbCircle
 10
680.2186182687
 20
717.7988610596
 30
0.0
 40
1.249999664876537
100
AcDbArc
 50
44.6834525283
 51
224.6834525283
  0
LINE
  5
368
330
1F
100
AcDbEntity
  8
0
  6
Continuous
 62
     7
370
    25
100
AcDbLine
 10
679.3298359523
 20
716.9198688479
 30
0.0
 11
691.6356917034
 21
704.4773396464
 31
0.0
  0
ARC
  5
369
330
1F
100
AcDbEntity
  8
0
  6
Continuous
 62
     7
370
    25
100
AcDbCircle
 10
692.5244321272
 20
705.3563157027
 30
0.0
 40
1.2500000164712
100
AcDbArc
 50
224.6834595246
 51
44.6834595247
  0
LINE
  5
36A
330
1F
100
AcDbEntity
  8
0
  6
Continuous
 62
     7
370
    25
100
AcDbLine
 10
992.2242994915
 20
714.4805487605
 30
0.0
 11
992.2242994915
 21
709.1976102801
 31
0.0
  0
ARC
  5
36B
330
1F
100
AcDbEntity
  8
0
  6
Continuous
 62
     7
370
    25
100
AcDbCircle
 10
996.2243151406
 20
709.1976113483
 30
0.0
 40
4.0
100
AcDbArc
 50
180.0
 51
0.0
  0
LINE
  5
36C
330
1F
100
AcDbEntity
  8
0
  6
Continuous
 62
     7
370
    25
100
AcDbLine
 10
1000.2243157039
 20
709.1976102801
 30
0.0
 11
1000.2243157039
 21
714.4805487605
 31
0.0
  0
ARC
  5
36D
330
1F
100
AcDbEntity
  8
0
  6
Continuous
 62
     7
370
    25
100
AcDbCircle
 10
996.2243151406
 20
714.4805518276
 30
0.0
 40
4.0
100
AcDbArc
 50
0.0
 51
180.0
  0
CIRCLE
  5
36E
330
1F
100
AcDbEntity
  8
0
  6
Continuous
 62
     7
370
    25
100
AcDbCircle
 10
764.0454521355
 20
603.4875925605
 30
0.0
 40
1.25
  0
CIRCLE
  5
36F
330
1F
100
AcDbEntity
  8
0
  6
Continuous
 62
     7
370
    25
100
AcDbCircle
 10
759.0740971355
 20
603.5554505605
 30
0.0
 40
1.25
  0
CIRCLE
  5
370
330
1F
100
AcDbEntity
  8
0
  6
Continuous
 62
     7
370
    25
100
AcDbCircle
 10
1034.6730041504
 20
645.5134685605
 30
0.0
 40
1.600000000000136
  0
CIRCLE
  5
371
330
1F
100
AcDbEntity
  8
0
  6
Continuous
 62
     7
370
    25
100
AcDbCircle
 10
1003.6730041504
 20
645.5134685605
 30
0.0
 40
1.599999999999795
  0
CIRCLE
  5
372
330
1F
100
AcDbEntity
  8
0
  6
Continuous
 62
     7
370
    25
100
AcDbCircle
 10
1003.6730041504
 20
676.5134685605
 30
0.0
 40
1.599999999999795
  0
CIRCLE
  5
373
330
1F
100
AcDbEntity
  8
0
  6
Continuous
 62
     7
370
    25
100
AcDbCircle
 10
1019.1730041504
 20
660.5621575703
 30
0.0
 40
10.99999999999966
  0
CIRCLE
  5
374
330
1F
100
AcDbEntity
  8
0
  6
Continuous
 62
     7
370
    25
100
AcDbCircle
 10
1034.6730041504
 20
676.5134685605
 30
0.0
 40
1.600000000000136
  0
CIRCLE
  5
375
330
1F
100
AcDbEntity
  8
0
  6
Continuous
 62
     7
370
    25
100
AcDbCircle
 10
1051.6668403156
 20
497.2801120839
 30
0.0
 40
1.599999999999909
  0
CIRCLE
  5
376
330
1F
100
AcDbEntity
  8
0
  6
Continuous
 62
     7
370
    25
100
AcDbCircle
 10
1013.6668403156
 20
497.2801120839
 30
0.0
 40
1.60000000000025
  0
CIRCLE
  5
377
330
1F
100
AcDbEntity
  8
0
  6
Continuous
 62
     7
370
    25
100
AcDbCircle
 10
1013.6668403156
 20
535.2801120839
 30
0.0
 40
1.60000000000025
  0
CIRCLE
  5
378
330
1F
100
AcDbEntity
  8
0
  6
Continuous
 62
     7
370
    25
100
AcDbCircle
 10
1051.6668403156
 20
535.2801120839
 30
0.0
 40
1.599999999999909
  0
ARC
  5
379
330
1F
100
AcDbEntity
  8
0
  6
Continuous
 62
     7
370
    25
100
AcDbCircle
 10
729.7377111519
 20
366.8605636146
 30
0.0
 40
27.63896445763735
100
AcDbArc
 50
200.6218212951
 51
260.7226436272
  0
LINE
  5
37A
330
1F
100
AcDbEntity
  8
0
  6
Continuous
 62
     7
370
    25
100
AcDbLine
 10
610.6242771755
 20
321.5621557446
 30
0.0
 11
760.1441975246
 21
321.5621557446
 31
0.0
  0
LINE
  5
37B
330
1F
100
AcDbEntity
  8
0
  6
Continuous
 62
     7
370
    25
100
AcDbLine
 10
760.1441975246
 20
321.5621557446
 30
0.0
 11
777.1441574703
 21
330.2621577294
 31
0.0
  0
LINE
  5
37C
330
1F
100
AcDbEntity
  8
0
  6
Continuous
 62
     7
370
    25
100
AcDbLine
 10
777.1441574703
 20
330.2621577294
 30
0.0
 11
981.1441536556
 21
330.2621577294
 31
0.0
  0
LINE
  5
37D
330
1F
100
AcDbEntity
  8
0
  6
Continuous
 62
     7
370
    25
100
AcDbLine
 10
981.1441536556
 20
330.2621577294
 30
0.0
 11
998.1441136013
 21
321.5621557446
 31
0.0
  0
LINE
  5
37E
330
1F
100
AcDbEntity
  8
0
  6
Continuous
 62
     7
370
    25
100
AcDbLine
 10
998.1441136013
 20
321.5621557446
 30
0.0
 11
1148.6242647777
 21
321.5621557446
 31
0.0
  0
LINE
  5
37F
330
1F
100
AcDbEntity
  8
0
  6
Continuous
 62
     7
370
    25
100
AcDbLine
 10
1148.6242647777
 20
321.5621557446
 30
0.0
 11
1148.6242647777
 21
371.4621585222
 31
0.0
  0
LINE
  5
380
330
1F
100
AcDbEntity
  8
0
  6
Continuous
 62
     7
370
    25
100
AcDbLine
 10
1148.6242647777
 20
371.4621585222
 30
0.0
 11
1154.6243067394
 21
371.5621527644
 31
0.0
  0
LINE
  5
381
330
1F
100
AcDbEntity
  8
0
  6
Continuous
 62
     7
370
    25
100
AcDbLine
 10
1154.6243067394
 20
371.5621527644
 30
0.0
 11
1154.6243067394
 21
381.5702941628
 31
0.0
  0
LINE
  5
382
330
1F
100
AcDbEntity
  8
0
  6
Continuous
 62
     7
370
    25
100
AcDbLine
 10
1154.6243067394
 20
381.5702941628
 30
0.0
 11
1148.6242647777
 21
381.670288405
 31
0.0
  0
LINE
  5
383
330
1F
100
AcDbEntity
  8
0
  6
Continuous
 62
     7
370
    25
100
AcDbLine
 10
1148.6242647777
 20
381.670288405
 30
0.0
 11
1148.6242647777
 21
400.0202861042
 31
0.0
  0
LINE
  5
384
330
1F
100
AcDbEntity
  8
0
  6
Continuous
 62
     7
370
    25
100
AcDbLine
 10
1148.6242647777
 20
400.0202861042
 30
0.0
 11
1141.8243284832
 21
400.0202861042
 31
0.0
  0
LINE
  5
385
330
1F
100
AcDbEntity
  8
0
  6
Continuous
 62
     7
370
    25
100
AcDbLine
 10
1141.8243284832
 20
400.0202861042
 30
0.0
 11
1141.8243284832
 21
398.8202881427
 31
0.0
  0
LINE
  5
386
330
1F
100
AcDbEntity
  8
0
  6
Continuous
 62
     7
370
    25
100
AcDbLine
 10
1141.8243284832
 20
398.8202881427
 30
0.0
 11
1139.6243210445
 21
398.8202881427
 31
0.0
  0
LINE
  5
387
330
1F
100
AcDbEntity
  8
0
  6
Continuous
 62
     7
370
    25
100
AcDbLine
 10
1139.6243210445
 20
398.8202881427
 30
0.0
 11
1139.6243210445
 21
400.0202861042
 31
0.0
  0
LINE
  5
388
330
1F
100
AcDbEntity
  8
0
  6
Continuous
 62
     7
370
    25
100
AcDbLine
 10
1139.6243210445
 20
400.0202861042
 30
0.0
 11
1138.1243105541
 21
400.0202861042
 31
0.0
  0
LINE
  5
389
330
1F
100
AcDbEntity
  8
0
  6
Continuous
 62
     7
370
    25
100
AcDbLine
 10
1138.1243105541
 20
400.0202861042
 30
0.0
 11
1138.1243105541
 21
403.1202864261
 31
0.0
  0
LINE
  5
38A
330
1F
100
AcDbEntity
  8
0
  6
Continuous
 62
     7
370
    25
100
AcDbLine
 10
1138.1243105541
 20
403.1202864261
 30
0.0
 11
1139.6243210445
 21
403.1202864261
 31
0.0
  0
LINE
  5
38B
330
1F
100
AcDbEntity
  8
0
  6
Continuous
 62
     7
370
    25
100
AcDbLine
 10
1139.6243210445
 20
403.1202864261
 30
0.0
 11
1139.6243210445
 21
404.3202918382
 31
0.0
  0
LINE
  5
38C
330
1F
100
AcDbEntity
  8
0
  6
Continuous
 62
     7
370
    25
100
AcDbLine
 10
1139.6243210445
 20
404.3202918382
 30
0.0
 11
1141.8243284832
 21
404.3202918382
 31
0.0
  0
LINE
  5
38D
330
1F
100
AcDbEntity
  8
0
  6
Continuous
 62
     7
370
    25
100
AcDbLine
 10
1141.8243284832
 20
404.3202918382
 30
0.0
 11
1141.8243284832
 21
403.1202864261
 31
0.0
  0
LINE
  5
38E
330
1F
100
AcDbEntity
  8
0
  6
Continuous
 62
     7
370
    25
100
AcDbLine
 10
1141.8243284832
 20
403.1202864261
 30
0.0
 11
1148.6242647777
 21
403.1202864261
 31
0.0
  0
LINE
  5
38F
330
1F
100
AcDbEntity
  8
0
  6
Continuous
 62
     7
370
    25
100
AcDbLine
 10
1148.6242647777
 20
403.1202864261
 30
0.0
 11
1148.6242647777
 21
421.4702841254
 31
0.0
  0
LINE
  5
390
330
1F
100
AcDbEntity
  8
0
  6
Continuous
 62
     7
370
    25
100
AcDbLine
 10
1148.6242647777
 20
421.4702841254
 30
0.0
 11
1154.6243067394
 21
421.5702858181
 31
0.0
  0
LINE
  5
391
330
1F
100
AcDbEntity
  8
0
  6
Continuous
 62
     7
370
    25
100
AcDbLine
 10
1154.6243067394
 20
421.5702858181
 30
0.0
 11
1154.6243067394
 21
431.5784123154
 31
0.0
  0
LINE
  5
392
330
1F
100
AcDbEntity
  8
0
  6
Continuous
 62
     7
370
    25
100
AcDbLine
 10
1154.6243067394
 20
431.5784123154
 30
0.0
 11
1148.6242647777
 21
431.6784140082
 31
0.0
  0
LINE
  5
393
330
1F
100
AcDbEntity
  8
0
  6
Continuous
 62
     7
370
    25
100
AcDbLine
 10
1148.6242647777
 20
431.6784140082
 30
0.0
 11
1148.6242647777
 21
521.4784141989
 31
0.0
  0
LINE
  5
394
330
1F
100
AcDbEntity
  8
0
  6
Continuous
 62
     7
370
    25
100
AcDbLine
 10
1148.6242647777
 20
521.4784141989
 30
0.0
 11
1154.6243067394
 21
521.5784158917
 31
0.0
  0
LINE
  5
395
330
1F
100
AcDbEntity
  8
0
  6
Continuous
 62
     7
370
    25
100
AcDbLine
 10
1154.6243067394
 20
521.5784158917
 30
0.0
 11
1154.6243067394
 21
531.5865572901
 31
0.0
  0
LINE
  5
396
330
1F
100
AcDbEntity
  8
0
  6
Continuous
 62
     7
370
    25
100
AcDbLine
 10
1154.6243067394
 20
531.5865572901
 30
0.0
 11
1148.6242647777
 21
531.6865440817
 31
0.0
  0
LINE
  5
397
330
1F
100
AcDbEntity
  8
0
  6
Continuous
 62
     7
370
    25
100
AcDbLine
 10
1148.6242647777
 20
531.6865440817
 30
0.0
 11
1148.6242647777
 21
550.0365492316
 31
0.0
  0
LINE
  5
398
330
1F
100
AcDbEntity
  8
0
  6
Continuous
 62
     7
370
    25
100
AcDbLine
 10
1148.6242647777
 20
550.0365492316
 30
0.0
 11
1142.3045035015
 21
550.0365492316
 31
0.0
  0
LINE
  5
399
330
1F
100
AcDbEntity
  8
0
  6
Continuous
 62
     7
370
    25
100
AcDbLine
 10
1142.3045035015
 20
550.0365492316
 30
0.0
 11
1142.3045035015
 21
548.8365289183
 31
0.0
  0
LINE
  5
39A
330
1F
100
AcDbEntity
  8
0
  6
Continuous
 62
     7
370
    25
100
AcDbLine
 10
1142.3045035015
 20
548.8365289183
 30
0.0
 11
1140.1044960628
 21
548.8365289183
 31
0.0
  0
LINE
  5
39B
330
1F
100
AcDbEntity
  8
0
  6
Continuous
 62
     7
370
    25
100
AcDbLine
 10
1140.1044960628
 20
548.8365289183
 30
0.0
 11
1140.1044960628
 21
550.0365492316
 31
0.0
  0
LINE
  5
39C
330
1F
100
AcDbEntity
  8
0
  6
Continuous
 62
     7
370
    25
100
AcDbLine
 10
1140.1044960628
 20
550.0365492316
 30
0.0
 11
1138.6044855724
 21
550.0365492316
 31
0.0
  0
LINE
  5
39D
330
1F
100
AcDbEntity
  8
0
  6
Continuous
 62
     7
370
    25
100
AcDbLine
 10
1138.6044855724
 20
550.0365492316
 30
0.0
 11
1138.6044855724
 21
553.136557004
 31
0.0
  0
LINE
  5
39E
330
1F
100
AcDbEntity
  8
0
  6
Continuous
 62
     7
370
    25
100
AcDbLine
 10
1138.6044855724
 20
553.136557004
 30
0.0
 11
1140.1044960628
 21
553.136557004
 31
0.0
  0
LINE
  5
39F
330
1F
100
AcDbEntity
  8
0
  6
Continuous
 62
     7
370
    25
100
AcDbLine
 10
1140.1044960628
 20
553.136557004
 30
0.0
 11
1140.1044960628
 21
554.336547515
 31
0.0
  0
LINE
  5
3A0
330
1F
100
AcDbEntity
  8
0
  6
Continuous
 62
     7
370
    25
100
AcDbLine
 10
1140.1044960628
 20
554.336547515
 30
0.0
 11
1142.3045035015
 21
554.336547515
 31
0.0
  0
LINE
  5
3A1
330
1F
100
AcDbEntity
  8
0
  6
Continuous
 62
     7
370
    25
100
AcDbLine
 10
1142.3045035015
 20
554.336547515
 30
0.0
 11
1142.3045035015
 21
553.136557004
 31
0.0
  0
LINE
  5
3A2
330
1F
100
AcDbEntity
  8
0
  6
Continuous
 62
     7
370
    25
100
AcDbLine
 10
1142.3045035015
 20
553.136557004
 30
0.0
 11
1148.6242647777
 21
553.136557004
 31
0.0
  0
LINE
  5
3A3
330
1F
100
AcDbEntity
  8
0
  6
Continuous
 62
     7
370
    25
100
AcDbLine
 10
1148.6242647777
 20
553.136557004
 30
0.0
 11
1148.6242647777
 21
571.4540478201
 31
0.0
  0
LINE
  5
3A4
330
1F
100
AcDbEntity
  8
0
  6
Continuous
 62
     7
370
    25
100
AcDbLine
 10
1148.6242647777
 20
571.4540478201
 30
0.0
 11
1154.6243067394
 21
571.5540346117
 31
0.0
  0
LINE
  5
3A5
330
1F
100
AcDbEntity
  8
0
  6
Continuous
 62
     7
370
    25
100
AcDbLine
 10
1154.6243067394
 20
571.5540346117
 30
0.0
 11
1154.6243067394
 21
581.562161109
 31
0.0
  0
LINE
  5
3A6
330
1F
100
AcDbEntity
  8
0
  6
Continuous
 62
     7
370
    25
100
AcDbLine
 10
1154.6243067394
 20
581.562161109
 30
0.0
 11
1148.6242647777
 21
581.6621479006
 31
0.0
  0
LINE
  5
3A7
330
1F
100
AcDbEntity
  8
0
  6
Continuous
 62
     7
370
    25
100
AcDbLine
 10
1148.6242647777
 20
581.6621479006
 30
0.0
 11
1148.6242647777
 21
691.4621588202
 31
0.0
  0
LINE
  5
3A8
330
1F
100
AcDbEntity
  8
0
  6
Continuous
 62
     7
370
    25
100
AcDbLine
 10
1148.6242647777
 20
691.4621588202
 30
0.0
 11
1154.6243067394
 21
691.5621456118
 31
0.0
  0
LINE
  5
3A9
330
1F
100
AcDbEntity
  8
0
  6
Continuous
 62
     7
370
    25
100
AcDbLine
 10
1154.6243067394
 20
691.5621456118
 30
0.0
 11
1154.6243067394
 21
701.5621360751
 31
0.0
  0
LINE
  5
3AA
330
1F
100
AcDbEntity
  8
0
  6
Continuous
 62
     7
370
    25
100
AcDbLine
 10
1154.6243067394
 20
701.5621360751
 30
0.0
 11
1148.6242647777
 21
701.6546424837
 31
0.0
  0
LINE
  5
3AB
330
1F
100
AcDbEntity
  8
0
  6
Continuous
 62
     7
370
    25
100
AcDbLine
 10
1148.6242647777
 20
701.6546424837
 30
0.0
 11
1148.6242647777
 21
720.0164493533
 31
0.0
  0
LINE
  5
3AC
330
1F
100
AcDbEntity
  8
0
  6
Continuous
 62
     7
370
    25
100
AcDbLine
 10
1148.6242647777
 20
720.0164493533
 30
0.0
 11
1141.1161060939
 21
720.0164493533
 31
0.0
  0
LINE
  5
3AD
330
1F
100
AcDbEntity
  8
0
  6
Continuous
 62
     7
370
    25
100
AcDbLine
 10
1141.1161060939
 20
720.0164493533
 30
0.0
 11
1141.1161060939
 21
718.81642904
 31
0.0
  0
LINE
  5
3AE
330
1F
100
AcDbEntity
  8
0
  6
Continuous
 62
     7
370
    25
100
AcDbLine
 10
1141.1161060939
 20
718.81642904
 30
0.0
 11
1138.9160986553
 21
718.81642904
 31
0.0
  0
LINE
  5
3AF
330
1F
100
AcDbEntity
  8
0
  6
Continuous
 62
     7
370
    25
100
AcDbLine
 10
1138.9160986553
 20
718.81642904
 30
0.0
 11
1138.9160986553
 21
720.0164493533
 31
0.0
  0
LINE
  5
3B0
330
1F
100
AcDbEntity
  8
0
  6
Continuous
 62
     7
370
    25
100
AcDbLine
 10
1138.9160986553
 20
720.0164493533
 30
0.0
 11
1137.4160881649
 21
720.0164493533
 31
0.0
  0
LINE
  5
3B1
330
1F
100
AcDbEntity
  8
0
  6
Continuous
 62
     7
370
    25
100
AcDbLine
 10
1137.4160881649
 20
720.0164493533
 30
0.0
 11
1137.4160881649
 21
723.1164273234
 31
0.0
  0
LINE
  5
3B2
330
1F
100
AcDbEntity
  8
0
  6
Continuous
 62
     7
370
    25
100
AcDbLine
 10
1137.4160881649
 20
723.1164273234
 30
0.0
 11
1138.9160986553
 21
723.1164273234
 31
0.0
  0
LINE
  5
3B3
330
1F
100
AcDbEntity
  8
0
  6
Continuous
 62
     7
370
    25
100
AcDbLine
 10
1138.9160986553
 20
723.1164273234
 30
0.0
 11
1138.9160986553
 21
724.3164476366
 31
0.0
  0
LINE
  5
3B4
330
1F
100
AcDbEntity
  8
0
  6
Continuous
 62
     7
370
    25
100
AcDbLine
 10
1138.9160986553
 20
724.3164476366
 30
0.0
 11
1141.1161060939
 21
724.3164476366
 31
0.0
  0
LINE
  5
3B5
330
1F
100
AcDbEntity
  8
0
  6
Continuous
 62
     7
370
    25
100
AcDbLine
 10
1141.1161060939
 20
724.3164476366
 30
0.0
 11
1141.1161060939
 21
723.1164273234
 31
0.0
  0
LINE
  5
3B6
330
1F
100
AcDbEntity
  8
0
  6
Continuous
 62
     7
370
    25
100
AcDbLine
 10
1141.1161060939
 20
723.1164273234
 30
0.0
 11
1148.6242647777
 21
723.1164273234
 31
0.0
  0
LINE
  5
3B7
330
1F
100
AcDbEntity
  8
0
  6
Continuous
 62
     7
370
    25
100
AcDbLine
 10
1148.6242647777
 20
723.1164273234
 30
0.0
 11
1148.6242647777
 21
741.4782341929
 31
0.0
  0
LINE
  5
3B8
330
1F
100
AcDbEntity
  8
0
  6
Continuous
 62
     7
370
    25
100
AcDbLine
 10
1148.6242647777
 20
741.4782341929
 30
0.0
 11
1154.6243067394
 21
741.5707107993
 31
0.0
  0
LINE
  5
3B9
330
1F
100
AcDbEntity
  8
0
  6
Continuous
 62
     7
370
    25
100
AcDbLine
 10
1154.6243067394
 20
741.5707107993
 30
0.0
 11
1154.6243067394
 21
751.562147996
 31
0.0
  0
LINE
  5
3BA
330
1F
100
AcDbEntity
  8
0
  6
Continuous
 62
     7
370
    25
100
AcDbLine
 10
1154.6243067394
 20
751.562147996
 30
0.0
 11
1148.6242647777
 21
751.6546246024
 31
0.0
  0
LINE
  5
3BB
330
1F
100
AcDbEntity
  8
0
  6
Continuous
 62
     7
370
    25
100
AcDbLine
 10
1148.6242647777
 20
751.6546246024
 30
0.0
 11
1148.6242647777
 21
804.5621510954
 31
0.0
  0
LINE
  5
3BC
330
1F
100
AcDbEntity
  8
0
  6
Continuous
 62
     7
370
    25
100
AcDbLine
 10
1148.6242647777
 20
804.5621510954
 30
0.0
 11
1019.6243162761
 21
804.5621510954
 31
0.0
  0
LINE
  5
3BD
330
1F
100
AcDbEntity
  8
0
  6
Continuous
 62
     7
370
    25
100
AcDbLine
 10
1019.6243162761
 20
804.5621510954
 30
0.0
 11
1004.6243305812
 21
789.5621654005
 31
0.0
  0
LINE
  5
3BE
330
1F
100
AcDbEntity
  8
0
  6
Continuous
 62
     7
370
    25
100
AcDbLine
 10
1004.6243305812
 20
789.5621654005
 30
0.0
 11
754.6243305812
 21
789.5621654005
 31
0.0
  0
LINE
  5
3BF
330
1F
100
AcDbEntity
  8
0
  6
Continuous
 62
     7
370
    25
100
AcDbLine
 10
754.6243305812
 20
789.5621654005
 30
0.0
 11
739.6243448864
 21
804.5621510954
 31
0.0
  0
LINE
  5
3C0
330
1F
100
AcDbEntity
  8
0
  6
Continuous
 62
     7
370
    25
100
AcDbLine
 10
739.6243448864
 20
804.5621510954
 30
0.0
 11
610.6242771755
 21
804.5621510954
 31
0.0
  0
LINE
  5
3C1
330
1F
100
AcDbEntity
  8
0
  6
Continuous
 62
     7
370
    25
100
AcDbLine
 10
610.6242771755
 20
804.5621510954
 30
0.0
 11
610.6242771755
 21
751.6621645899
 31
0.0
  0
LINE
  5
3C2
330
1F
100
AcDbEntity
  8
0
  6
Continuous
 62
     7
370
    25
100
AcDbLine
 10
610.6242771755
 20
751.6621645899
 30
0.0
 11
604.6243544231
 21
751.562147996
 31
0.0
  0
LINE
  5
3C3
330
1F
100
AcDbEntity
  8
0
  6
Continuous
 62
     7
370
    25
100
AcDbLine
 10
604.6243544231
 20
751.562147996
 30
0.0
 11
604.6243544231
 21
741.5621575327
 31
0.0
  0
LINE
  5
3C4
330
1F
100
AcDbEntity
  8
0
  6
Continuous
 62
     7
370
    25
100
AcDbLine
 10
604.6243544231
 20
741.5621575327
 30
0.0
 11
610.6242771755
 21
741.4621707411
 31
0.0
  0
LINE
  5
3C5
330
1F
100
AcDbEntity
  8
0
  6
Continuous
 62
     7
370
    25
100
AcDbLine
 10
610.6242771755
 20
741.4621707411
 30
0.0
 11
610.6242771755
 21
723.1121655913
 31
0.0
  0
LINE
  5
3C6
330
1F
100
AcDbEntity
  8
0
  6
Continuous
 62
     7
370
    25
100
AcDbLine
 10
610.6242771755
 20
723.1121655913
 30
0.0
 11
617.4243326793
 21
723.1121655913
 31
0.0
  0
LINE
  5
3C7
330
1F
100
AcDbEntity
  8
0
  6
Continuous
 62
     7
370
    25
100
AcDbLine
 10
617.4243326793
 20
723.1121655913
 30
0.0
 11
617.4243326793
 21
724.3121561022
 31
0.0
  0
LINE
  5
3C8
330
1F
100
AcDbEntity
  8
0
  6
Continuous
 62
     7
370
    25
100
AcDbLine
 10
617.4243326793
 20
724.3121561022
 30
0.0
 11
619.624340118
 21
724.3121561022
 31
0.0
  0
LINE
  5
3C9
330
1F
100
AcDbEntity
  8
0
  6
Continuous
 62
     7
370
    25
100
AcDbLine
 10
619.624340118
 20
724.3121561022
 30
0.0
 11
619.624340118
 21
723.1121655913
 31
0.0
  0
LINE
  5
3CA
330
1F
100
AcDbEntity
  8
0
  6
Continuous
 62
     7
370
    25
100
AcDbLine
 10
619.624340118
 20
723.1121655913
 30
0.0
 11
621.1243506084
 21
723.1121655913
 31
0.0
  0
LINE
  5
3CB
330
1F
100
AcDbEntity
  8
0
  6
Continuous
 62
     7
370
    25
100
AcDbLine
 10
621.1243506084
 20
723.1121655913
 30
0.0
 11
621.1243506084
 21
720.0121578188
 31
0.0
  0
LINE
  5
3CC
330
1F
100
AcDbEntity
  8
0
  6
Continuous
 62
     7
370
    25
100
AcDbLine
 10
621.1243506084
 20
720.0121578188
 30
0.0
 11
619.624340118
 21
720.0121578188
 31
0.0
  0
LINE
  5
3CD
330
1F
100
AcDbEntity
  8
0
  6
Continuous
 62
     7
370
    25
100
AcDbLine
 10
619.624340118
 20
720.0121578188
 30
0.0
 11
619.624340118
 21
718.8121673079
 31
0.0
  0
LINE
  5
3CE
330
1F
100
AcDbEntity
  8
0
  6
Continuous
 62
     7
370
    25
100
AcDbLine
 10
619.624340118
 20
718.8121673079
 30
0.0
 11
617.4243326793
 21
718.8121673079
 31
0.0
  0
LINE
  5
3CF
330
1F
100
AcDbEntity
  8
0
  6
Continuous
 62
     7
370
    25
100
AcDbLine
 10
617.4243326793
 20
718.8121673079
 30
0.0
 11
617.4243326793
 21
720.0121578188
 31
0.0
  0
LINE
  5
3D0
330
1F
100
AcDbEntity
  8
0
  6
Continuous
 62
     7
370
    25
100
AcDbLine
 10
617.4243326793
 20
720.0121578188
 30
0.0
 11
610.6242771755
 21
720.0121578188
 31
0.0
  0
LINE
  5
3D1
330
1F
100
AcDbEntity
  8
0
  6
Continuous
 62
     7
370
    25
100
AcDbLine
 10
610.6242771755
 20
720.0121578188
 30
0.0
 11
610.6242771755
 21
701.662152669
 31
0.0
  0
LINE
  5
3D2
330
1F
100
AcDbEntity
  8
0
  6
Continuous
 62
     7
370
    25
100
AcDbLine
 10
610.6242771755
 20
701.662152669
 30
0.0
 11
604.6243544231
 21
701.5621658774
 31
0.0
  0
LINE
  5
3D3
330
1F
100
AcDbEntity
  8
0
  6
Continuous
 62
     7
370
    25
100
AcDbLine
 10
604.6243544231
 20
701.5621658774
 30
0.0
 11
604.6243544231
 21
691.5621456118
 31
0.0
  0
LINE
  5
3D4
330
1F
100
AcDbEntity
  8
0
  6
Continuous
 62
     7
370
    25
100
AcDbLine
 10
604.6243544231
 20
691.5621456118
 30
0.0
 11
610.6242771755
 21
691.4621588202
 31
0.0
  0
LINE
  5
3D5
330
1F
100
AcDbEntity
  8
0
  6
Continuous
 62
     7
370
    25
100
AcDbLine
 10
610.6242771755
 20
691.4621588202
 30
0.0
 11
610.6242771755
 21
581.6621479006
 31
0.0
  0
LINE
  5
3D6
330
1F
100
AcDbEntity
  8
0
  6
Continuous
 62
     7
370
    25
100
AcDbLine
 10
610.6242771755
 20
581.6621479006
 30
0.0
 11
604.6243544231
 21
581.562161109
 31
0.0
  0
LINE
  5
3D7
330
1F
100
AcDbEntity
  8
0
  6
Continuous
 62
     7
370
    25
100
AcDbLine
 10
604.6243544231
 20
581.562161109
 30
0.0
 11
604.6243544231
 21
571.5621706458
 31
0.0
  0
LINE
  5
3D8
330
1F
100
AcDbEntity
  8
0
  6
Continuous
 62
     7
370
    25
100
AcDbLine
 10
604.6243544231
 20
571.5621706458
 30
0.0
 11
610.6242771755
 21
571.4621540518
 31
0.0
  0
LINE
  5
3D9
330
1F
100
AcDbEntity
  8
0
  6
Continuous
 62
     7
370
    25
100
AcDbLine
 10
610.6242771755
 20
571.4621540518
 30
0.0
 11
610.6242771755
 21
553.112148902
 31
0.0
  0
LINE
  5
3DA
330
1F
100
AcDbEntity
  8
0
  6
Continuous
 62
     7
370
    25
100
AcDbLine
 10
610.6242771755
 20
553.112148902
 30
0.0
 11
617.4243326793
 21
553.112148902
 31
0.0
  0
LINE
  5
3DB
330
1F
100
AcDbEntity
  8
0
  6
Continuous
 62
     7
370
    25
100
AcDbLine
 10
617.4243326793
 20
553.112148902
 30
0.0
 11
617.4243326793
 21
554.3121692152
 31
0.0
  0
LINE
  5
3DC
330
1F
100
AcDbEntity
  8
0
  6
Continuous
 62
     7
370
    25
100
AcDbLine
 10
617.4243326793
 20
554.3121692152
 30
0.0
 11
619.624340118
 21
554.3121692152
 31
0.0
  0
LINE
  5
3DD
330
1F
100
AcDbEntity
  8
0
  6
Continuous
 62
     7
370
    25
100
AcDbLine
 10
619.624340118
 20
554.3121692152
 30
0.0
 11
619.624340118
 21
553.112148902
 31
0.0
  0
LINE
  5
3DE
330
1F
100
AcDbEntity
  8
0
  6
Continuous
 62
     7
370
    25
100
AcDbLine
 10
619.624340118
 20
553.112148902
 30
0.0
 11
621.1243506084
 21
553.112148902
 31
0.0
  0
LINE
  5
3DF
330
1F
100
AcDbEntity
  8
0
  6
Continuous
 62
     7
370
    25
100
AcDbLine
 10
621.1243506084
 20
553.112148902
 30
0.0
 11
621.1243506084
 21
550.0121709319
 31
0.0
  0
LINE
  5
3E0
330
1F
100
AcDbEntity
  8
0
  6
Continuous
 62
     7
370
    25
100
AcDbLine
 10
621.1243506084
 20
550.0121709319
 30
0.0
 11
619.624340118
 21
550.0121709319
 31
0.0
  0
LINE
  5
3E1
330
1F
100
AcDbEntity
  8
0
  6
Continuous
 62
     7
370
    25
100
AcDbLine
 10
619.624340118
 20
550.0121709319
 30
0.0
 11
619.624340118
 21
548.8121506186
 31
0.0
  0
LINE
  5
3E2
330
1F
100
AcDbEntity
  8
0
  6
Continuous
 62
     7
370
    25
100
AcDbLine
 10
619.624340118
 20
548.8121506186
 30
0.0
 11
617.4243326793
 21
548.8121506186
 31
0.0
  0
LINE
  5
3E3
330
1F
100
AcDbEntity
  8
0
  6
Continuous
 62
     7
370
    25
100
AcDbLine
 10
617.4243326793
 20
548.8121506186
 30
0.0
 11
617.4243326793
 21
550.0121709319
 31
0.0
  0
LINE
  5
3E4
330
1F
100
AcDbEntity
  8
0
  6
Continuous
 62
     7
370
    25
100
AcDbLine
 10
617.4243326793
 20
550.0121709319
 30
0.0
 11
610.6242771755
 21
550.0121709319
 31
0.0
  0
LINE
  5
3E5
330
1F
100
AcDbEntity
  8
0
  6
Continuous
 62
     7
370
    25
100
AcDbLine
 10
610.6242771755
 20
550.0121709319
 30
0.0
 11
610.6242771755
 21
531.662165782
 31
0.0
  0
LINE
  5
3E6
330
1F
100
AcDbEntity
  8
0
  6
Continuous
 62
     7
370
    25
100
AcDbLine
 10
610.6242771755
 20
531.662165782
 30
0.0
 11
604.6243544231
 21
531.5621491881
 31
0.0
  0
LINE
  5
3E7
330
1F
100
AcDbEntity
  8
0
  6
Continuous
 62
     7
370
    25
100
AcDbLine
 10
604.6243544231
 20
531.5621491881
 30
0.0
 11
604.6243544231
 21
521.5621587248
 31
0.0
  0
LINE
  5
3E8
330
1F
100
AcDbEntity
  8
0
  6
Continuous
 62
     7
370
    25
100
AcDbLine
 10
604.6243544231
 20
521.5621587248
 30
0.0
 11
610.6242771755
 21
521.462157032
 31
0.0
  0
LINE
  5
3E9
330
1F
100
AcDbEntity
  8
0
  6
Continuous
 62
     7
370
    25
100
AcDbLine
 10
610.6242771755
 20
521.462157032
 30
0.0
 11
610.6242771755
 21
431.6621568413
 31
0.0
  0
LINE
  5
3EA
330
1F
100
AcDbEntity
  8
0
  6
Continuous
 62
     7
370
    25
100
AcDbLine
 10
610.6242771755
 20
431.6621568413
 30
0.0
 11
604.6243544231
 21
431.5621551485
 31
0.0
  0
LINE
  5
3EB
330
1F
100
AcDbEntity
  8
0
  6
Continuous
 62
     7
370
    25
100
AcDbLine
 10
604.6243544231
 20
431.5621551485
 30
0.0
 11
604.6243544231
 21
421.5621646853
 31
0.0
  0
LINE
  5
3EC
330
1F
100
AcDbEntity
  8
0
  6
Continuous
 62
     7
370
    25
100
AcDbLine
 10
604.6243544231
 20
421.5621646853
 30
0.0
 11
610.6242771755
 21
421.4621629925
 31
0.0
  0
LINE
  5
3ED
330
1F
100
AcDbEntity
  8
0
  6
Continuous
 62
     7
370
    25
100
AcDbLine
 10
610.6242771755
 20
421.4621629925
 30
0.0
 11
610.6242771755
 21
403.1121578427
 31
0.0
  0
LINE
  5
3EE
330
1F
100
AcDbEntity
  8
0
  6
Continuous
 62
     7
370
    25
100
AcDbLine
 10
610.6242771755
 20
403.1121578427
 30
0.0
 11
617.4243326793
 21
403.1121578427
 31
0.0
  0
LINE
  5
3EF
330
1F
100
AcDbEntity
  8
0
  6
Continuous
 62
     7
370
    25
100
AcDbLine
 10
617.4243326793
 20
403.1121578427
 30
0.0
 11
617.4243326793
 21
404.3121558042
 31
0.0
  0
LINE
  5
3F0
330
1F
100
AcDbEntity
  8
0
  6
Continuous
 62
     7
370
    25
100
AcDbLine
 10
617.4243326793
 20
404.3121558042
 30
0.0
 11
619.624340118
 21
404.3121558042
 31
0.0
  0
LINE
  5
3F1
330
1F
100
AcDbEntity
  8
0
  6
Continuous
 62
     7
370
    25
100
AcDbLine
 10
619.624340118
 20
404.3121558042
 30
0.0
 11
619.624340118
 21
403.1121578427
 31
0.0
  0
LINE
  5
3F2
330
1F
100
AcDbEntity
  8
0
  6
Continuous
 62
     7
370
    25
100
AcDbLine
 10
619.624340118
 20
403.1121578427
 30
0.0
 11
621.1243506084
 21
403.1121578427
 31
0.0
  0
LINE
  5
3F3
330
1F
100
AcDbEntity
  8
0
  6
Continuous
 62
     7
370
    25
100
AcDbLine
 10
621.1243506084
 20
403.1121578427
 30
0.0
 11
621.1243506084
 21
400.0121575208
 31
0.0
  0
LINE
  5
3F4
330
1F
100
AcDbEntity
  8
0
  6
Continuous
 62
     7
370
    25
100
AcDbLine
 10
621.1243506084
 20
400.0121575208
 30
0.0
 11
619.624340118
 21
400.0121575208
 31
0.0
  0
LINE
  5
3F5
330
1F
100
AcDbEntity
  8
0
  6
Continuous
 62
     7
370
    25
100
AcDbLine
 10
619.624340118
 20
400.0121575208
 30
0.0
 11
619.624340118
 21
398.8121595593
 31
0.0
  0
LINE
  5
3F6
330
1F
100
AcDbEntity
  8
0
  6
Continuous
 62
     7
370
    25
100
AcDbLine
 10
619.624340118
 20
398.8121595593
 30
0.0
 11
617.4243326793
 21
398.8121595593
 31
0.0
  0
LINE
  5
3F7
330
1F
100
AcDbEntity
  8
0
  6
Continuous
 62
     7
370
    25
100
AcDbLine
 10
617.4243326793
 20
398.8121595593
 30
0.0
 11
617.4243326793
 21
400.0121575208
 31
0.0
  0
LINE
  5
3F8
330
1F
100
AcDbEntity
  8
0
  6
Continuous
 62
     7
370
    25
100
AcDbLine
 10
617.4243326793
 20
400.0121575208
 30
0.0
 11
610.6242771755
 21
400.0121575208
 31
0.0
  0
LINE
  5
3F9
330
1F
100
AcDbEntity
  8
0
  6
Continuous
 62
     7
370
    25
100
AcDbLine
 10
610.6242771755
 20
400.0121575208
 30
0.0
 11
610.6242771755
 21
381.6621598215
 31
0.0
  0
LINE
  5
3FA
330
1F
100
AcDbEntity
  8
0
  6
Continuous
 62
     7
370
    25
100
AcDbLine
 10
610.6242771755
 20
381.6621598215
 30
0.0
 11
604.6243544231
 21
381.5621581288
 31
0.0
  0
LINE
  5
3FB
330
1F
100
AcDbEntity
  8
0
  6
Continuous
 62
     7
370
    25
100
AcDbLine
 10
604.6243544231
 20
381.5621581288
 30
0.0
 11
604.6243544231
 21
371.5621602149
 31
0.0
  0
LINE
  5
3FC
330
1F
100
AcDbEntity
  8
0
  6
Continuous
 62
     7
370
    25
100
AcDbLine
 10
604.6243544231
 20
371.5621602149
 30
0.0
 11
610.6242771755
 21
371.4621585222
 31
0.0
  0
LINE
  5
3FD
330
1F
100
AcDbEntity
  8
0
  6
Continuous
 62
     7
370
    25
100
AcDbLine
 10
610.6242771755
 20
371.4621585222
 30
0.0
 11
610.6242771755
 21
321.5621557446
 31
0.0
  0
ENDSEC
  0
SECTION
  2
OBJECTS
  0
DICTIONARY
  5
C
330
0
100
AcDbDictionary
281
     1
  3
ACAD_GROUP
350
D
  3
ACAD_LAYOUT
350
1A
  3
ACAD_MLINESTYLE
350
17
  3
ACAD_PLOTSETTINGS
350
19
  3
ACAD_PLOTSTYLENAME
350
E
  3
ACAD_SCALELIST
350
47
  0
DICTIONARY
  5
D
102
{ACAD_REACTORS
330
C
102
}
330
C
100
AcDbDictionary
281
     1
  0
DICTIONARY
  5
1A
102
{ACAD_REACTORS
330
C
102
}
330
C
100
AcDbDictionary
281
     1
  3
Layout1
350
1E
  3
Layout2
350
26
  3
Model
350
22
  0
DICTIONARY
  5
17
102
{ACAD_REACTORS
330
C
102
}
330
C
100
AcDbDictionary
281
     1
  3
Standard
350
18
  0
DICTIONARY
  5
19
102
{ACAD_REACTORS
330
C
102
}
330
C
100
AcDbDictionary
281
     1
  0
ACDBDICTIONARYWDFLT
  5
E
102
{ACAD_REACTORS
330
C
102
}
330
C
100
AcDbDictionary
281
     1
  3
Normal
350
F
100
AcDbDictionaryWithDefault
340
F
  0
DICTIONARY
  5
47
102
{ACAD_REACTORS
330
C
102
}
330
C
100
AcDbDictionary
281
     1
  3
A0
350
48
  3
A1
350
49
  3
A2
350
4A
  3
A3
350
4B
  3
A4
350
4C
  3
A5
350
4D
  3
A6
350
4E
  3
A7
350
4F
  3
A8
350
50
  3
A9
350
51
  3
B0
350
52
  3
B1
350
53
  3
B2
350
54
  3
B3
350
55
  3
B4
350
56
  3
B5
350
57
  3
B6
350
58
  3
B7
350
59
  3
B8
350
5A
  3
B9
350
5B
  3
C0
350
5C
  3
C1
350
5D
  3
C2
350
5E
  3
C3
350
5F
  3
C4
350
60
  3
C5
350
61
  3
C6
350
62
  3
C7
350
63
  3
C8
350
64
  3
C9
350
65
  3
D0
350
66
  3
D1
350
67
  3
D2
350
68
  0
LAYOUT
  5
1E
102
{ACAD_REACTORS
330
1A
102
}
330
1A
100
AcDbPlotSettings
  1

  2
none_device
  4

  6

 40
0.0
 41
0.0
 42
0.0
 43
0.0
 44
0.0
 45
0.0
 46
0.0
 47
0.0
 48
0.0
 49
0.0
140
0.0
141
0.0
142
1.0
143
1.0
 70
   688
 72
     1
 73
     0
 74
     5
  7

 75
    16
147
1.0
148
0.0
149
0.0
100
AcDbLayout
  1
Layout1
 70
     1
 71
     1
 10
0.0
 20
0.0
 11
420.0
 21
297.0
 12
0.0
 22
0.0
 32
0.0
 14
1.0000000000E+20
 24
1.0000000000E+20
 34
1.0000000000E+20
 15
-1.0000000000E+20
 25
-1.0000000000E+20
 35
-1.0000000000E+20
146
0.0
 13
0.0
 23
0.0
 33
0.0
 16
1.0
 26
0.0
 36
0.0
 17
0.0
 27
1.0
 37
0.0
 76
     0
330
1B
  0
LAYOUT
  5
26
102
{ACAD_REACTORS
330
1A
102
}
330
1A
100
AcDbPlotSettings
  1

  2
none_device
  4

  6

 40
0.0
 41
0.0
 42
0.0
 43
0.0
 44
0.0
 45
0.0
 46
0.0
 47
0.0
 48
0.0
 49
0.0
140
0.0
141
0.0
142
1.0
143
1.0
 70
   688
 72
     1
 73
     0
 74
     5
  7

 75
    16
147
1.0
148
0.0
149
0.0
100
AcDbLayout
  1
Layout2
 70
     1
 71
     2
 10
0.0
 20
0.0
 11
0.0
 21
0.0
 12
0.0
 22
0.0
 32
0.0
 14
0.0
 24
0.0
 34
0.0
 15
0.0
 25
0.0
 35
0.0
146
0.0
 13
0.0
 23
0.0
 33
0.0
 16
1.0
 26
0.0
 36
0.0
 17
0.0
 27
1.0
 37
0.0
 76
     0
330
23
  0
LAYOUT
  5
22
102
{ACAD_REACTORS
330
1A
102
}
330
1A
100
AcDbPlotSettings
  1

  2
none_device
  4
Letter_(8.50_x_11.00_Inches)
  6

 40
6.35
 41
6.35
 42
6.35000508
 43
6.35000508
 44
215.9
 45
279.4
 46
0.0
 47
0.0
 48
0.0
 49
0.0
140
0.0
141
0.0
142
1.0
143
1.0
 70
  1712
 72
     1
 73
     0
 74
     0
  7

 75
     0
147
1.0
148
0.0
149
0.0
100
AcDbLayout
  1
Model
 70
     1
 71
     0
 10
0.0
 20
0.0
 11
1189.0
 21
841.0
 12
0.0
 22
0.0
 32
0.0
 14
0.0
 24
0.0
 34
0.0
 15
1189.0
 25
841.0
 35
0.0
146
0.0
 13
0.0
 23
0.0
 33
0.0
 16
1.0
 26
0.0
 36
0.0
 17
0.0
 27
1.0
 37
0.0
 76
     0
330
1F
331
29
  0
MLINESTYLE
  5
18
102
{ACAD_REACTORS
330
17
102
}
330
17
100
AcDbMlineStyle
  2
Standard
 70
     0
  3

 62
   256
 51
90.0
 52
90.0
 71
     2
 49
0.5
 62
   256
  6
BYLAYER
 49
-0.5
 62
   256
  6
BYLAYER
  0
ACDBPLACEHOLDER
  5
F
102
{ACAD_REACTORS
330
E
102
}
330
E
  0
SCALE
  5
48
102
{ACAD_REACTORS
330
47
102
}
330
47
100
AcDbScale
 70
     0
300
1:1
140
1.0
141
1.0
290
     1
  0
SCALE
  5
49
102
{ACAD_REACTORS
330
47
102
}
330
47
100
AcDbScale
 70
     0
300
1:2
140
1.0
141
2.0
290
     0
  0
SCALE
  5
4A
102
{ACAD_REACTORS
330
47
102
}
330
47
100
AcDbScale
 70
     0
300
1:4
140
1.0
141
4.0
290
     0
  0
SCALE
  5
4B
102
{ACAD_REACTORS
330
47
102
}
330
47
100
AcDbScale
 70
     0
300
1:5
140
1.0
141
5.0
290
     0
  0
SCALE
  5
4C
102
{ACAD_REACTORS
330
47
102
}
330
47
100
AcDbScale
 70
     0
300
1:8
140
1.0
141
8.0
290
     0
  0
SCALE
  5
4D
102
{ACAD_REACTORS
330
47
102
}
330
47
100
AcDbScale
 70
     0
300
1:10
140
1.0
141
10.0
290
     0
  0
SCALE
  5
4E
102
{ACAD_REACTORS
330
47
102
}
330
47
100
AcDbScale
 70
     0
300
1:16
140
1.0
141
16.0
290
     0
  0
SCALE
  5
4F
102
{ACAD_REACTORS
330
47
102
}
330
47
100
AcDbScale
 70
     0
300
1:20
140
1.0
141
20.0
290
     0
  0
SCALE
  5
50
102
{ACAD_REACTORS
330
47
102
}
330
47
100
AcDbScale
 70
     0
300
1:30
140
1.0
141
30.0
290
     0
  0
SCALE
  5
51
102
{ACAD_REACTORS
330
47
102
}
330
47
100
AcDbScale
 70
     0
300
1:40
140
1.0
141
40.0
290
     0
  0
SCALE
  5
52
102
{ACAD_REACTORS
330
47
102
}
330
47
100
AcDbScale
 70
     0
300
1:50
140
1.0
141
50.0
290
     0
  0
SCALE
  5
53
102
{ACAD_REACTORS
330
47
102
}
330
47
100
AcDbScale
 70
     0
300
1:100
140
1.0
141
100.0
290
     0
  0
SCALE
  5
54
102
{ACAD_REACTORS
330
47
102
}
330
47
100
AcDbScale
 70
     0
300
2:1
140
2.0
141
1.0
290
     0
  0
SCALE
  5
55
102
{ACAD_REACTORS
330
47
102
}
330
47
100
AcDbScale
 70
     0
300
4:1
140
4.0
141
1.0
290
     0
  0
SCALE
  5
56
102
{ACAD_REACTORS
330
47
102
}
330
47
100
AcDbScale
 70
     0
300
8:1
140
8.0
141
1.0
290
     0
  0
SCALE
  5
57
102
{ACAD_REACTORS
330
47
102
}
330
47
100
AcDbScale
 70
     0
300
10:1
140
10.0
141
1.0
290
     0
  0
SCALE
  5
58
102
{ACAD_REACTORS
330
47
102
}
330
47
100
AcDbScale
 70
     0
300
100:1
140
100.0
141
1.0
290
     0
  0
SCALE
  5
59
102
{ACAD_REACTORS
330
47
102
}
330
47
100
AcDbScale
 70
     0
300
1/128" = 1'-0"
140
0.0078125
141
12.0
290
     0
  0
SCALE
  5
5A
102
{ACAD_REACTORS
330
47
102
}
330
47
100
AcDbScale
 70
     0
300
1/64" = 1'-0"
140
0.015625
141
12.0
290
     0
  0
SCALE
  5
5B
102
{ACAD_REACTORS
330
47
102
}
330
47
100
AcDbScale
 70
     0
300
1/32" = 1'-0"
140
0.03125
141
12.0
290
     0
  0
SCALE
  5
5C
102
{ACAD_REACTORS
330
47
102
}
330
47
100
AcDbScale
 70
     0
300
1/16" = 1'-0"
140
0.0625
141
12.0
290
     0
  0
SCALE
  5
5D
102
{ACAD_REACTORS
330
47
102
}
330
47
100
AcDbScale
 70
     0
300
3/32" = 1'-0"
140
0.09375
141
12.0
290
     0
  0
SCALE
  5
5E
102
{ACAD_REACTORS
330
47
102
}
330
47
100
AcDbScale
 70
     0
300
1/8" = 1'-0"
140
0.125
141
12.0
290
     0
  0
SCALE
  5
5F
102
{ACAD_REACTORS
330
47
102
}
330
47
100
AcDbScale
 70
     0
300
3/16" = 1'-0"
140
0.1875
141
12.0
290
     0
  0
SCALE
  5
60
102
{ACAD_REACTORS
330
47
102
}
330
47
100
AcDbScale
 70
     0
300
1/4" = 1'-0"
140
0.25
141
12.0
290
     0
  0
SCALE
  5
61
102
{ACAD_REACTORS
330
47
102
}
330
47
100
AcDbScale
 70
     0
300
3/8" = 1'-0"
140
0.375
141
12.0
290
     0
  0
SCALE
  5
62
102
{ACAD_REACTORS
330
47
102
}
330
47
100
AcDbScale
 70
     0
300
1/2" = 1'-0"
140
0.5
141
12.0
290
     0
  0
SCALE
  5
63
102
{ACAD_REACTORS
330
47
102
}
330
47
100
AcDbScale
 70
     0
300
3/4" = 1'-0"
140
0.75
141
12.0
290
     0
  0
SCALE
  5
64
102
{ACAD_REACTORS
330
47
102
}
330
47
100
AcDbScale
 70
     0
300
1" = 1'-0"
140
1.0
141
12.0
290
     0
  0
SCALE
  5
65
102
{ACAD_REACTORS
330
47
102
}
330
47
100
AcDbScale
 70
     0
300
1-1/2" = 1'-0"
140
1.5
141
12.0
290
     0
  0
SCALE
  5
66
102
{ACAD_REACTORS
330
47
102
}
330
47
100
AcDbScale
 70
     0
300
3" = 1'-0"
140
3.0
141
12.0
290
     0
  0
SCALE
  5
67
102
{ACAD_REACTORS
330
47
102
}
330
47
100
AcDbScale
 70
     0
300
6" = 1'-0"
140
6.0
141
12.0
290
     0
  0
SCALE
  5
68
102
{ACAD_REACTORS
330
47
102
}
330
47
100
AcDbScale
 70
     0
300
1'-0" = 1'-0"
140
12.0
141
12.0
290
     0
  0
ENDSEC
  0
EOF
